<svg width="24" height="24" viewBox="0 0 24 24" xmlns="http://www.w3.org/2000/svg" xmlns:xlink="http://www.w3.org/1999/xlink"><g id="Page-1" stroke="none" stroke-width="1" fill="none" fill-rule="evenodd"><g id="02---01---Каталог-(теговая-страница)_desktop" transform="translate(-452 -604)"><g id="каталог" transform="translate(432 554)"><g id="1"><g id="new" transform="translate(20 50)"><rect id="Rectangle" fill="#00b2b2" x="0" y="0" width="24" height="24" rx="2"/><path d="M9 16H7.611l-2.183-4.476-.03.01V16H4V9h1.398l2.184 4.471.03-.01V9H9v7zm4.6-3.072h-2.274v1.98H14V16h-4V9h3.99v1.096h-2.664v1.74H13.6v1.092zm5.358.538h.028L19.716 9H21l-1.307 7H18.46l-.953-4.288h-.028L16.535 16h-1.228L14 9h1.284l.73 4.466h.028L17.019 9h.948l.991 4.466z" id="NEW" fill="#FFF"/></g></g></g></g></g></svg>