<svg xmlns="http://www.w3.org/2000/svg" width="24" height="24" viewBox="0 0 24 24"><g fill="none" fill-rule="evenodd"><rect width="24" height="24" fill="#00B2B2" fill-rule="nonzero" rx="2"/><path fill="#FFF" d="M11.816 20a7.808 7.808 0 006.85-11.566l-1.01 1.011a6.458 6.458 0 11-3.1-3.099l1.011-1.01A7.813 7.813 0 1011.816 20m0-11.029c.415 0 .826.081 1.21.239l1.018-1.018a4.585 4.585 0 101.765 1.765l-1.017 1.018a3.214 3.214 0 11-2.976-2.004m3.538-2.416l2.507-2.508a.161.161 0 01.275.114v1.544c0 .089.072.16.161.16h1.543a.161.161 0 01.114.275l-2.507 2.508a.26.26 0 01-.207.075l-1.107-.095-3.242 3.242a1.123 1.123 0 11-.76-.76l3.242-3.242-.095-1.107a.26.26 0 01.076-.206"/></g></svg>