<svg xmlns="http://www.w3.org/2000/svg" width="24" height="24"><g fill="none" fill-rule="evenodd"><rect width="24" height="24" fill="#00B2B2" rx="2"/><path fill="#FFF" fill-rule="nonzero" d="M8.736 17.68L16.528 6.8 15.36 6 7.568 16.88l1.168.8zm-.048-5.824c1.648 0 2.688-1.168 2.688-2.864s-1.04-2.864-2.688-2.864C7.04 6.128 6 7.296 6 8.992s1.04 2.864 2.688 2.864zm0-1.584c-.56 0-.864-.4-.864-1.28s.304-1.28.864-1.28.864.4.864 1.28-.304 1.28-.864 1.28zm6.72 7.28c1.648 0 2.688-1.168 2.688-2.864s-1.04-2.864-2.688-2.864c-1.648 0-2.688 1.168-2.688 2.864s1.04 2.864 2.688 2.864zm0-1.584c-.56 0-.864-.4-.864-1.28s.304-1.28.864-1.28.864.4.864 1.28-.304 1.28-.864 1.28z"/></g></svg>