<svg width="24" height="24" viewBox="0 0 24 24" xmlns="http://www.w3.org/2000/svg" xmlns:xlink="http://www.w3.org/1999/xlink"><g id="Page-1" stroke="none" stroke-width="1" fill="none" fill-rule="evenodd"><g id="02---01---Каталог-(теговая-страница)_desktop" transform="translate(-452 -634)"><g id="каталог" transform="translate(432 554)"><g id="1"><g id="truck" transform="translate(20 80)"><rect id="Rectangle" fill="#00b2b2" x="0" y="0" width="24" height="24" rx="2"/><g transform="translate(3 3)" id="delivery-truck" stroke-width="1"><path id="Rectangle-4" d="M0 0h18v18H0z"/><path d="M.632 10.722V2.797c0-.44.345-.797.77-.797h7.655c.425 0 .77.357.77.797v7.925a.261.261 0 01-.257.266H.888a.261.261 0 01-.256-.266zm6.18 2.715c0 .913-.715 1.654-1.597 1.654-.883 0-1.599-.74-1.599-1.654 0-.913.716-1.654 1.599-1.654.882 0 1.598.74 1.598 1.654zm-.798 0a.814.814 0 00-.8-.827c-.44 0-.799.37-.799.827 0 .457.358.827.8.827.44 0 .799-.37.799-.827zm-2.176-1.654H.257A.261.261 0 000 12.05v.806c0 .147.115.266.257.266h2.87a2.203 2.203 0 01.711-1.338zm11.337 1.654c0 .913-.716 1.654-1.599 1.654-.882 0-1.598-.74-1.598-1.654 0-.913.716-1.654 1.598-1.654.883 0 1.599.74 1.599 1.654zm-.8 0a.813.813 0 00-.799-.827c-.44 0-.799.37-.799.827 0 .457.358.827.8.827.44 0 .799-.37.799-.827zM18 12.05v.806a.261.261 0 01-.257.266h-2.08c-.148-1.055-1.026-1.87-2.086-1.87-1.061 0-1.94.815-2.088 1.87H7.302a2.203 2.203 0 00-.71-1.338h3.97V4.181c0-.294.23-.532.513-.532H13.5c.683 0 1.321.351 1.703.937l1.563 2.396c.23.351.352.765.352 1.19v3.611h.625c.142 0 .257.12.257.266zm-2.606-5.006l-1.25-1.838a.254.254 0 00-.21-.113h-1.95a.261.261 0 00-.256.266v1.838c0 .147.115.266.256.266h3.2c.208 0 .33-.243.21-.419z" id="Shape" fill="#FFF" fill-rule="nonzero"/></g></g></g></g></g></g></svg>