<?xml version="1.0" encoding="utf-8"?>
<svg width="64px" height="64px" viewBox="0 0 64 64" version="1.1" xmlns:xlink="http://www.w3.org/1999/xlink" xmlns="http://www.w3.org/2000/svg">
  <desc>Created with Lunacy</desc>
  <g id="icons/example1">
    <g id="3D-Aquatronic">
      <path d="M0 0L64 0L64 64L0 64L0 0Z" id="Rectangle" fill="#AF235F" stroke="none" />
      <path d="M11.194 8.84023C9.27759 4.71918 5.77296 1.55065 1.48023 0.0580038C0.891122 -0.138364 0.254372 0.180011 0.0580037 0.769115C-0.138364 1.35822 0.180011 1.99497 0.769114 2.19134C4.47692 3.48597 7.50346 6.22524 9.16022 9.786C9.44302 10.3083 10.0835 10.5202 10.622 10.2698C11.1605 10.0194 11.4111 9.39303 11.194 8.84023" transform="translate(36.06644 14.73311)" id="Path" fill="#FFFFFF" stroke="none" />
      <path d="M0.132124 3.04467C1.45883 5.90674 3.55998 8.34043 6.1979 10.0704C12.0095 13.8563 19.553 13.6697 25.1703 9.60112C27.9576 7.57325 30.055 4.73859 31.1792 1.48023C31.3756 0.891122 31.0572 0.254372 30.4681 0.0580038C29.879 -0.138364 29.2423 0.180011 29.0459 0.769115C28.0647 3.58735 26.2429 6.03698 23.8263 7.78778C18.9604 11.3093 12.429 11.4732 7.39257 8.20023C5.1047 6.69907 3.28203 4.58823 2.13035 2.106C1.87114 1.54636 1.20733 1.3028 0.647679 1.562C0.0880309 1.82121 -0.155526 2.48502 0.10368 3.04467" transform="translate(16.70699 34.57311)" id="Path" fill="#FFFFFF" stroke="none" />
      <path d="M8.91317 0.117575C4.75941 2.02508 1.56244 5.54304 0.0598338 9.8598C-0.0366888 10.1426 -0.0157849 10.4524 0.117867 10.7197C0.251519 10.987 0.48676 11.1895 0.770945 11.282C1.05384 11.3765 1.3627 11.3547 1.62948 11.2213C1.89626 11.0879 2.09905 10.8539 2.19317 10.5709C3.49851 6.83149 6.27193 3.78585 9.87317 2.13713C10.4348 1.87792 10.6799 1.21252 10.4207 0.650908C10.1615 0.0892963 9.49611 -0.155853 8.9345 0.103353" transform="translate(16.1535 15.27798)" id="Path" fill="#FFFFFF" stroke="none" />
      <path d="M1.79608 4.77258C2.7294 4.12276 3.7006 3.52912 4.70453 2.99481C5.13448 2.77614 5.5816 2.59301 6.04142 2.44725C6.44006 2.32228 6.85403 2.25289 7.27164 2.24103L7.27164 1.11747L7.27164 2.24103C8.10944 2.22914 8.94478 2.33446 9.75342 2.55392C10.2176 2.68873 10.6695 2.86238 11.1045 3.07303C11.7374 3.37169 12.3419 3.72014 13.0814 4.02592C13.47 4.18878 13.8722 4.31727 14.2832 4.40992C14.75 4.51448 15.227 4.56694 15.7054 4.56636L15.7054 4.56636C16.4428 4.55186 17.1691 4.3848 17.8387 4.07569C18.4869 3.7889 19.11 3.44876 19.7019 3.05881C20.0398 2.8454 20.2381 2.46794 20.2223 2.06861C20.2064 1.66928 19.9787 1.30876 19.6249 1.12283C19.2712 0.936913 18.8451 0.953844 18.5072 1.16725C18.007 1.49326 17.4815 1.77862 16.9356 2.02058C16.5432 2.19949 16.1215 2.30551 15.6912 2.33347L15.6912 2.33347C15.1412 2.3322 14.5962 2.2285 14.0841 2.02769C13.6894 1.87403 13.3046 1.69591 12.9321 1.49436C12.1991 1.10194 11.4357 0.769022 10.6494 0.498807C9.54762 0.153174 8.39782 -0.0148541 7.24319 0.00102933L7.24319 0.00102933C6.62289 0.0188885 6.00797 0.121774 5.41564 0.306807C4.54153 0.585636 3.70181 0.962556 2.91253 1.43036C2.10897 1.89258 1.33386 2.41169 0.572971 2.90947C0.205099 3.11628 -0.0158612 3.51179 0.000889266 3.93347C0.0176398 4.35515 0.269276 4.73189 0.652393 4.90886C1.03551 5.08584 1.48549 5.0332 1.81742 4.77258" transform="translate(38.82259 26.23897)" id="Path" fill="#FFFFFF" stroke="none" />
      <path d="M16.4731 1.63555C15.9883 1.84111 15.4862 2.00294 14.9727 2.11911C14.5064 2.23742 14.0304 2.31358 13.5504 2.34667L13.6287 3.44178L13.6287 2.32533L13.4082 2.32533C12.6574 2.33719 11.9092 2.23407 11.1895 2.01955C10.2936 1.71177 9.42732 1.32383 8.6011 0.860444C8.17213 0.634981 7.72777 0.440125 7.27132 0.277333C6.7688 0.0988808 6.24012 0.00516032 5.70688 0C5.11237 0.00141663 4.52187 0.0974321 3.95754 0.284444C3.25192 0.536411 2.58615 0.888452 1.98065 1.32978C1.4331 1.70667 0.963765 2.04089 0.558432 2.28978C0.212916 2.48921 4.32176e-05 2.85783 6.57977e-09 3.25677C-4.32045e-05 3.65571 0.21275 4.02437 0.558222 4.22388C0.903695 4.42339 1.32936 4.42343 1.67488 4.224C2.0461 4.00767 2.40461 3.77025 2.74865 3.51289C3.19721 3.17134 3.67286 2.86693 4.17088 2.60267C4.39852 2.49141 4.63675 2.40327 4.88199 2.33955C5.14209 2.27231 5.40978 2.23885 5.67843 2.24C5.86326 2.23988 6.04732 2.26379 6.22599 2.31111C6.62484 2.419 7.01103 2.56919 7.37799 2.75911C8.15957 3.18538 8.96438 3.56761 9.78865 3.904C10.9213 4.34832 12.1275 4.5751 13.3442 4.57244L13.6571 4.57244C14.2688 4.53142 14.8756 4.43624 15.4704 4.288C16.1026 4.13573 16.721 3.93118 17.3193 3.67644C17.7437 3.56908 18.0662 3.2236 18.1441 2.79284C18.222 2.36207 18.041 1.92551 17.6811 1.67628C17.3213 1.42704 16.8489 1.41112 16.4731 1.63555" transform="translate(41.1269 30.69156)" id="Path" fill="#FFFFFF" stroke="none" />
      <path d="M0 0L1.86311 0L1.86311 23.104L0 23.104L0 0Z" transform="translate(57.42933 16.42667)" id="Rectangle" fill="#AF235F" stroke="none" />
      <path d="M18.4601 0.202051C17.5244 0.851985 16.5508 1.44563 15.5446 1.97983C15.1165 2.20268 14.6691 2.38597 14.2077 2.52738C13.8089 2.65174 13.395 2.72112 12.9775 2.73361L12.9775 3.85716L12.9775 2.73361C12.1479 2.7326 11.3224 2.61775 10.5241 2.39227C10.06 2.25746 9.60801 2.08381 9.17301 1.87316C8.54723 1.5745 7.93567 1.22605 7.19612 0.920273C6.36433 0.565082 5.46946 0.38127 4.56501 0.379828L4.56501 0.379828C3.82775 0.395141 3.10154 0.562168 2.43167 0.870495C1.77134 1.15551 1.1362 1.49568 0.533008 1.88738C0.188763 2.10333 -0.0141262 2.48653 0.000766938 2.89263C0.0156601 3.29872 0.246073 3.66603 0.605211 3.85618C0.96435 4.04633 1.39765 4.03044 1.7419 3.81449C2.24368 3.49116 2.76901 3.20592 3.31345 2.96116C3.70458 2.77864 4.12695 2.67244 4.5579 2.64827L4.5579 2.64827C5.11023 2.64966 5.65754 2.75333 6.17212 2.95405C6.5681 3.11016 6.95507 3.28821 7.33123 3.48738C8.06174 3.8799 8.82273 4.21283 9.60678 4.48294C10.7095 4.82453 11.8587 4.99246 13.013 4.98072L13.013 4.98072C13.6309 4.96765 14.2438 4.86709 14.8335 4.68205C15.709 4.40378 16.549 4.02433 17.3366 3.55138C18.1401 3.09627 18.9152 2.57716 19.6761 2.07227C20.0279 1.85997 20.2346 1.47163 20.2143 1.06129C20.194 0.650954 19.9499 0.284918 19.579 0.108359C19.208 -0.0681998 18.77 -0.0267485 18.4388 0.216273" transform="translate(4.949658 29.60773)" id="Path" fill="#FFFFFF" stroke="none" />
      <path d="M1.53061 2.92294C2.01669 2.71915 2.51848 2.55506 3.03105 2.43227C3.49731 2.31378 3.97332 2.23761 4.45328 2.20472L4.3395 1.08827L4.37505 2.20472L4.60261 2.20472C5.33695 2.20291 6.06761 2.30832 6.7715 2.51761C7.6674 2.82539 8.53372 3.21333 9.35994 3.67672C9.80419 3.91408 10.2653 4.11848 10.7395 4.28827C11.242 4.46672 11.7707 4.56044 12.3039 4.56561C12.8984 4.56419 13.4889 4.46817 14.0533 4.28116C14.7598 4.02631 15.4276 3.6745 16.0373 3.23583C16.5848 2.85894 17.0471 2.52472 17.4595 2.27583C17.8281 2.08961 18.0638 1.71512 18.0723 1.30223C18.0808 0.889343 17.8606 0.505503 17.4999 0.304321C17.1393 0.103139 16.697 0.117481 16.3502 0.341608C15.9756 0.556268 15.6147 0.793753 15.2693 1.05272C14.8208 1.39445 14.3452 1.69887 13.8471 1.96294C13.619 2.07499 13.3809 2.16546 13.1359 2.23316C12.8749 2.2944 12.6076 2.32541 12.3395 2.32561C12.1552 2.32456 11.9715 2.30309 11.7919 2.26161C11.396 2.14874 11.0124 1.99626 10.6471 1.8065C9.98572 1.4865 9.22483 1.0385 8.22927 0.661608C7.09737 0.215534 5.89032 -0.00897765 4.67372 0.000274753L4.3395 0.000274753C3.72823 0.0447701 3.1217 0.139911 2.52616 0.284719C1.89492 0.440241 1.27675 0.644712 0.677275 0.896274C0.310165 1.05379 0.0549743 1.39519 0.0078307 1.79187C-0.0393129 2.18856 0.128753 2.58026 0.44872 2.81943C0.768686 3.0586 1.19194 3.1089 1.55905 2.95138" transform="translate(4.904947 25.57839)" id="Path" fill="#FFFFFF" stroke="none" />
      <path d="M0 0L2.03378 0L2.03378 23.104L0 23.104L0 0Z" transform="translate(4.707556 16.42667)" id="Rectangle" fill="#AF235F" stroke="none" />
      <path d="M4.64355 16.3709C4.00671 15.4252 3.42729 14.4421 2.90844 13.4269C2.69832 12.9941 2.52468 12.5446 2.38933 12.0829C2.27351 11.6802 2.209 11.2644 2.19733 10.8456L1.08089 10.8456L2.19733 10.8456C2.20286 10.0078 2.32492 9.17497 2.56 8.37089C2.70614 7.90996 2.8868 7.46069 3.10044 7.02689C3.40622 6.40111 3.76889 5.80378 4.08889 5.07134C4.45519 4.24364 4.65571 3.35217 4.67911 2.44734L4.67911 2.44734C4.67591 1.87561 4.57738 1.30842 4.38755 0.769115C4.19119 0.180011 3.55444 -0.138364 2.96533 0.0580038C2.37623 0.254372 2.05785 0.891122 2.25422 1.48023C2.362 1.77923 2.41966 2.09399 2.42489 2.41178L2.42489 2.41178C2.41711 2.9609 2.30615 3.50367 2.09778 4.01178C1.93652 4.40672 1.75128 4.79143 1.54311 5.16378C1.1537 5.89389 0.825462 6.65501 0.561778 7.43934C0.191567 8.53445 0.00183371 9.68245 0 10.8384L0 10.8384C0.0102229 11.4568 0.101063 12.0712 0.270222 12.666C0.534748 13.5487 0.899808 14.3982 1.35822 15.1976C1.79911 16.0011 2.304 16.7904 2.78044 17.5584C2.99639 17.8951 3.37552 18.0909 3.77502 18.0722C4.17452 18.0535 4.53369 17.8231 4.71724 17.4678C4.90079 17.1124 4.88083 16.6862 4.66489 16.3496" transform="translate(27.88267 5.268219)" id="Path" fill="#FFFFFF" stroke="none" />
      <path d="M2.36927 1.31643C2.4221 1.61498 2.45536 1.91666 2.46882 2.21954L3.58527 2.21954L2.46882 2.21954L2.46882 2.43999C2.45437 3.16457 2.33459 3.88321 2.11327 4.57332C1.78795 5.46228 1.38584 6.32123 0.911491 7.14043C0.675212 7.56559 0.470799 8.00769 0.299937 8.4631C0.116358 8.96251 0.0154779 9.48853 0.00127026 10.0204C-0.0117061 10.6161 0.0748156 11.2097 0.25727 11.7769C0.493418 12.5011 0.830995 13.1882 1.25994 13.8178C1.62971 14.3653 1.97105 14.8347 2.1986 15.24C2.50823 15.7522 3.16675 15.9292 3.69142 15.6411C4.21609 15.353 4.42021 14.7024 4.15415 14.1662C3.93371 13.768 3.69193 13.4124 3.44304 13.0782C3.10642 12.6306 2.80902 12.1547 2.55416 11.656C2.4438 11.4287 2.35798 11.1903 2.29816 10.9449C2.23927 10.6811 2.21064 10.4115 2.21282 10.1413C2.2184 9.95879 2.24465 9.77749 2.29104 9.60087C2.40605 9.20245 2.56589 8.81837 2.76749 8.45599C3.10171 7.80176 3.56393 7.03376 3.95504 6.06665C4.4138 4.9368 4.65506 3.73048 4.66615 2.5111L4.66615 2.1911C4.65081 1.78772 4.60565 1.38603 4.53104 0.989319C4.48393 0.578285 4.21337 0.227007 3.82799 0.0765062C3.44261 -0.0739942 3.0056 0.000962396 2.6924 0.271284C2.37919 0.541607 2.24116 0.962967 2.33371 1.36621" transform="translate(32.32584 5.382236)" id="Path" fill="#FFFFFF" stroke="none" />
      <path d="M0 0L11.1787 0L11.1787 1.86311L0 1.86311L0 0Z" transform="translate(27.61245 5.248)" id="Rectangle" fill="#AF235F" stroke="none" />
      <path d="M0.199111 4.38054C0.585329 4.57477 1.01125 4.677 1.44356 4.67921C2.09067 4.67921 2.48178 4.34499 2.48178 3.79032C2.48178 3.23566 2.05511 2.93699 1.152 2.93699L0.718222 2.93699L0.718222 2.22588L1.05956 2.22588C1.96978 2.22588 2.432 1.94855 2.432 1.4081C2.432 0.974324 2.09778 0.696991 1.536 0.696991C1.12178 0.70963 0.714808 0.80895 0.341333 0.988547L0.163556 0.277436C0.636611 0.0905944 1.14118 -0.0035587 1.64978 0.000102831C2.73778 0.000102831 3.35645 0.490769 3.35645 1.35832C3.3974 1.9925 2.92307 2.54273 2.28978 2.59566C2.60454 2.60052 2.90321 2.73556 3.11477 2.96867C3.32632 3.20179 3.43184 3.51213 3.40622 3.82588C3.42163 4.28493 3.22493 4.72553 2.87289 5.02054C2.47387 5.3046 1.98926 5.4427 1.50045 5.41165C0.988081 5.42061 0.478747 5.3313 0 5.14854L0.199111 4.39477" transform="translate(8.739555 52.45145)" id="Path" fill="#FFFFFF" stroke="none" />
      <path d="M1.32267 0.0178291L0 0.0178291L0 5.28716L1.24444 5.28716C1.92395 5.35724 2.60865 5.21831 3.20711 4.88894C3.88834 4.36079 4.253 3.52154 4.17422 2.66316C4.24762 1.86223 3.94246 1.07303 3.34933 0.529829C2.75724 0.121199 2.0378 -0.0605545 1.32267 0.0178291ZM2.56711 4.21338C2.17836 4.44135 1.72941 4.54553 1.28 4.51205L0.917333 4.51205L0.917333 0.757385L1.24444 0.757385C1.71104 0.691326 2.1861 0.789354 2.58844 1.03472C3.03531 1.4416 3.26894 2.03224 3.22133 2.63472C3.27289 3.23601 3.02887 3.82482 2.56711 4.21338Z" transform="translate(13.39733 52.51906)" id="Shape" fill="#FFFFFF" fill-rule="evenodd" stroke="none" />
      <path d="M0 0L1.74933 0L1.74933 0.696888L0 0.696888L0 0Z" transform="translate(18.24711 55.28889)" id="Rectangle" fill="#FFFFFF" stroke="none" />
      <path d="M1.2106 4.05329C1.66728 4.0722 2.10747 3.88093 2.40526 3.53418L2.43371 3.51284L2.43371 3.94662L3.32971 3.94662C3.29415 3.75462 3.29415 3.2924 3.29415 2.96529L3.29415 1.81329C3.29415 1.08084 3.23015 0.782178 3.00971 0.511956C2.66567 0.146673 2.17244 -0.0396008 1.67282 0.0070674C1.17772 0.0006133 0.688843 0.117943 0.250598 0.348401L0.485265 0.981289C0.797853 0.780018 1.15904 0.666995 1.5306 0.654178C1.76973 0.627977 2.00763 0.713269 2.17564 0.885446C2.34365 1.05762 2.42309 1.29753 2.39104 1.53596L2.39104 1.60707L1.75815 1.60707C1.36844 1.58166 0.978303 1.64994 0.620376 1.80618C0.222931 2.01698 -0.017817 2.4376 0.00170954 2.88707C-0.0161783 3.20912 0.106994 3.52302 0.339134 3.74697C0.571274 3.97091 0.88939 4.08273 1.2106 4.05329ZM1.9786 2.16173L2.38393 2.16173L2.38393 2.91551C2.20517 3.23453 1.87455 3.43881 1.50926 3.45596C1.34984 3.46849 1.19276 3.41161 1.07832 3.2999C0.963888 3.18819 0.903238 3.03253 0.911931 2.87284C0.911931 2.38218 1.26749 2.16173 1.9786 2.16173Z" transform="translate(20.62051 53.80271)" id="Shape" fill="#FFFFFF" fill-rule="evenodd" stroke="none" />
      <path d="M3.57874 1.67138C3.57874 0.889157 3.61429 0.562046 3.61429 0.121157L3.61429 0.0784901L2.7254 0.0784901L2.7254 0.611823C2.46394 0.221475 2.0218 -0.00897487 1.55207 0.00026788C0.613403 0.00026788 0.0018476 0.789601 0.0018476 2.0056C-0.0170189 2.50474 0.108934 2.99867 0.364514 3.42782C0.620639 3.83671 1.07721 4.07587 1.55918 4.0536C2.01018 4.06943 2.43751 3.85174 2.68985 3.4776L2.68985 5.61093L3.57874 5.61093L3.57874 1.67138ZM1.78674 0.71849C2.18137 0.752788 2.52671 0.997523 2.68985 1.35849L2.68985 2.73093C2.39829 3.18604 2.12096 3.38516 1.7654 3.38516C1.24629 3.38516 0.919181 2.85182 0.919181 2.04116C0.919181 1.23049 1.2534 0.71849 1.78674 0.71849Z" transform="translate(24.83015 53.78818)" id="Shape" fill="#FFFFFF" fill-rule="evenodd" stroke="none" />
      <path d="M3.36464 2.51022C3.36464 3.03645 3.36464 3.34933 3.36464 3.86133L2.56108 3.86133L2.56108 3.29245C2.23958 3.70813 1.74258 3.95006 1.21708 3.94667C0.79342 3.98432 0.38706 3.77 0.178862 3.39911C0.0354928 3.06039 -0.0230892 2.69181 0.00819494 2.32533L0.00819494 0L0.897083 0L0.897083 2.26845C0.876113 2.48727 0.902799 2.70803 0.975306 2.91556C1.05685 3.13161 1.27131 3.26782 1.50153 3.24978C1.91661 3.20243 2.2853 2.96278 2.49708 2.60267L2.49708 0L3.38597 0L3.38597 2.51022" transform="translate(29.56692 53.90933)" id="Path" fill="#FFFFFF" stroke="none" />
      <path d="M1.24637 4.03256C1.70305 4.05147 2.14325 3.86019 2.44104 3.51345L2.49082 3.51345L2.49082 3.94722L3.35126 3.94722L3.35126 1.81389C3.35126 1.08145 3.28726 0.782779 3.06682 0.512557C2.72401 0.145428 2.22984 -0.0412002 1.72993 0.00766813C1.23472 0.000303658 0.745631 0.117686 0.307709 0.349001L0.542375 1.01745C0.851987 0.81544 1.21111 0.702292 1.5806 0.690335C1.81973 0.664134 2.05762 0.749426 2.22564 0.921603C2.39365 1.09378 2.47309 1.33369 2.44104 1.57211L2.44104 1.64322L1.75837 1.58633C1.36866 1.56093 0.978525 1.6292 0.620597 1.78545C0.223152 1.99625 -0.017595 2.41687 0.0019315 2.86633C-0.0174909 3.19528 0.110331 3.51584 0.350771 3.74116C0.591211 3.96649 0.919379 4.07326 1.24637 4.03256ZM2.03571 2.16233L2.44104 2.16233L2.44104 2.88767C2.27173 3.21965 1.93849 3.43639 1.56637 3.45656C1.40695 3.46909 1.24987 3.41221 1.13543 3.3005C1.021 3.18879 0.960348 3.03313 0.969041 2.87345C0.969041 2.38278 1.3246 2.16233 2.03571 2.16233Z" transform="translate(33.82563 53.82344)" id="Shape" fill="#FFFFFF" fill-rule="evenodd" stroke="none" />
      <path d="M0 1.67822L0 0.967111L0.618666 0.967111L0.618666 0.163556L1.50044 0L1.50044 1.00267L2.38222 1.00267L2.38222 1.71378L1.50044 1.71378L1.50044 3.50578C1.50044 4.07467 1.63555 4.27378 2.01955 4.27378C2.16414 4.27097 2.30673 4.23955 2.43911 4.18133L2.51733 4.89245C2.26331 4.97928 1.99644 5.02256 1.728 5.02045C1.37357 5.05762 1.02554 4.90654 0.810666 4.62222C0.645265 4.30536 0.5784 3.94627 0.618666 3.59111L0.618666 1.67822L0 1.67822" transform="translate(37.97334 52.90667)" id="Path" fill="#FFFFFF" stroke="none" />
      <path d="M0.0355555 1.49354C0.0355555 1.2162 0.0355555 0.732648 0 0.0713158L0.83911 0.0713158L0.83911 0.782426C0.973873 0.329645 1.3838 0.0143187 1.856 0.00020474C1.97123 -0.00191625 2.08617 0.0124514 2.19733 0.0428714L2.16889 0.803759C2.06717 0.794494 1.96482 0.794494 1.86311 0.803759C1.42933 0.803759 1.08089 1.11665 0.910221 1.68554L0.910221 3.92553L0.0355555 3.92553L0.0355555 1.49354" transform="translate(41.20889 53.87357)" id="Path" fill="#FFFFFF" stroke="none" />
      <path d="M1.81222 3.78408C2.83978 3.82721 3.71352 3.04144 3.77925 2.01508C3.84081 1.48622 3.66591 0.957135 3.30125 0.569176C2.9366 0.181217 2.41935 -0.0260911 1.88769 0.00263458C0.859234 0.00473723 0.020906 0.828184 0.000383885 1.85644C-0.0201382 2.8847 0.784667 3.74094 1.81222 3.78408ZM1.90903 3.36619C1.29747 3.36619 0.934806 2.8613 0.934806 2.01508L0.913473 2.00086C0.913473 1.18308 1.30458 0.685301 1.90903 0.685301C2.51347 0.685301 2.88325 1.1973 2.88325 2.0293C2.88325 2.8613 2.52058 3.36619 1.90903 3.36619Z" transform="translate(43.79408 53.82848)" id="Shape" fill="#FFFFFF" fill-rule="evenodd" stroke="none" />
      <path d="M0.0426666 1.44076C0.0426666 0.921645 0.0426666 0.729645 0 0.0825339L0.846221 0.0825339L0.846221 0.651423C1.17724 0.236778 1.68102 -0.00199215 2.21155 0.00431173C2.63717 -0.0332545 3.04654 0.176959 3.264 0.544756C3.41813 0.888126 3.48413 1.26454 3.456 1.63987L3.456 3.9652L2.56711 3.9652L2.56711 1.63987C2.58306 1.4188 2.55651 1.19672 2.48889 0.985645C2.39937 0.766247 2.17738 0.630747 1.94133 0.651423C1.51826 0.697189 1.14147 0.9396 0.924443 1.30564L0.924443 3.91542L0.0426666 3.91542L0.0426666 1.44076" transform="translate(48.50489 53.8268)" id="Path" fill="#FFFFFF" stroke="none" />
      <path d="M0.666666 1.09511C1.03486 1.09511 1.33333 0.849962 1.33333 0.547555C1.33333 0.245149 1.03486 0 0.666666 0C0.298477 0 0 0.245149 0 0.547555C0 0.849962 0.298477 1.09511 0.666666 1.09511ZM1.18615 1.792L0.12987 1.792L0.12987 5.65333L1.18615 5.65333L1.18615 1.792Z" transform="translate(53.07022 52.11734)" id="Shape" fill="#FFFFFF" fill-rule="evenodd" stroke="none" />
      <path d="M3.17606 3.69138C2.8031 3.92265 2.37026 4.0389 1.93161 4.0256C1.39723 4.06506 0.873075 3.86427 0.50182 3.47789C0.130565 3.09151 -0.049143 2.55976 0.0116139 2.02738C0.0116139 0.754488 0.722725 0.000709712 1.84628 0.000709712C2.27914 -0.00951242 2.70745 0.0908354 3.09073 0.292265L2.82762 0.953599C2.56417 0.771204 2.25203 0.672111 1.93161 0.669154C1.29161 0.669154 0.928948 1.15271 0.928948 2.01315C0.928948 2.8736 1.32006 3.34293 2.00984 3.34293C2.32727 3.3492 2.63768 3.24907 2.89162 3.05849L3.17606 3.69849" transform="translate(54.99995 53.83041)" id="Path" fill="#FFFFFF" stroke="none" />
    </g>
  </g>
</svg>