<svg xmlns="http://www.w3.org/2000/svg" width="137" height="48" viewBox="0 0 137 48">
  <path fill="#00B2B2" d="M88.3357377,42.0511475 C89.0139908,42.0257256 89.6703706,42.2934703 90.1373302,42.7860373 C90.6042898,43.2786043 90.8366439,43.9483306 90.775082,44.6242623 C90.826677,45.5359781 90.3696017,46.4014086 89.587513,46.8728161 C88.8054243,47.3442236 87.8267068,47.3442236 87.0446181,46.8728161 C86.2625294,46.4014086 85.8054541,45.5359781 85.8570492,44.6242623 C85.7943058,43.9411892 86.0317797,43.2646043 86.5076694,42.7705854 C86.9835591,42.2765666 87.650797,42.0139745 88.3357377,42.0511475 Z M82.6229508,40.3436066 L82.6229508,47.0636066 L81.6157377,47.0636066 L81.6157377,46.4262295 C81.2846808,46.9677795 80.6738414,47.2731993 80.0419672,47.2131148 C78.6885246,47.2131148 77.8465574,46.1901639 77.8465574,44.6163934 C77.8465574,43.042623 78.7042623,42.0590164 80.0577049,42.0590164 C80.6853994,42.02035 81.2857918,42.3205462 81.6314754,42.8459016 L81.6314754,40.3436066 L82.6229508,40.3436066 Z M76.9337705,42.1927869 L76.8944262,47.0636066 L75.8872131,47.0636066 L75.8872131,46.3396721 C75.5465594,46.8788261 74.9511704,47.2033131 74.3134426,47.197377 C73.844794,47.2270061 73.3873971,47.0458102 73.0661785,46.7032785 C72.7449599,46.3607468 72.593481,45.8926676 72.6531148,45.4268852 L72.6531148,42.2006557 L73.7311475,42.2006557 L73.7311475,44.9862295 C73.7311475,45.6944262 73.7311475,46.3003279 74.6832787,46.3003279 C75.6354098,46.3003279 75.8557377,45.5842623 75.8557377,44.7816393 L75.8557377,42.1927869 L76.9337705,42.1927869 Z M48.3855738,42.0039344 C49.5029508,42.0039344 50.4236066,42.4603279 50.4236066,43.5777049 L49.3927869,43.6091803 C49.3140984,43.0111475 48.9127869,42.8222951 48.3383607,42.8222951 C47.7639344,42.8222951 47.4727869,43.0268852 47.4727869,43.3888525 C47.4727869,43.8767213 47.9370492,43.9160656 48.7160656,44.0970492 C49.495082,44.2780328 50.6045902,44.5140984 50.6045902,45.5842623 C50.6045902,46.6544262 49.8177049,47.1580328 48.48,47.1580328 C47.1422951,47.1580328 46.347541,46.5757377 46.292459,45.4583607 L47.3232787,45.4583607 C47.3783607,46.1036066 47.8347541,46.3711475 48.5036066,46.3711475 C49.172459,46.3711475 49.5501639,46.0957377 49.5501639,45.6629508 C49.5501639,45.2301639 48.9993443,45.0885246 48.3855738,44.9390164 C47.2681967,44.6636066 46.3947541,44.5219672 46.3947541,43.4754098 C46.3947541,42.5468852 47.1422951,42.0039344 48.3855738,42.0039344 Z M66.3737705,42.0039344 C67.4911475,42.0039344 68.4118033,42.4603279 68.4118033,43.5777049 L67.412459,43.6091803 C67.3337705,43.0111475 66.932459,42.8222951 66.3580328,42.8222951 C65.7836066,42.8222951 65.492459,43.0268852 65.492459,43.3888525 C65.492459,43.8767213 65.9567213,43.9160656 66.7357377,44.0970492 C67.5147541,44.2780328 68.6242623,44.5140984 68.6242623,45.5842623 C68.6242623,46.6544262 67.837377,47.1580328 66.4996721,47.1580328 C65.1619672,47.1580328 64.3672131,46.5757377 64.3121311,45.4583607 L65.3114754,45.4583607 C65.3665574,46.1036066 65.8229508,46.3711475 66.4918033,46.3711475 C67.1606557,46.3711475 67.5383607,46.0957377 67.5383607,45.6629508 C67.5383607,45.2301639 66.987541,45.0885246 66.3737705,44.9390164 C65.2563934,44.6636066 64.3829508,44.5219672 64.3829508,43.4754098 C64.3829508,42.5468852 65.1304918,42.0039344 66.3737705,42.0039344 Z M60.3725596,42.5205551 C60.6740167,42.8220122 60.830765,43.2388675 60.802623,43.6642623 L60.802623,47.1186885 L59.7481967,47.1186885 L59.7481967,44.0655738 C59.7481967,43.467541 59.6222951,42.9639344 58.882623,42.9639344 C58.1429508,42.9639344 57.8203279,43.4360656 57.8203279,44.1993443 L57.8203279,47.0557377 L56.7344262,47.0557377 L56.7344262,44.0104918 C56.7344262,43.4281967 56.6478689,42.9639344 55.947541,42.9639344 C55.2472131,42.9639344 54.8301639,43.4990164 54.8301639,44.2544262 L54.8301639,47.0557377 L53.7442623,47.0557377 L53.7442623,42.1927869 L54.7672131,42.1927869 L54.7672131,42.877377 C55.1072947,42.3704722 55.6835932,42.073411 56.2937705,42.0904918 C56.878267,42.0526839 57.4233474,42.3866638 57.655082,42.9245902 C58.000309,42.393304 58.5953791,42.0779169 59.2288525,42.0904918 C59.6542473,42.0623497 60.0711026,42.219098 60.3725596,42.5205551 Z M70.882623,40.7291803 L70.882623,42.1927869 L71.8662295,42.1927869 L71.8583607,42.9718033 L70.8747541,42.9718033 L70.8747541,45.5370492 C70.8747541,46.0013115 70.8747541,46.237377 71.4334426,46.237377 C71.5749273,46.2467375 71.716876,46.2467375 71.8583607,46.237377 L71.8583607,47.0872131 C71.6173636,47.1046344 71.3754233,47.1046344 71.1344262,47.0872131 C69.7746885,47.0872131 69.8000703,46.434539 69.8042764,45.4076651 L69.8045902,42.9167213 L69.0177049,42.9167213 L69.0177049,42.1298361 L69.8045902,42.1298361 L69.8045902,40.7291803 L70.882623,40.7291803 Z M84.9127869,42.1927869 L84.9127869,47.0636066 L83.8347541,47.0636066 L83.8347541,42.1927869 L84.9127869,42.1927869 Z M52.5639344,42.1927869 L52.5639344,47.0636066 L51.4859016,47.0636066 L51.4859016,42.1927869 L52.5639344,42.1927869 Z M135.517377,42.0590164 L135.517377,46.827541 L92.907541,46.827541 L92.907541,42.0590164 L135.517377,42.0590164 Z M44.1836066,42.0590164 L44.1836066,46.827541 L1.57377049,46.827541 L1.57377049,42.0590164 L44.1836066,42.0590164 Z M88.3357377,42.9009836 C87.4859016,42.9009836 86.9429508,43.5619672 86.9429508,44.6242623 C86.9429508,45.7180328 87.4622951,46.3711475 88.3278689,46.3711475 C89.1934426,46.3711475 89.704918,45.7101639 89.704918,44.6163934 C89.704918,43.522623 89.1855738,42.9009836 88.3357377,42.9009836 Z M80.215082,42.9245902 C79.3495082,42.9245902 78.932459,43.5619672 78.932459,44.6006557 L78.8931148,44.6006557 C78.8931148,45.6629508 79.412459,46.3239344 80.2544262,46.3239344 C81.0963934,46.3239344 81.5921311,45.6944262 81.5921311,44.6163934 C81.5921311,43.5383607 81.0806557,42.9245902 80.215082,42.9245902 Z M84.9127869,40.3121311 L84.9127869,41.3744262 L83.8347541,41.3744262 L83.8347541,40.3121311 L84.9127869,40.3121311 Z M52.5639344,40.3121311 L52.5639344,41.3744262 L51.4859016,41.3744262 L51.4859016,40.3121311 L52.5639344,40.3121311 Z M19.1763934,14.3921311 C22.9455738,14.3921311 25.9278689,16.0839344 26.0852459,20.2072131 L23.0006557,20.215082 C22.8196721,17.9016393 21.2459016,16.9731148 18.9718033,16.9731148 C16.6977049,16.9731148 15.4386885,17.9331148 15.4386885,19.5462295 C15.4386885,21.3088525 16.5796721,21.4190164 20.16,22.347541 C23.307541,23.1344262 26.8327869,23.9213115 26.8327869,27.8557377 C26.8327869,32.0340984 23.1186885,33.6472131 19.4832787,33.6472131 C15.092459,33.6472131 11.6931148,31.5698361 11.6931148,27.1003279 L14.8721311,27.1003279 C14.8721311,29.9567213 17.0281967,31.0347541 19.6485246,31.0347541 C22.1429508,31.0347541 23.5829508,29.9409836 23.5829508,28.1232787 C23.5829508,26.3055738 22.0327869,25.9672131 19.3101639,25.227541 C15.3757377,24.212459 12.3462295,23.5672131 12.3462295,19.7980328 C12.3462295,16.5009836 15.0216393,14.3921311 19.1763934,14.3921311 Z M117.749508,14.3213115 C121.518689,14.3213115 124.500984,16.0131148 124.658361,20.1363934 L121.597377,20.215082 C121.392787,17.9016393 119.858361,16.9652459 117.568525,16.9652459 C115.278689,16.9652459 114.03541,17.9252459 114.03541,19.5383607 C114.03541,21.3009836 115.176393,21.4111475 118.756721,22.3396721 C121.904262,23.1265574 125.429508,23.9134426 125.429508,27.8478689 C125.429508,32.0262295 121.71541,33.6393443 118.08,33.6393443 C113.68918,33.6393443 110.289836,31.5619672 110.289836,27.092459 L113.48459,27.092459 C113.48459,29.9488525 115.640656,31.0268852 118.260984,31.0268852 C120.75541,31.0268852 122.19541,29.9331148 122.19541,28.1154098 C122.19541,26.2977049 120.621639,25.8570492 117.883279,25.1567213 C113.948852,24.1416393 110.919344,23.4963934 110.919344,19.7272131 C110.919344,16.4301639 113.594754,14.3213115 117.749508,14.3213115 Z M32.9232787,14.7619672 L32.9154098,33.2537705 L29.6498361,33.2537705 L29.6498361,14.7619672 L32.9232787,14.7619672 Z M96,14.7619672 L104.521967,28.3986885 L104.521967,14.7619672 L107.669508,14.7619672 L107.630164,33.2537705 L104.278033,33.2537705 L95.6537705,19.6721311 L95.6537705,33.2537705 L92.5927869,33.2537705 L92.5927869,14.7619672 L96,14.7619672 Z M50.132459,14.7619672 L50.132459,17.492459 L40.0367213,17.492459 L40.0367213,22.402623 L49.4085246,22.402623 L49.4085246,25.0229508 L40.0367213,25.0229508 L40.0367213,30.4760656 L50.2662295,30.4760656 L50.2662295,33.2537705 L36.8104918,33.2537705 L36.8104918,14.7619672 L50.132459,14.7619672 Z M89.5790164,14.7619672 L89.5790164,17.492459 L79.4754098,17.492459 L79.4754098,22.402623 L88.8472131,22.402623 L88.8472131,25.0229508 L79.4754098,25.0229508 L79.4754098,30.4760656 L89.704918,30.4760656 L89.704918,33.2537705 L76.2570492,33.2537705 L76.2570492,14.7619672 L89.5790164,14.7619672 Z M57.7495082,14.7619672 L62.9193443,29.224918 L67.9081967,14.7619672 L72.3934426,14.7619672 L72.3934426,33.2537705 L69.3245902,33.2537705 L69.3245902,18.9954098 L64.1862295,33.2537705 L61.5344262,33.2537705 L56.2622951,18.9954098 L56.2622951,33.2537705 L53.2013115,33.2537705 L53.2013115,14.7619672 L57.7495082,14.7619672 Z M13.4714754,1.62098361 L13.4714754,6.10622951 L15.4386885,6.10622951 L15.4386885,1.62098361 L16.0681967,1.62098361 L16.0681967,6.0904918 L16.5245902,6.0904918 L16.4616393,7.86885246 L15.895082,7.86885246 L15.895082,6.64131148 L12.8340984,6.64131148 L12.8340984,1.62098361 L13.4714754,1.62098361 Z M3.14754098,1.66032787 C3.33014537,1.72967376 3.49437158,1.84005531 3.62754098,1.98295082 C3.76461997,2.13599363 3.86904332,2.31538759 3.93442623,2.51016393 C4.0120135,2.74390872 4.05444389,2.98788344 4.06032787,3.23409836 L3.41508197,3.23409836 C3.4055905,3.06144887 3.37923554,2.89014158 3.33639344,2.72262295 C3.29967197,2.58999978 3.23531249,2.46664411 3.14754098,2.36065574 C3.07534526,2.26940705 2.9803416,2.1988329 2.87213115,2.15606557 C2.74675243,2.10739766 2.61316828,2.08335251 2.47868852,2.0852459 C2.31183127,2.07960434 2.14638729,2.11757509 1.99868852,2.19540984 C1.86425107,2.27146453 1.75071501,2.37959412 1.66819672,2.51016393 C1.57328642,2.66220573 1.50664119,2.8301517 1.47147541,3.00590164 C1.42710678,3.21805702 1.40599848,3.43441706 1.40852459,3.65114754 L1.40852459,4.59540984 C1.40804556,4.80125533 1.42648374,5.00670936 1.46360656,5.20918033 C1.49383931,5.38527011 1.55229596,5.55532581 1.63672131,5.71278689 C1.71116594,5.85049953 1.81949664,5.96695503 1.95147541,6.05114754 C2.09331658,6.13800369 2.2573512,6.18174626 2.42360656,6.17704918 C2.57300285,6.18127676 2.72202558,6.1599878 2.8642623,6.11409836 C2.9753316,6.07254785 3.07317713,6.00188164 3.14754098,5.9095082 C3.2287311,5.80741561 3.28769573,5.68948633 3.32065574,5.56327869 C3.365355,5.39585044 3.39433308,5.22461632 3.40721311,5.05180328 L4.05245902,5.05180328 C4.04629365,5.28706629 4.00654782,5.52024182 3.93442623,5.7442623 C3.86802157,5.94905621 3.75794527,6.13699135 3.61180328,6.29508197 C3.48057847,6.42916146 3.32231796,6.53377433 3.14754098,6.60196721 C2.92796502,6.68010298 2.69595433,6.71743803 2.46295082,6.71213115 C2.22641811,6.71437656 1.99242175,6.66327391 1.77836066,6.56262295 C1.56580194,6.46676964 1.37953771,6.32099763 1.23540984,6.13770492 C1.08836504,5.94939978 0.976416177,5.73616386 0.904918033,5.50819672 C0.819793901,5.2116223 0.779999899,4.90388203 0.786885246,4.59540984 L0.786885246,3.66688525 C0.784107298,3.37158188 0.823859346,3.07741672 0.904918033,2.79344262 C0.970857354,2.55124215 1.08308847,2.32410775 1.23540984,2.12459016 C1.37837527,1.94334256 1.56157041,1.79786408 1.7704918,1.69967213 C1.99929596,1.6039047 2.24672396,1.56087375 2.49442623,1.57377049 C2.71563636,1.56131852 2.93721105,1.59068384 3.14754098,1.66032787 Z M48.1495082,1.57377049 C48.3897039,1.56928411 48.6282042,1.61484033 48.8498361,1.70754098 C49.0588266,1.79837652 49.2424984,1.93883146 49.384918,2.11672131 C49.5412617,2.3148249 49.6563145,2.54225468 49.7232787,2.78557377 C49.8065867,3.09057648 49.8463247,3.40583157 49.8413115,3.72196721 L49.8413115,4.57180328 C49.8464306,4.88794472 49.8066907,5.20321468 49.7232787,5.50819672 C49.656515,5.75159318 49.5414429,5.97906128 49.384918,6.17704918 C49.2446859,6.35196507 49.0636476,6.48977034 48.8577049,6.57836066 C48.6359413,6.67062292 48.3975337,6.71616145 48.157377,6.71213115 C47.9197635,6.71621364 47.683914,6.6706518 47.464918,6.57836066 C47.2572305,6.48896065 47.0738126,6.3513972 46.9298361,6.17704918 C46.7705072,5.97972479 46.6527362,5.75221248 46.5836066,5.50819672 C46.4850248,5.20559137 46.4319859,4.89000953 46.4262295,4.57180328 L46.4262295,3.69836066 C46.4219023,3.38173543 46.4643265,3.06620496 46.5521311,2.76196721 C46.6230151,2.51864958 46.7406147,2.29146857 46.8983607,2.09311475 C47.0407802,1.9152249 47.2244521,1.77476997 47.4334426,1.68393443 C47.6613759,1.59593689 47.9056651,1.55835394 48.1495082,1.57377049 Z M79.6642623,1.62098361 L80.9783607,5.72065574 L82.292459,1.62098361 L83.0793443,1.62098361 L83.0793443,6.64131148 L82.4498361,6.64131148 L82.4498361,4.72131148 L82.5127869,2.76196721 L81.1986885,6.69639344 L80.7186885,6.69639344 L79.412459,2.76196721 L79.4754098,4.72131148 L79.4754098,6.64131148 L78.8459016,6.64131148 L78.8459016,1.62098361 L79.6642623,1.62098361 Z M119.362623,1.61311475 L118.032787,4.10754098 L119.370492,6.64131148 L118.583607,6.64131148 L117.678689,4.72131148 L116.71082,6.68065574 L115.923934,6.68065574 L117.269508,4.14688525 L115.986885,1.62098361 L116.726557,1.62098361 L117.678689,3.54098361 L118.622951,1.61311475 L119.362623,1.61311475 Z M35.8583607,1.55016393 C36.0692674,1.54851148 36.279097,1.58038433 36.48,1.64459016 C36.6555421,1.70094582 36.8166687,1.79493635 36.9521311,1.92 C37.0840084,2.04533516 37.1861756,2.19858589 37.2511475,2.36852459 C37.3266749,2.56421708 37.3640683,2.77255157 37.3613115,2.98229508 C37.3644246,3.20785655 37.3015155,3.42940596 37.1803279,3.61967213 C37.0554725,3.81142532 36.8815932,3.96628659 36.6767213,4.06819672 C36.9046252,4.15273116 37.1001066,4.30691366 37.2354098,4.50885246 C37.3724857,4.73061774 37.4409287,4.9879632 37.4321311,5.24852459 C37.4363528,5.46423297 37.3961766,5.67850563 37.3140984,5.87803279 C37.234499,6.03875029 37.1218819,6.18086243 36.9836066,6.29508197 C36.8388018,6.42147745 36.6702797,6.5177758 36.4878689,6.57836066 C36.2846811,6.64435819 36.0719697,6.67626491 35.8583607,6.67278689 C35.6740251,6.67175356 35.4909292,6.64256437 35.3154098,6.58622951 C35.1399317,6.53198128 34.9768364,6.44374942 34.8354098,6.32655738 C34.6880288,6.20156131 34.5698444,6.04577284 34.4891803,5.87016393 C34.3973525,5.66209044 34.3517147,5.43658584 34.3554098,5.20918033 L34.984918,5.20918033 C34.9840571,5.33263221 35.0053793,5.45523489 35.0478689,5.57114754 C35.085652,5.68109596 35.1444473,5.78265152 35.2209836,5.87016393 C35.2985251,5.95370339 35.392221,6.02062908 35.4963934,6.06688525 C35.6080631,6.11535294 35.7287707,6.13949447 35.8504918,6.13770492 C35.9849394,6.13921035 36.1184506,6.11517834 36.2439344,6.06688525 C36.3532587,6.02525541 36.4524965,5.96088491 36.535082,5.87803279 C36.6160738,5.79546394 36.677868,5.69605596 36.7160656,5.58688525 C36.7591539,5.46840451 36.78048,5.34311323 36.7790164,5.21704918 C36.8002115,4.96719533 36.717688,4.71962506 36.5508197,4.53245902 C36.3983553,4.40146209 36.2081232,4.3246888 36.0096631,4.31198577 L35.4098361,4.31213115 L35.4098361,3.80852459 L35.9134426,3.80852459 C36.0421978,3.8116927 36.1703796,3.79032906 36.2911475,3.74557377 C36.3875901,3.70859202 36.4738863,3.64926342 36.5429508,3.57245902 C36.6086906,3.49439159 36.6569827,3.40317315 36.6845902,3.30491803 C36.7166537,3.19501762 36.732558,3.08103707 36.7318033,2.96655738 C36.7333789,2.85202488 36.7174577,2.73792321 36.6845902,2.62819672 C36.6201278,2.41732944 36.4640218,2.24676924 36.2596721,2.16393443 C36.1346934,2.11385896 36.0008252,2.08976268 35.8662295,2.09311475 C35.7554561,2.09115226 35.6455167,2.11260383 35.5436066,2.15606557 C35.4491666,2.19676244 35.3636194,2.2555761 35.2918033,2.32918033 C35.2201019,2.40695971 35.1640041,2.4977847 35.1265574,2.59672131 C35.0843081,2.70449609 35.0629448,2.81932373 35.0636066,2.93508197 L34.4340984,2.93508197 C34.4304546,2.73802741 34.4679758,2.54238121 34.5442623,2.36065574 C34.6143193,2.19376237 34.7189061,2.04358637 34.8511475,1.92 C34.9840092,1.7995091 35.139011,1.70597354 35.307541,1.64459016 C35.4840439,1.58050589 35.6705911,1.54852637 35.8583607,1.55016393 Z M96.4170492,1.54229508 C96.627956,1.54064263 96.8377855,1.57251548 97.0386885,1.63672131 C97.2142306,1.69307697 97.3753572,1.7870675 97.5108197,1.91213115 C97.6426969,2.03746631 97.7448641,2.19071704 97.8098361,2.36065574 C97.8853635,2.55634823 97.9227568,2.76468272 97.92,2.97442623 C97.9231131,3.19998769 97.8602041,3.42153711 97.7390164,3.61180328 C97.614161,3.80355646 97.4402817,3.95841774 97.2354098,4.06032787 C97.4630505,4.14533054 97.6584011,4.29940983 97.7940984,4.50098361 C97.9311742,4.72274889 97.9996172,4.98009434 97.9908197,5.24065574 C97.9950413,5.45636412 97.9548652,5.67063678 97.8727869,5.87016393 C97.8033436,6.03082955 97.7015574,6.17547298 97.5737705,6.29508197 C97.4289657,6.42147745 97.2604436,6.5177758 97.0780328,6.57836066 C96.8748451,6.64435819 96.6621336,6.67626491 96.4485246,6.67278689 C96.264189,6.67175356 96.0810932,6.64256437 95.9055738,6.58622951 C95.730175,6.53179255 95.5671149,6.44357971 95.4255738,6.32655738 C95.2781927,6.20156131 95.1600084,6.04577284 95.0793443,5.87016393 C94.9875165,5.66209044 94.9418786,5.43658584 94.9455738,5.20918033 L95.575082,5.20918033 C95.574221,5.33263221 95.5955432,5.45523489 95.6380328,5.57114754 C95.675816,5.68109596 95.7346113,5.78265152 95.8111475,5.87016393 C95.8885424,5.95386988 95.982275,6.02082175 96.0865574,6.06688525 C96.198227,6.11535294 96.3189347,6.13949447 96.4406557,6.13770492 C96.5751033,6.13921035 96.7086145,6.11517834 96.8340984,6.06688525 C97.0554354,5.98569203 97.2287056,5.80953404 97.3062295,5.58688525 C97.3493178,5.46840451 97.370644,5.34311323 97.3691803,5.21704918 C97.3903754,4.96719533 97.307852,4.71962506 97.1409836,4.53245902 C96.9584549,4.37450855 96.7207933,4.29528802 96.48,4.31213115 L96,4.31213115 L96,3.80852459 L96.4642623,3.80852459 C96.5930174,3.8116927 96.7211993,3.79032906 96.8419672,3.74557377 C96.9384098,3.70859202 97.024706,3.64926342 97.0937705,3.57245902 C97.1595103,3.49439159 97.2078024,3.40317315 97.2354098,3.30491803 C97.2674734,3.19501762 97.2833776,3.08103707 97.282623,2.96655738 C97.2843226,2.85201716 97.2683988,2.73789668 97.2354098,2.62819672 C97.2021901,2.52666218 97.1486433,2.43295528 97.0780328,2.35278689 C97.0030835,2.2717701 96.9119294,2.20742606 96.8104918,2.16393443 C96.6854527,2.11406974 96.551628,2.0899813 96.4170492,2.09311475 C96.3062757,2.09115226 96.1963364,2.11260383 96.0944262,2.15606557 C95.9999863,2.19676244 95.9144391,2.2555761 95.842623,2.32918033 C95.7709216,2.40695971 95.7148238,2.4977847 95.677377,2.59672131 C95.6351277,2.70449609 95.6137645,2.81932373 95.6144262,2.93508197 L94.984918,2.93508197 C94.9824123,2.73479907 95.0226516,2.53628499 95.1029508,2.35278689 C95.172797,2.18577764 95.2774129,2.03555995 95.4098361,1.91213115 C95.5428169,1.79180043 95.6977857,1.69828476 95.8662295,1.63672131 C96.0427324,1.57263704 96.2292796,1.54065752 96.4170492,1.54229508 Z M52.2491803,1.62098361 C52.4460745,1.61872474 52.642243,1.64523401 52.8314754,1.69967213 C52.9923214,1.7472254 53.1402927,1.8306274 53.2642623,1.94360656 C53.3767565,2.06186921 53.4602599,2.20463306 53.5081967,2.36065574 C53.5751518,2.55547538 53.6071197,2.76060237 53.602623,2.96655738 C53.6077812,3.18634538 53.5475274,3.40271133 53.4295082,3.58819672 C53.3109796,3.76877445 53.1448702,3.91309899 52.9495082,4.0052459 C53.0673928,4.04115929 53.1770292,4.09998858 53.2721311,4.17836066 C53.3656624,4.25325714 53.445529,4.34377263 53.5081967,4.44590164 C53.5728989,4.55616417 53.6206462,4.67553253 53.6498361,4.8 C53.6823371,4.93393355 53.6981945,5.07136451 53.6970492,5.20918033 C53.7000506,5.42081757 53.6654136,5.63130384 53.5947541,5.83081967 C53.5349447,6.00188639 53.4382326,6.15770022 53.3114754,6.28721311 C53.184943,6.41204099 53.0315169,6.50625 52.8629508,6.56262295 C52.6757612,6.62748624 52.4787505,6.65943393 52.2806557,6.65704918 L50.8170492,6.64131148 L50.8170492,1.62098361 L52.2491803,1.62098361 Z M92.852459,1.62098361 L94.4734426,6.64918033 L93.8281967,6.64918033 L93.442623,5.33508197 L91.7508197,5.33508197 L91.357377,6.64918033 L90.7121311,6.64918033 L92.3331148,1.62098361 L92.852459,1.62098361 Z M56.4118033,1.62098361 L58.0327869,6.64918033 L57.442623,6.64918033 L57.0177049,5.33508197 L55.3180328,5.33508197 L54.9245902,6.64918033 L54.295082,6.64918033 L55.8688525,1.62098361 L56.4118033,1.62098361 Z M129.576393,1.62098361 L129.576393,3.83213115 L129.961967,3.83213115 L131.409836,1.62098361 L132.196721,1.62098361 L130.622951,4.05245902 L132.338361,6.64918033 L131.551475,6.64918033 L130.056393,4.38295082 L129.576393,4.38295082 L129.576393,6.64131148 L128.946885,6.64131148 L128.946885,1.62098361 L129.576393,1.62098361 Z M85.9829508,1.62098361 L87.6039344,6.64918033 L86.9586885,6.64918033 L86.557377,5.33508197 L84.8577049,5.33508197 L84.4642623,6.64918033 L83.8190164,6.64918033 L85.44,1.62098361 L85.9829508,1.62098361 Z M120.786885,1.62098361 L120.786885,3.77704918 L122.80918,3.77704918 L122.80918,1.62098361 L123.446557,1.62098361 L123.446557,6.64131148 L122.80918,6.64131148 L122.80918,4.28065574 L120.786885,4.28065574 L120.786885,6.64131148 L120.157377,6.64131148 L120.157377,1.62098361 L120.786885,1.62098361 Z M115.420328,1.62098361 L115.420328,2.16393443 L113.382295,2.16393443 L113.382295,3.77704918 L115.160656,3.77704918 L115.160656,4.32 L113.382295,4.32 L113.382295,6.09836066 L115.451803,6.09836066 L115.451803,6.64131148 L112.752787,6.64131148 L112.752787,1.62098361 L115.420328,1.62098361 Z M90.9639344,1.62098361 L90.9639344,2.16393443 L88.9888525,2.16393443 L88.9888525,6.64131148 L88.3514754,6.64131148 L88.3514754,1.62098361 L90.9639344,1.62098361 Z M71.7167213,1.62098361 L71.7167213,6.64131148 L71.0872131,6.64131148 L71.0872131,1.62098361 L71.7167213,1.62098361 Z M63.7377049,1.62098361 L63.7377049,3.77704918 L65.7836066,3.77704918 L65.7836066,1.62098361 L66.4209836,1.62098361 L66.4209836,6.64131148 L65.7836066,6.64131148 L65.7836066,4.28065574 L63.7377049,4.28065574 L63.7377049,6.64131148 L63.1081967,6.64131148 L63.1081967,1.62098361 L63.7377049,1.62098361 Z M11.9606557,1.62098361 L11.9606557,2.16393443 L9.92262295,2.16393443 L9.92262295,3.77704918 L11.7009836,3.77704918 L11.7009836,4.32 L9.92262295,4.32 L9.92262295,6.09836066 L11.9921311,6.09836066 L11.9921311,6.64131148 L9.29311475,6.64131148 L9.29311475,1.62098361 L11.9606557,1.62098361 Z M112.013115,1.62098361 L112.013115,2.16393443 L110.691148,2.16393443 L110.691148,6.64131148 L110.061639,6.64131148 L110.061639,2.16393443 L108.739672,2.16393443 L108.739672,1.62098361 L112.013115,1.62098361 Z M8.1757377,1.62098361 L8.1757377,6.64131148 L7.53836066,6.64131148 L7.53836066,2.16393443 L5.57114754,2.16393443 L5.57114754,6.64131148 L4.94163934,6.64131148 L4.94163934,1.62098361 L8.1757377,1.62098361 Z M26.4944262,1.6052459 L29.1147541,1.62098361 L29.1147541,6.64131148 L28.4852459,6.64131148 L28.4852459,2.16393443 L27.092459,2.16393443 L27.0452459,3.93442623 C27.0411222,4.33190608 27.0122136,4.72874188 26.9586885,5.12262295 C26.9339847,5.42227395 26.8650401,5.71661446 26.7540984,5.99606557 C26.6689101,6.1932172 26.5298075,6.36232231 26.3527869,6.48393443 C26.1704659,6.59430422 25.9598718,6.64900397 25.7468852,6.64131148 L25.5816393,6.64131148 L25.5816393,6.09836066 L25.6996721,6.09836066 C25.8233484,6.10336375 25.9443027,6.06117037 26.0380328,5.98032787 C26.1425713,5.87845187 26.2185443,5.75092572 26.2583607,5.6104918 C26.3244282,5.39544465 26.3666492,5.17378477 26.3842623,4.9495082 C26.4104918,4.68196721 26.4288525,4.35409836 26.4393443,3.96590164 L26.4944262,1.6052459 Z M17.9488525,1.62098361 L17.9488525,5.50819672 L19.9396721,1.62098361 L20.5691803,1.62098361 L20.5691803,6.64131148 L19.9396721,6.64131148 L19.9396721,2.76983607 L17.9881967,6.64131148 L17.3114754,6.64131148 L17.3114754,1.62098361 L17.9488525,1.62098361 Z M73.5186885,1.62098361 L73.5186885,5.50819672 L75.4780328,1.62098361 L76.107541,1.62098361 L76.107541,6.64131148 L75.4780328,6.64131148 L75.4780328,2.76983607 L73.5186885,6.64131148 L72.8813115,6.64131148 L72.8813115,1.62098361 L73.5186885,1.62098361 Z M30.9088525,1.62098361 L30.9088525,5.50819672 L32.8681967,1.62098361 L33.4977049,1.62098361 L33.4977049,6.64131148 L32.8681967,6.64131148 L32.8681967,2.76983607 L30.9088525,6.64131148 L30.2714754,6.64131148 L30.2714754,1.62098361 L30.9088525,1.62098361 Z M133.542295,1.62098361 L133.542295,5.50819672 L135.501639,1.62098361 L136.131148,1.62098361 L136.131148,6.64131148 L135.501639,6.64131148 L135.501639,2.76983607 L133.542295,6.64131148 L132.904918,6.64131148 L132.904918,1.62098361 L133.542295,1.62098361 Z M38.9429508,1.62098361 L38.9429508,5.50819672 L40.9180328,1.62098361 L41.547541,1.62098361 L41.547541,6.64131148 L40.9180328,6.64131148 L40.9180328,2.76983607 L38.9429508,6.64131148 L38.3055738,6.64131148 L38.3055738,1.62098361 L38.9429508,1.62098361 Z M99.4937705,1.62098361 L99.4937705,5.50819672 L101.453115,1.62098361 L102.082623,1.62098361 L102.082623,6.64131148 L101.453115,6.64131148 L101.453115,2.76983607 L99.4937705,6.64131148 L98.8563934,6.64131148 L98.8563934,1.62098361 L99.4937705,1.62098361 Z M23.5514754,1.61311475 L25.1803279,6.64131148 L24.535082,6.64131148 L24.1022951,5.33508197 L22.4104918,5.33508197 L22.0327869,6.64131148 L21.387541,6.64131148 L23.0085246,1.61311475 L23.5514754,1.61311475 Z M44.2229508,1.62098361 C44.4430957,1.61614336 44.6621284,1.65353918 44.8681967,1.73114754 C45.0475944,1.80226491 45.2088828,1.91247865 45.3403279,2.05377049 C45.4700493,2.19452566 45.5691842,2.36064354 45.6314754,2.54163934 C45.6970318,2.73951444 45.7289496,2.94698021 45.7259016,3.15540984 C45.7302505,3.37422899 45.6983437,3.5922586 45.6314754,3.80065574 C45.5134133,4.17570938 45.2196438,4.46947886 44.8445902,4.58754098 C44.6372431,4.65950128 44.4187813,4.69413547 44.1993443,4.68983607 L43.2786885,4.67409836 L43.2786885,6.64131148 L42.6491803,6.64131148 L42.6491803,1.62098361 L44.2229508,1.62098361 Z M125.201311,1.62098361 L125.201311,5.50819672 L127.160656,1.62098361 L127.790164,1.62098361 L127.790164,6.64131148 L127.160656,6.64131148 L127.160656,2.76983607 L125.201311,6.64131148 L124.563934,6.64131148 L124.563934,1.62098361 L125.201311,1.62098361 Z M103.868852,1.62098361 L103.868852,3.77704918 L105.891148,3.77704918 L105.891148,1.62098361 L106.528525,1.62098361 L106.497049,6.64131148 L105.859672,6.64131148 L105.859672,4.28065574 L103.868852,4.28065574 L103.868852,6.64131148 L103.239344,6.64131148 L103.239344,1.62098361 L103.868852,1.62098361 Z M59.3783607,1.62098361 L59.3783607,3.77704918 L61.3770492,3.77704918 L61.3770492,1.62098361 L62.0144262,1.62098361 L62.0380328,6.64131148 L61.3770492,6.64131148 L61.3770492,4.28065574 L59.3783607,4.28065574 L59.3783607,6.64131148 L58.7488525,6.64131148 L58.7488525,1.62098361 L59.3783607,1.62098361 Z M68.1757377,1.62098361 L68.1836066,3.66688525 L69.1908197,3.66688525 C69.402584,3.66213179 69.6133843,3.69682045 69.812459,3.76918033 C69.9847357,3.83406261 70.140572,3.93616228 70.2688525,4.06819672 C70.392942,4.20136853 70.4868774,4.35971664 70.5442623,4.53245902 C70.610276,4.72751068 70.6422179,4.93247111 70.6386885,5.13836066 C70.6416016,5.34420732 70.6096759,5.54906394 70.5442623,5.7442623 C70.4867817,5.91930065 70.3929239,6.08019977 70.2688525,6.21639344 C70.1413659,6.35127292 69.9854687,6.45610033 69.812459,6.52327869 C69.6144133,6.60018963 69.4032343,6.63761377 69.1908197,6.63344262 L67.5462295,6.63344262 L67.5462295,1.62098361 L68.1757377,1.62098361 Z M48.1495082,2.10885246 C47.9974826,2.10769978 47.8470572,2.13993379 47.7088525,2.20327869 C47.5757626,2.26710381 47.4617898,2.36479474 47.3783607,2.48655738 C47.2775211,2.63438922 47.2054437,2.79990028 47.1659016,2.97442623 C47.1135572,3.20939384 47.0897785,3.44982275 47.095082,3.6904918 L47.095082,4.57180328 C47.0918892,4.81281354 47.1183166,5.05330328 47.1737705,5.28786885 C47.2138416,5.46222089 47.2858777,5.62763693 47.3862295,5.7757377 C47.4718253,5.8985669 47.588624,5.9963518 47.7245902,6.05901639 C47.863556,6.11917596 48.0138494,6.14869787 48.1652459,6.14557377 C48.3218396,6.14997948 48.4775327,6.12045148 48.6216393,6.05901639 C48.7562483,5.99754462 48.8707953,5.89936146 48.9521311,5.7757377 C49.0477597,5.62691113 49.1144971,5.46140236 49.1488525,5.28786885 C49.1982653,5.05244073 49.2220105,4.81234965 49.2196721,4.57180328 L49.2118033,3.6904918 C49.2151708,3.44990078 49.1914144,3.20969654 49.1409836,2.97442623 C49.1043964,2.80028376 49.0349613,2.63470796 48.9363934,2.48655738 C48.8550576,2.36293362 48.7405106,2.26475046 48.6059016,2.20327869 C48.4623976,2.13914281 48.3066804,2.10692547 48.1495082,2.10885246 Z M52.3357377,4.29639344 L51.4465574,4.29639344 L51.4465574,6.10622951 L52.3121311,6.10622951 C52.4255451,6.10931703 52.5382855,6.08784267 52.642623,6.04327869 C52.7365978,6.00221397 52.8200101,5.94032739 52.8865574,5.86229508 C52.9552883,5.77911803 53.0061786,5.68269441 53.0360656,5.57901639 C53.0735154,5.45664585 53.0920895,5.32928083 53.0911475,5.20131148 C53.0933265,5.07428328 53.0801156,4.94745858 53.0518033,4.82360656 C53.0266503,4.7211689 52.9811588,4.62483384 52.9180328,4.54032787 C52.855843,4.46108082 52.7746427,4.39882726 52.6819672,4.35934426 C52.5723476,4.31397671 52.4543111,4.29251554 52.3357377,4.29639344 Z M68.1836066,4.20983607 L68.1836066,6.09836066 L69.1908197,6.09836066 C69.3186616,6.10258022 69.445605,6.07557099 69.5606557,6.01967213 C69.660291,5.96988392 69.7466139,5.89704896 69.812459,5.80721311 C69.8776474,5.71709264 69.9256629,5.61572648 69.9540984,5.50819672 C69.9967389,5.38898887 70.0232042,5.2646021 70.0327871,5.13836066 C70.0328568,5.0187541 70.0169792,4.89967213 69.9855738,4.7842623 C69.9566946,4.67780701 69.9057569,4.57861249 69.8360656,4.49311475 C69.768824,4.40859629 69.6825394,4.34118641 69.5842623,4.29639344 C69.467599,4.24617785 69.3413877,4.22200972 69.2144262,4.22557377 L68.1836066,4.20983607 Z M85.7704918,2.50229508 L85.0229508,4.79213115 L86.3921311,4.79213115 L85.7704918,2.50229508 Z M23.252459,2.51016393 L22.5678689,4.79213115 L23.9370492,4.79213115 L23.252459,2.51016393 Z M56.1678689,2.51016393 L55.4832787,4.79213115 L56.852459,4.79213115 L56.1678689,2.51016393 Z M92.5927869,2.51016393 L91.9081967,4.79213115 L93.277377,4.79213115 L92.5927869,2.51016393 Z M44.2465574,2.14819672 L43.2786885,2.14819672 L43.2786885,4.13114754 L44.2465574,4.13114754 C44.3811871,4.13494788 44.5151457,4.11083532 44.64,4.06032787 C44.7440246,4.01411306 44.8356853,3.94401955 44.907541,3.8557377 C44.9804238,3.76527434 45.0339856,3.66082883 45.064918,3.54885246 C45.0987116,3.4205073 45.1145997,3.28810645 45.1121311,3.15540984 C45.1135563,3.02795188 45.0976736,2.90089028 45.064918,2.77770492 C45.0337554,2.6610212 44.9803146,2.55146764 44.907541,2.45508197 C44.8358441,2.36266809 44.744447,2.28739994 44.64,2.2347541 C44.5173887,2.17563853 44.3826579,2.14599775 44.2465574,2.14819672 Z M52.2491803,2.17180328 L51.4622951,2.17180328 L51.4465574,3.7613138 L52.2334426,3.7613138 C52.3331043,3.76155395 52.4319048,3.74286195 52.5245902,3.70622951 C52.6112803,3.67114696 52.6891881,3.61741741 52.7527869,3.54885246 C52.8179399,3.47501253 52.868654,3.38959928 52.9022951,3.29704918 C52.9403204,3.1883561 52.9589642,3.07383015 52.957377,2.95868852 C52.9849305,2.7476121 52.9315108,2.53393331 52.8078689,2.36065574 C52.6531626,2.22766007 52.45285,2.15994875 52.2491803,2.17180328 Z M73.9672131,0.369836066 C73.9575172,0.43505142 73.9575172,0.501342022 73.9672131,0.566557377 C73.9839424,0.627185225 74.0134561,0.683529531 74.0537705,0.731803279 C74.0969422,0.780270845 74.1508307,0.817992795 74.2111475,0.841967213 C74.2890072,0.871272339 74.371957,0.884651334 74.455082,0.881311475 C74.5356037,0.884022094 74.6158575,0.870646469 74.6911475,0.841967213 C74.8318443,0.808245716 74.9450115,0.70401271 74.9901639,0.566557377 C74.9995259,0.501317755 74.9995259,0.435075687 74.9901639,0.369836066 L75.5409836,0.369836066 C75.5422331,0.496600066 75.5181557,0.622337316 75.4701639,0.739672131 C75.4250934,0.851070283 75.3551073,0.950665801 75.2655738,1.03081967 C75.1691194,1.11519865 75.0567469,1.1794115 74.935082,1.21967213 C74.6565591,1.31153295 74.3558999,1.31153295 74.077377,1.21967213 C73.9557122,1.1794115 73.8433397,1.11519865 73.7468852,1.03081967 C73.6589068,0.949295526 73.5891818,0.850071512 73.5422951,0.739672131 C73.4943033,0.622337316 73.4702259,0.496600066 73.4714754,0.369836066 L73.9672131,0.369836066 Z"/>
</svg>
