<svg xmlns="http://www.w3.org/2000/svg" width="755" height="120" viewBox="0 0 755 120">
  <path fill="#EDEDED" fill-rule="evenodd" d="M1052.99363,110 C1057.66828,110 1063.05583,110.414249 1069.02371,111.176852 C1075.04092,111.989165 1080.82614,112.983748 1086.39596,114.210695 L1086.39596,136.672233 C1074.75923,132.279268 1064.39877,130.058123 1055.33115,130.058123 C1049.96017,130.058123 1045.6832,131.052706 1042.46747,132.975591 C1039.25136,134.915047 1037.61016,137.302276 1037.61016,140.120325 C1037.61016,143.866676 1041.24052,147.198393 1048.55095,150.182526 L1069.66994,160.460137 C1086.74432,168.599453 1095.21503,179.407303 1095.21503,192.983876 C1095.21503,204.27264 1090.72265,213.273979 1081.65503,219.937798 C1072.65369,226.668283 1060.53604,230 1045.45122,230 C1038.48875,230 1032.23957,229.701741 1026.68632,229.071697 C1021.13307,228.475179 1014.75094,227.248231 1007.67249,225.491045 L1007.67249,201.985215 C1020.65216,206.37818 1032.47155,208.599325 1043.1137,208.599325 C1055.81168,208.599325 1062.12753,204.919254 1062.12753,197.492831 C1062.12753,193.79619 1059.54146,190.812442 1054.28686,188.474922 L1030.83035,178.479 C1022.17737,174.566949 1015.74553,169.826015 1011.53483,164.206489 C1007.3908,158.537252 1005.28526,152.039132 1005.28526,144.612709 C1005.28526,134.218723 1009.66166,125.847428 1018.31464,119.481868 C1027.03429,113.166017 1038.60513,110 1052.99363,110 Z M388.675229,110 C393.399593,110 398.72086,110.414249 404.754636,111.176852 C410.722517,111.989165 416.507744,112.983748 422.060991,114.210695 L422.060991,136.672233 C410.423873,132.279268 400.079982,130.058123 391.012363,130.058123 C385.624816,130.058123 381.364796,131.052706 378.148683,132.975591 C374.932956,134.915047 373.29176,137.302276 373.29176,140.120325 C373.29176,143.866676 376.971831,147.198393 384.282264,150.182526 L405.40125,160.460137 C422.40896,168.599453 430.89663,179.407303 430.89663,192.983876 C430.89663,204.27264 426.387676,213.273979 417.386337,219.937798 C408.318718,226.668283 396.267351,230 381.132817,230 C374.170353,230 367.904212,229.701741 362.350965,229.071697 C356.797718,228.475179 350.481868,227.248231 343.35409,225.491045 L343.35409,201.985215 C356.383469,206.37818 368.202857,208.599325 378.778727,208.599325 C391.476707,208.599325 397.792558,204.919254 397.792558,197.492831 C397.792558,193.79619 395.223059,190.812442 390.017781,188.474922 L366.56166,178.479 C357.842011,174.566949 351.410171,169.826015 347.26614,164.206489 C343.055445,158.537252 341,152.039132 341,144.612709 C341,134.218723 345.343255,125.847428 354.04595,119.481868 C362.69932,113.166017 374.286342,110 388.675229,110 Z M653.523996,112.105155 L682.185394,182.987955 L712.173159,112.105155 L752.056656,112.105155 L752.056656,227.894845 L719.945624,227.894845 L719.945624,151.525078 L686.628069,228.955707 L666.80231,228.955707 L634.7591,151.525078 L634.7591,227.894845 L611.534959,227.894845 L611.534959,112.105155 L653.523996,112.105155 Z M480.660444,112.105155 L480.660444,227.894845 L446.263144,227.894845 L446.263144,112.105155 L480.660444,112.105155 Z M591.476836,112.105155 L591.476836,133.506215 L540.370085,133.506215 L540.370085,159.18348 L584.697027,159.18348 L584.697027,178.479 L540.370085,178.479 L540.370085,205.433308 L592.521128,205.433308 L592.521128,227.894845 L507.266397,227.894845 L507.266397,112.105155 L591.476836,112.105155 Z M862.824879,112.105155 L862.824879,133.506215 L811.997505,133.506215 L811.997505,159.18348 L856.324061,159.18348 L856.324061,178.479 L811.997505,178.479 L811.997505,205.433308 L863.869171,205.433308 L863.869171,227.894845 L778.614826,227.894845 L778.614826,112.105155 L862.824879,112.105155 Z M920.43052,112.105155 L960.314017,185.093495 L960.314017,112.105155 L983.519661,112.105155 L983.519661,227.894845 L947.034932,227.894845 L906.091729,153.630233 L906.091729,227.894845 L882.882231,227.894845 L882.882231,112.105155 L920.43052,112.105155 Z" transform="translate(-341 -110)"/>
</svg>
