<svg xmlns="http://www.w3.org/2000/svg" width="39" height="39" viewBox="0 0 39 39">
  <g fill="none" fill-rule="evenodd" transform="translate(-2 -2)">
    <rect width="30" height="30" x="6.627" y="6.627" stroke="#00B2B2" stroke-width="2" rx="10" transform="rotate(-23 21.627 21.627)"/>
    <path fill="#AF235F" d="M21.8155995,30 C26.1280263,30.0031979 29.626573,26.5098068 29.6297749,22.1975577 C29.630662,20.8818026 29.2992787,19.5873812 28.6662016,18.4341177 L27.6551627,19.4453345 C29.1716322,22.6732989 27.7844092,26.5195847 24.5564448,28.0360542 C21.3283025,29.5527015 17.4820167,28.1654786 15.9653694,24.9371586 C14.4487221,21.7093719 15.8363006,17.8630861 19.0642651,16.3464388 C20.8036716,15.5293586 22.8166827,15.5291808 24.556267,16.3464388 L25.5673059,15.3352221 C21.7828878,13.2624767 17.0348982,14.6498774 14.9619751,18.4342955 C12.8892297,22.2185358 14.2766304,26.9667032 18.0610485,29.0394486 C19.2120009,29.6700368 20.5032222,30.0001756 21.8155995,30 M21.8155995,18.9710155 C22.2307174,18.9710155 22.642102,19.0520835 23.0262861,19.2095972 L24.0440807,18.1918026 C21.8335553,16.9564044 19.0402647,17.7468175 17.8048665,19.9573429 C16.5694683,22.1676906 17.3600592,24.9609812 19.5704068,26.1963794 C21.7807544,27.4317776 24.5742228,26.6413645 25.8094433,24.4308391 C26.586345,23.0409494 26.586345,21.3474103 25.8094433,19.9573429 L24.7918264,20.9751375 C25.4599264,22.6196091 24.6682688,24.494129 23.0237972,25.1620512 C21.3795034,25.8301511 19.5049835,25.0386714 18.8370613,23.3941997 C18.1689614,21.7499059 18.9604412,19.8752082 20.604735,19.2072861 C20.9894525,19.0510168 21.4006593,18.9708377 21.8155995,18.9710155 M25.3536135,16.55462 L27.8610327,14.0472008 C27.9239671,13.9842664 28.0258355,13.9842664 28.0887698,14.0472008 C28.1189925,14.0774235 28.1358817,14.1183131 28.1358817,14.1609804 L28.1358817,15.7046504 C28.1358817,15.7935408 28.2080607,15.8655419 28.296951,15.8655419 L29.8404432,15.8655419 C29.9293336,15.8655419 30.0013348,15.9377209 30.0013348,16.0266113 C30.0013348,16.0692786 29.9844456,16.1101682 29.9544007,16.1403909 L27.4468037,18.6478102 C27.3924028,18.7022111 27.316846,18.7297671 27.2400447,18.7231892 L26.1333597,18.6280765 L22.8908172,21.8704412 C23.0662868,22.4654733 22.7260145,23.0898391 22.1309825,23.2653087 C21.5361282,23.4406005 20.9115845,23.1003282 20.7362927,22.5052961 C20.5610009,21.9104419 20.9010955,21.2858982 21.4961275,21.1106064 C21.7034198,21.0494499 21.9236901,21.0494499 22.1309825,21.1106064 L25.3733472,17.8682417 L25.2782345,16.761379 C25.2716566,16.6847555 25.2992126,16.6090209 25.3536135,16.55462"/>
  </g>
</svg>
