<svg xmlns="http://www.w3.org/2000/svg" width="48" height="48" viewBox="0 0 48 48">
  <g fill="none" fill-rule="evenodd">
    <polygon fill="#AF235F" points="0 48 48 48 48 0 0 0"/>
    <path fill="#FF87BA" d="M20.8610286,26.2176 C15.2861714,26.2176 10.7522286,21.6809143 10.7522286,16.1074286 C10.7522286,10.5325714 15.2861714,6 20.8610286,6 C26.4345143,6 30.9698286,10.5325714 30.9698286,16.1074286 C30.9698286,21.6809143 26.4345143,26.2176 20.8610286,26.2176 M20.8610286,6.97234286 C15.8224,6.97234286 11.7232,11.0688 11.7232,16.1074286 C11.7232,21.1460571 15.8224,25.2452571 20.8610286,25.2452571 C25.8996571,25.2452571 29.9974857,21.1460571 29.9974857,16.1074286 C29.9974857,11.0688 25.8996571,6.97234286 20.8610286,6.97234286"/>
    <path fill="#FF87BA" d="M20.8610286,9.83945143 C20.5908571,9.83945143 20.3741714,10.0575086 20.3741714,10.3263086 L20.3741714,21.8901943 C20.3741714,22.1589943 20.5922286,22.37568 20.8610286,22.37568 C21.1284571,22.37568 21.3465143,22.1576229 21.3465143,21.8901943 L21.3465143,10.3263086 C21.3465143,10.0575086 21.1298286,9.83945143 20.8610286,9.83945143"/>
    <path fill="#FFF" d="M28.7560686 18.9663086L33.9812114 24.19008C34.1594971 24.3697371 34.2596114 24.6083657 34.2596114 24.8607086 34.2596114 25.1130514 34.1594971 25.35168 33.9812114 25.5327086L28.7560686 30.7578514C28.5764114 30.9361371 28.3377829 31.0362514 28.0840686 31.0362514 27.8303543 31.0362514 27.5917257 30.9361371 27.4120686 30.75648 27.0431543 30.3875657 27.0431543 29.7855086 27.4120686 29.4152229L31.9679543 24.86208 27.4120686 20.3075657C27.2337829 20.1279086 27.13504 19.8906514 27.13504 19.6369371 27.13504 19.3818514 27.2351543 19.1445943 27.41344 18.9649371 27.7700114 18.6083657 28.3967543 18.6069943 28.7560686 18.9663086zM34.8122971 18.9635657L40.0388114 24.1887086C40.2170971 24.3683657 40.31584 24.6083657 40.31584 24.8593371 40.31584 25.11168 40.2170971 25.3503086 40.0388114 25.5299657L34.8122971 30.75648C34.6312686 30.9361371 34.3940114 31.0362514 34.1416686 31.0362514 33.8893257 31.0362514 33.6506971 30.9361371 33.47104 30.7578514 33.2913829 30.5768229 33.19264 30.3395657 33.19264 30.0858514 33.1940114 29.8321371 33.2927543 29.5935086 33.4724114 29.4152229L38.0269257 24.8607086 33.4724114 20.3061943C33.2927543 20.1279086 33.1940114 19.8906514 33.19264 19.6355657 33.19264 19.3818514 33.2913829 19.1445943 33.47104 18.9635657 33.8289829 18.6056229 34.4529829 18.6056229 34.8122971 18.9635657zM8.13554286 38.3259429C8.48937143 38.3259429 8.73211429 38.4521143 8.99268571 38.7689143L8.99268571 38.7689143 9.01462857 38.3862857 9.64 38.3862857C9.61805714 38.7030857 9.61257143 38.9389714 9.61257143 39.504L9.61257143 42.3620571 8.96525714 42.3620571 8.96525714 40.8260571C8.7376 41.1236571 8.49485714 41.2443429 8.14102857 41.2443429 7.75291429 41.2443429 7.47725714 41.0962286 7.26605714 40.7890286 7.09462857 40.5257143 7 40.1801143 7 39.7796571 7 38.9019429 7.44982857 38.3259429 8.13554286 38.3259429zM11.1389714 38.3862857L11.1389714 40.0361143C11.1389714 40.2953143 11.1499429 40.4050286 11.1938286 40.5092571 11.2555429 40.6614857 11.3940571 40.7506286 11.5819429 40.7506286 11.8301714 40.7506286 12.0907429 40.5805714 12.3115429 40.2788571L12.3115429 40.2788571 12.3115429 38.3862857 12.9588571 38.3862857 12.9588571 40.2006857C12.9588571 40.5860571 12.9643429 40.8109714 12.9862857 41.184L12.9862857 41.184 12.3732571 41.184 12.3568 40.7712C12.0249143 41.1168 11.7533714 41.2443429 11.3721143 41.2443429 11.0169143 41.2443429 10.7467429 41.1058286 10.6137143 40.8493714 10.5259429 40.6793143 10.4916571 40.4708571 10.4916571 40.0704L10.4916571 40.0704 10.4916571 38.3862857 11.1389714 38.3862857zM16.5547429 38.32512C16.8921143 38.32512 17.1581714 38.3868343 17.4681143 38.5390629L17.4681143 38.5390629 17.2747429 39.0176914C17.0416 38.8736914 16.8482286 38.8133486 16.6219429 38.8133486 16.1515429 38.8133486 15.8854857 39.1589486 15.8854857 39.78432 15.8854857 40.3932343 16.1734857 40.7498057 16.6768 40.7498057 16.9140571 40.7498057 17.0978286 40.6894629 17.3186286 40.5358629L17.3186286 40.5358629 17.5298286 41.0021486C17.2692571 41.16672 16.9702857 41.2448914 16.6164571 41.2448914 15.7428571 41.2448914 15.2162286 40.7004343 15.2162286 39.7952914 15.2162286 38.8736914 15.7140571 38.32512 16.5547429 38.32512zM22.1706057 37.32672C22.5079771 37.32672 22.8124343 37.3815771 23.2444343 37.51872L23.2444343 37.51872 23.1100343 38.0837486C22.7342629 37.9246629 22.4695771 37.86432 22.1980343 37.86432 21.8277486 37.86432 21.58912 38.0508343 21.58912 38.3415771 21.58912 38.59392 21.7276343 38.7146057 22.2816914 38.93952 22.7397486 39.1274057 22.9221486 39.2192914 23.0826057 39.3509486 23.28832 39.5278629 23.3994057 39.78432 23.3994057 40.1093486 23.3994057 40.8266057 22.9002057 41.2448914 22.0485486 41.2448914 21.6439771 41.2448914 21.3120914 41.1900343 20.9088914 41.05152L20.9088914 41.05152 20.9980343 40.4700343C21.4560914 40.6455771 21.7221486 40.70592 22.0266057 40.70592 22.4366629 40.70592 22.6903771 40.4988343 22.6903771 40.15872 22.6903771 39.8789486 22.5847771 39.78432 21.9498057 39.51552 21.4944914 39.3221486 21.3628343 39.2576914 21.2078629 39.1370057 20.9980343 38.9669486 20.8924343 38.73792 20.8924343 38.4416914 20.8924343 37.7559771 21.3792914 37.32672 22.1706057 37.32672zM24.9204571 37.656L24.9204571 38.3869714 25.5622857 38.3869714 25.5622857 38.8738286 24.9204571 38.8738286 24.9204571 40.1739429C24.9204571 40.5853714 25.0150857 40.7293714 25.2962286 40.7293714 25.3908571 40.7293714 25.4621714 40.7115429 25.6006857 40.6621714L25.6006857 40.6621714 25.6610286 41.1504C25.4566857 41.2162286 25.2797714 41.2450286 25.0864 41.2450286 24.7654857 41.2450286 24.5378286 41.1449143 24.4116571 40.9542857 24.3115429 40.8048 24.2731429 40.5963429 24.2731429 40.2082286L24.2731429 40.2082286 24.2731429 38.8738286 23.8192 38.8738286 23.8192 38.3869714 24.2731429 38.3869714 24.2731429 37.7766857 24.9204571 37.656zM27.1432686 38.32608C27.58624 38.32608 27.9290971 38.4522514 28.1183543 38.6936229 28.27744 38.8897371 28.3281829 39.10368 28.3281829 39.6371657L28.3281829 39.6371657 28.3281829 40.4696229C28.3281829 40.7055086 28.3391543 41.0415086 28.3556114 41.1841371L28.3556114 41.1841371 27.7412114 41.1841371 27.7192686 40.8659657C27.4477257 41.1402514 27.2159543 41.24448 26.8456686 41.24448 26.2751543 41.24448 25.9377829 40.9263086 25.9377829 40.39968 25.9377829 40.0485943 26.09824 39.7688229 26.38624 39.6138514 26.5741257 39.5151086 26.8346971 39.4725943 27.22144 39.4725943 27.3311543 39.4725943 27.4257829 39.47808 27.6808686 39.4890514L27.6808686 39.4890514 27.6808686 39.4341943C27.6808686 39.0227657 27.4641829 38.7978514 27.0554971 38.7978514 26.8127543 38.7978514 26.5796114 38.8691657 26.2929829 39.0337371L26.2929829 39.0337371 26.1201829 38.5729371C26.4644114 38.40288 26.7729829 38.32608 27.1432686 38.32608zM32.1613257 37.656L32.1613257 38.3869714 32.8031543 38.3869714 32.8031543 38.8738286 32.1613257 38.8738286 32.1613257 40.1739429C32.1613257 40.5853714 32.2559543 40.7293714 32.5384686 40.7293714 32.6317257 40.7293714 32.7044114 40.7115429 32.8429257 40.6621714L32.8429257 40.6621714 32.9032686 41.1504C32.6989257 41.2162286 32.5220114 41.2450286 32.32864 41.2450286 32.0063543 41.2450286 31.7800686 41.1449143 31.6525257 40.9542857 31.5537829 40.8048 31.5140114 40.5963429 31.5140114 40.2082286L31.5140114 40.2082286 31.5140114 38.8738286 31.06144 38.8738286 31.06144 38.3869714 31.5140114 38.3869714 31.5140114 37.7766857 32.1613257 37.656zM14.5195429 38.3864229L14.5195429 41.1841371 13.8722286 41.1841371 13.8722286 38.3864229 14.5195429 38.3864229zM18.7406629 37.1727086L18.7406629 39.56448 19.7418057 38.3864229 20.4892343 38.3864229 19.3989486 39.6138514 20.5934629 41.1841371 19.8076343 41.1841371 18.7406629 39.7455086 18.7406629 41.1841371 18.0933486 41.1841371 18.0933486 37.1727086 18.7406629 37.1727086zM30.6021486 38.3425371C30.6912914 38.3425371 30.7461486 38.3480229 30.8503771 38.37408L30.8503771 38.37408 30.8119771 38.9391086C30.7132343 38.9240229 30.6679771 38.9185371 30.5911771 38.9185371 30.2702629 38.9185371 30.0151771 39.1489371 29.8944914 39.5589943L29.8944914 39.5589943 29.8944914 41.1841371 29.2526629 41.1841371 29.2523388 39.3583666C29.25082 39.1517229 29.24392 38.8268229 29.23072 38.3864229L29.23072 38.3864229 29.8382629 38.3864229 29.85472 38.9130514C30.0206629 38.52768 30.2702629 38.3425371 30.6021486 38.3425371zM27.4790146 39.8789435L27.3873829 39.8785371C26.85664 39.8785371 26.60704 40.0362514 26.60704 40.3832229 26.60704 40.6410514 26.7784686 40.8056229 27.0445257 40.8056229 27.2927543 40.8056229 27.4984686 40.6794514 27.6808686 40.4147657L27.6808686 40.4147657 27.6808686 39.8895086C27.5533257 39.8785371 27.4861257 39.8785371 27.3873829 39.8785371zM8.30697143 38.8182857C7.91885714 38.8182857 7.67062857 39.1872 7.67062857 39.7741714 7.67062857 40.3652571 7.91337143 40.7506286 8.28914286 40.7506286 8.54971429 40.7506286 8.75405714 40.6066286 8.96525714 40.2733714L8.96525714 40.2733714 8.96525714 39.2790857C8.77051429 38.9677714 8.5552 38.8182857 8.30697143 38.8182857zM14.1986286 37.0863086C14.4304 37.0863086 14.5963429 37.25088 14.5963429 37.48128 14.5963429 37.7171657 14.4304 37.8817371 14.1986286 37.8817371 13.9613714 37.8817371 13.7940571 37.7171657 13.7940571 37.48128 13.7940571 37.25088 13.9668571 37.0863086 14.1986286 37.0863086z"/>
  </g>
</svg>
