<svg xmlns="http://www.w3.org/2000/svg" width="48" height="48" viewBox="0 0 48 48">
  <g fill="none" fill-rule="evenodd">
    <polygon fill="#AF235F" points="0 47.735 47.735 47.735 47.735 0 0 0"/>
    <polyline fill="#FFF" points="26.696 34.13 24.89 32.068 24.89 34.04 23.744 34.04 23.744 32.068 21.94 34.13 21.078 33.377 23.744 30.329 23.744 28.448 19.682 32.605 18.864 31.806 23.744 26.812 23.744 24.469 21.375 26.87 20.56 26.068 23.744 22.838 23.744 20.091 21.438 21.476 20.369 25.931 19.256 25.663 20.064 22.303 17.983 23.552 16.218 30.308 15.11 30.017 16.579 24.396 14.97 25.363 13.73 29.219 12.641 28.869 13.479 26.26 11.69 27.335 11.1 26.354 12.891 25.278 10.191 24.792 10.392 23.665 14.38 24.384 15.99 23.415 10.336 22.073 10.601 20.959 17.393 22.571 19.315 21.416 16.158 20.711 16.409 19.592 20.738 20.561 23.173 19.099 20.736 17.747 16.417 18.946 16.111 17.842 19.307 16.957 17.277 15.829 10.543 17.679 10.24 16.573 15.844 15.035 14.201 14.127 10.241 14.978 10 13.861 12.68 13.282 10.853 12.27 11.41 11.27 13.235 12.281 12.305 9.701 13.382 9.312 14.756 13.124 16.398 14.036 14.734 8.468 15.83 8.14 17.831 14.829 19.898 15.975 18.944 12.731 20.044 12.407 21.324 16.765 23.744 18.105 23.744 15.301 20.586 12.086 21.403 11.285 23.744 13.669 23.744 11.345 18.864 6.352 19.682 5.552 23.744 9.705 23.744 7.828 21.078 4.78 21.94 4.026 23.744 6.09 23.744 4 24.89 4 24.89 6.09 26.696 4.026 27.557 4.78 24.89 7.828 24.89 9.707 28.952 5.552 29.772 6.352 24.89 11.345 24.89 13.671 27.247 11.284 28.06 12.087 24.89 15.302 24.89 18.067 27.262 16.642 28.372 12.355 29.481 12.643 28.662 15.801 30.652 14.605 32.417 7.85 33.525 8.14 32.055 13.76 33.664 12.794 34.905 8.937 35.994 9.287 35.155 11.899 36.848 10.882 37.437 11.862 35.744 12.88 38.443 13.364 38.242 14.493 34.255 13.774 32.645 14.741 38.298 16.085 38.035 17.197 31.242 15.586 29.151 16.842 32.49 17.648 32.221 18.762 27.755 17.681 25.463 19.058 27.93 20.427 32.203 19.241 32.509 20.343 29.358 21.218 31.359 22.328 38.091 20.479 38.395 21.583 32.792 23.122 34.433 24.031 38.394 23.177 38.634 24.296 35.954 24.875 37.681 25.83 37.125 26.832 35.4 25.876 36.33 28.454 35.253 28.843 33.879 25.032 32.236 24.123 33.901 29.69 32.805 30.017 30.805 23.329 28.71 22.166 29.677 25.455 28.577 25.778 27.284 21.377 24.89 20.05 24.89 22.868 28.036 26.068 27.218 26.87 24.89 24.501 24.89 26.812 29.772 31.806 28.952 32.605 24.89 28.448 24.89 30.329 27.557 33.377"/>
    <path fill="#FFF" d="M18.8715429,0.609782857 L18.8715429,1.34075429 L19.5133714,1.34075429 L19.5133714,1.82761143 L18.8715429,1.82761143 L18.8715429,3.12772571 C18.8715429,3.53778286 18.9648,3.68178286 19.2473143,3.68178286 C19.3419429,3.68178286 19.4132571,3.66532571 19.5517714,3.61595429 L19.5517714,3.61595429 L19.6121143,4.10418286 C19.4077714,4.17001143 19.2308571,4.19881143 19.0374857,4.19881143 C18.7165714,4.19881143 18.4902857,4.09869714 18.3627429,3.90669714 C18.2626286,3.75721143 18.2242286,3.55012571 18.2242286,3.16064 L18.2242286,3.16064 L18.2242286,1.82761143 L17.7702857,1.82761143 L17.7702857,1.34075429 L18.2242286,1.34075429 L18.2242286,0.729097143 L18.8715429,0.609782857 Z M5.10061714,1.28041143 C5.95776,1.28041143 6.48576,1.83309714 6.48576,2.73824 C6.48576,3.64201143 5.95776,4.19744 5.10061714,4.19744 C4.23798857,4.19744 3.71821714,3.64201143 3.71821714,2.72178286 C3.71821714,1.83309714 4.25033143,1.28041143 5.10061714,1.28041143 Z M13.4725029,1.28041143 C14.3296457,1.28041143 14.8549029,1.83309714 14.8549029,2.73824 C14.8549029,3.64201143 14.3296457,4.19744 13.4725029,4.19744 C12.6098743,4.19744 12.0887314,3.64201143 12.0887314,2.72178286 C12.0887314,1.83309714 12.6208457,1.28041143 13.4725029,1.28041143 Z M16.4048914,1.27821714 C16.7148343,1.27821714 16.9959771,1.33993143 17.3210057,1.48256 L17.3210057,1.48256 L17.1550629,1.97078857 C16.9191771,1.83364571 16.6599771,1.75684571 16.43232,1.75684571 C16.1662629,1.75684571 16.00032,1.87616 16.00032,2.07501714 C16.00032,2.18473143 16.0496914,2.25467429 16.1552914,2.31501714 C16.2430629,2.36438857 16.2430629,2.36438857 16.5982629,2.49741714 C17.1783771,2.70998857 17.37312,2.91433143 17.37312,3.29833143 C17.37312,3.84690286 16.94112,4.19661714 16.2718629,4.19661714 C15.9344914,4.19661714 15.6519771,4.13216 15.34752,3.97718857 L15.34752,3.97718857 L15.5189486,3.49033143 C15.81792,3.65353143 16.00992,3.71387429 16.2663771,3.71387429 C16.5598629,3.71387429 16.7312914,3.58358857 16.7312914,3.35867429 C16.7312914,3.25993143 16.69152,3.17216 16.6202057,3.12278857 C16.5488914,3.06793143 16.4762057,3.03913143 16.1662629,2.93078857 C15.8288914,2.80873143 15.7068343,2.74838857 15.5806629,2.63867429 C15.4407771,2.51250286 15.3639771,2.33284571 15.3639771,2.12301714 C15.3639771,1.60324571 15.7630629,1.27821714 16.4048914,1.27821714 Z M2.14765714,1.27972571 C2.50148571,1.27972571 2.77851429,1.41686857 2.91565714,1.67332571 C3.0048,1.83652571 3.03634286,2.05184 3.03634286,2.45229714 L3.03634286,2.45229714 L3.03634286,4.13778286 L2.39177143,4.13778286 L2.39177143,2.48658286 C2.39177143,2.23835429 2.37394286,2.11766857 2.33554286,2.01344 C2.2752,1.86121143 2.12982857,1.77206857 1.93234286,1.77206857 C1.67588571,1.77206857 1.42217143,1.93664 1.1904,2.24521143 L1.1904,2.24521143 L1.1904,4.13778286 L0.543085714,4.13778286 L0.542713869,2.17117828 C0.541154519,1.89054321 0.534269388,1.71858286 0.514285714,1.34006857 L0.514285714,1.34006857 L1.13005714,1.34006857 L1.14514286,1.75012571 C1.49348571,1.40041143 1.74994286,1.27972571 2.14765714,1.27972571 Z M9.45654857,0.340297143 L9.45654857,0.879268571 L7.87254857,0.879268571 L7.87254857,1.94212571 L9.37700571,1.94212571 L9.37700571,2.48109714 L7.87254857,2.48109714 L7.87254857,4.13778286 L7.20329143,4.13778286 L7.20329143,0.340297143 L9.45654857,0.340297143 Z M11.53536,1.29481143 C11.6245029,1.29481143 11.6807314,1.30166857 11.7835886,1.32772571 L11.7835886,1.32772571 L11.74656,1.89138286 C11.6450743,1.87629714 11.6011886,1.87081143 11.52576,1.87081143 C11.2034743,1.87081143 10.94976,2.10121143 10.8290743,2.51264 L10.8290743,2.51264 L10.8290743,4.13778286 L10.1845029,4.13778286 L10.1845029,2.39332571 C10.1845029,2.19584 10.1790171,1.84201143 10.16256,1.34006857 L10.16256,1.34006857 L10.7728457,1.34006857 L10.7879314,1.86532571 C10.9552457,1.48132571 11.2034743,1.29481143 11.53536,1.29481143 Z M5.10061714,1.76726857 C4.66038857,1.76726857 4.38747429,2.13481143 4.38747429,2.72726857 C4.38747429,3.34166857 4.65353143,3.70784 5.10061714,3.70784 C5.54358857,3.70784 5.81513143,3.34166857 5.81513143,2.73824 C5.81513143,2.13481143 5.54358857,1.76726857 5.10061714,1.76726857 Z M13.4725029,1.76726857 C13.0295314,1.76726857 12.7579886,2.13481143 12.7579886,2.72726857 C12.7579886,3.34166857 13.0240457,3.70784 13.4725029,3.70784 C13.9141029,3.70784 14.1856457,3.34166857 14.1856457,2.73824 C14.1856457,2.13481143 13.9141029,1.76726857 13.4725029,1.76726857 Z" transform="translate(5 36.68)"/>
  </g>
</svg>
