<svg xmlns="http://www.w3.org/2000/svg" width="48" height="48" viewBox="0 0 48 48">
  <g fill="none" fill-rule="evenodd">
    <polygon fill="#AF235F" points="0 48 48 48 48 0 0 0"/>
    <path fill="#FFF" d="M9.73793103,37.2385655 C10.4926897,37.2385655 10.9942069,37.8377379 10.9942069,38.7464276 C10.9942069,39.6385655 10.5108966,40.2228414 9.77268966,40.2228414 C9.4217931,40.2228414 9.15531034,40.0953931 8.93848276,39.8256 L8.93848276,39.8256 L8.93848276,41.1149793 L8,41.1149793 L8,37.3097379 L8.89875862,37.3097379 L8.89875862,37.6407724 C9.10068966,37.3709793 9.37710345,37.2385655 9.73793103,37.2385655 Z M12.7096276,37.2273103 C13.5984552,37.2273103 14.2092138,37.838069 14.2092138,38.7252414 C14.2092138,39.6223448 13.5984552,40.238069 12.6980414,40.238069 C11.7976276,40.238069 11.1802483,39.6273103 11.1802483,38.7302069 C11.1802483,37.8446897 11.8025931,37.2273103 12.7096276,37.2273103 Z M20.470731,37.238069 C21.4174897,37.238069 21.9934897,37.8604138 21.9934897,38.8733793 L21.9934897,38.8733793 L21.9934897,38.9561379 L19.8599724,38.9561379 C19.8715586,39.3748966 20.114869,39.6182069 20.5170759,39.6182069 C20.7769379,39.6182069 20.9325241,39.5056552 21.0550069,39.2855172 L21.0550069,39.2855172 L21.938869,39.2855172 C21.7551448,39.9045517 21.2271448,40.2388966 20.5054897,40.2388966 C19.6100414,40.2388966 18.9380414,39.6827586 18.9380414,38.7641379 C18.9380414,37.8653793 19.5703172,37.238069 20.470731,37.238069 Z M30.2537931,37.2273103 C31.1426207,37.2273103 31.7533793,37.838069 31.7533793,38.7252414 C31.7533793,39.6223448 31.1426207,40.238069 30.2422069,40.238069 C29.3417931,40.238069 28.7244138,39.6273103 28.7244138,38.7302069 C28.7244138,37.8446897 29.3467586,37.2273103 30.2537931,37.2273103 Z M33.6530207,37.2273103 C34.5418483,37.2273103 35.1526069,37.838069 35.1526069,38.7252414 C35.1526069,39.6223448 34.5418483,40.238069 33.6414345,40.238069 C32.7410207,40.238069 32.1236414,39.6273103 32.1236414,38.7302069 C32.1236414,37.8446897 32.7459862,37.2273103 33.6530207,37.2273103 Z M36.8854069,37.2278069 C37.5458207,37.2278069 38.1516138,37.4413241 38.1847172,38.1414621 L38.1847172,38.1414621 L37.3190621,38.1414621 C37.2793379,37.8882207 37.1237517,37.8104276 36.8556138,37.8104276 C36.6123034,37.8104276 36.4798897,37.8931862 36.4798897,38.0421517 C36.4798897,38.2358069 36.7083034,38.2573241 36.8523034,38.2904276 C37.145269,38.3500138 37.4349241,38.4046345 37.7179586,38.5056 C38.0920276,38.6363586 38.269131,38.879669 38.269131,39.2471172 C38.269131,39.8578759 37.7527172,40.2286345 36.8903724,40.2286345 C36.2018207,40.2286345 35.5347862,40.0018759 35.4950621,39.215669 L35.4950621,39.215669 L36.3905103,39.215669 C36.4120276,39.523531 36.6123034,39.6178759 36.9135448,39.6178759 C37.1800276,39.6178759 37.3455448,39.5053241 37.3455448,39.3249103 C37.3455448,39.1709793 37.2462345,39.1097379 36.8622345,39.0269793 C36.5080276,38.9558069 36.2961655,38.9011862 36.1124414,38.8399448 C35.7466483,38.7141517 35.5513379,38.467531 35.5513379,38.1149793 C35.5513379,37.5406345 36.0247172,37.2278069 36.8854069,37.2278069 Z M40.020469,36.4391172 L40.020469,37.3097379 L40.6080552,37.3097379 L40.6080552,37.915531 L40.020469,37.915531 L40.020469,39.0890483 C40.020469,39.3522207 40.0287448,39.4846345 40.3581241,39.4846345 C40.4408828,39.4846345 40.5236414,39.4846345 40.6080552,39.4730483 L40.6080552,39.4730483 L40.6080552,40.1616 C40.3465379,40.1831172 40.2290207,40.1897379 40.068469,40.1897379 C39.3087448,40.1897379 39.0737103,39.9629793 39.0737103,39.2313931 L39.0737103,39.2313931 L39.0737103,37.915531 L38.6019862,37.915531 L38.6019862,37.3097379 L39.0737103,37.3097379 L39.0737103,36.4391172 L40.020469,36.4391172 Z M15.3183448,37.3094069 L15.7801379,39.1714759 L16.2137931,37.3094069 L17.096,37.3094069 L17.5246897,39.1648552 L18.0030345,37.3094069 L18.9630345,37.3094069 L18.0642759,40.1513379 L17.1075862,40.1513379 L16.6358621,38.2512 L16.1972414,40.1513379 L15.2355862,40.1513379 L14.3351724,37.3094069 L15.3183448,37.3094069 Z M24.2824276,37.2448552 C24.3883586,37.2448552 24.4264276,37.2498207 24.5273931,37.2729931 L24.5273931,37.2729931 L24.5273931,38.1072 C24.3486345,38.0641655 24.2642207,38.0525793 24.1549793,38.0525793 C23.6600828,38.0525793 23.4432552,38.3670621 23.4432552,38.8586483 L23.4432552,38.8586483 L23.4432552,40.1513379 L22.5047724,40.1513379 L22.5047724,37.3094069 L23.403531,37.3094069 L23.3985655,37.7943724 C23.5922207,37.4302345 23.8471172,37.2448552 24.2824276,37.2448552 Z M26.8646621,36.2310621 C27.5482483,36.2310621 28.1424552,36.489269 28.1424552,37.2158897 C28.1424552,37.6065103 27.958731,37.833269 27.6260414,38.0087172 C28.0977655,38.1626483 28.3361103,38.4870621 28.3361103,38.9720276 C28.3361103,39.3361655 28.2036966,39.6390621 27.9471448,39.8542345 C27.6094897,40.1389241 27.2254897,40.1505103 26.7984552,40.1505103 L26.7984552,40.1505103 L24.8751448,40.1505103 L24.8751448,36.2310621 Z M12.6864552,37.9208276 C12.3305931,37.9208276 12.1253517,38.2171034 12.1253517,38.7302069 C12.1253517,39.2582069 12.3305931,39.5561379 12.6980414,39.5561379 C13.058869,39.5561379 13.2641103,39.2532414 13.2641103,38.7252414 C13.2641103,38.2121379 13.058869,37.9208276 12.6864552,37.9208276 Z M30.2306207,37.9208276 C29.8747586,37.9208276 29.6695172,38.2171034 29.6695172,38.7302069 C29.6695172,39.2582069 29.8747586,39.5561379 30.2422069,39.5561379 C30.6030345,39.5561379 30.8082759,39.2532414 30.8082759,38.7252414 C30.8082759,38.2121379 30.6030345,37.9208276 30.2306207,37.9208276 Z M33.6298483,37.9208276 C33.2739862,37.9208276 33.0687448,38.2171034 33.0687448,38.7302069 C33.0687448,39.2582069 33.2739862,39.5561379 33.6414345,39.5561379 C34.0022621,39.5561379 34.2091586,39.2532414 34.2091586,38.7252414 C34.2091586,38.2121379 34.0022621,37.9208276 33.6298483,37.9208276 Z M9.46482759,37.9817379 C9.12055172,37.9817379 8.90372414,38.2730483 8.90372414,38.7414621 C8.90372414,39.2264276 9.11558621,39.5011862 9.48303448,39.5011862 C9.84386207,39.5011862 10.0491034,39.2313931 10.0491034,38.7580138 C10.0491034,38.251531 9.84386207,37.9817379 9.46482759,37.9817379 Z M26.6743172,38.4440276 L25.8864552,38.4440276 L25.8864552,39.341131 L26.7024552,39.341131 C27.0136276,39.341131 27.2916966,39.2815448 27.2916966,38.8942345 C27.2916966,38.5152 26.998731,38.4440276 26.6743172,38.4440276 L26.6743172,38.4440276 Z M20.4773517,37.8653793 C20.1380414,37.8653793 19.9261793,38.064 19.8715586,38.4215172 L19.8715586,38.4215172 L21.0665931,38.4215172 C21.0384552,38.0971034 20.8381793,37.8653793 20.4773517,37.8653793 Z M26.5981793,37.0123034 L25.8864552,37.0123034 L25.8864552,37.7720276 L26.6246621,37.7720276 C26.9755586,37.7720276 27.1377655,37.6561655 27.1377655,37.3913379 C27.1377655,37.0669241 26.8745931,37.0123034 26.5981793,37.0123034 L26.5981793,37.0123034 Z"/>
    <path stroke="#FFF" stroke-linecap="round" stroke-linejoin="round" stroke-width=".85" d="M29.0057931,21.3136552 L33.4548966,26.2758621 L29.0057931,30.8954483 M33.8273103,21.3136552 L38.278069,26.2758621 L33.8273103,30.8954483 M25.2849655,30.7415172 C25.1028966,30.7497931 24.9175172,30.7547586 24.7321379,30.7547586 C17.8962759,30.7547586 12.3531034,25.2115862 12.3531034,18.3773793 C12.3531034,11.5415172 17.8962759,6 24.7321379,6 C31.3462069,6 36.7503448,11.1889655 37.0929655,17.7169655"/>
    <polygon fill="#FFF" points="20.861 19.077 23.655 13.249 28.635 11.938 26.051 16.682 29.006 16.92 22.216 24.986 23.175 19.636 20.589 19.721"/>
  </g>
</svg>
