<svg xmlns="http://www.w3.org/2000/svg" width="137" height="48" viewBox="0 0 137 48">
  <path fill="#00B2B2" d="M88.336,42.051 C89.0144067,42.025171 89.671078,42.2927486 90.1382308,42.785365 C90.6053837,43.2779815 90.837765,43.9479173 90.776,44.624 C90.824565,45.5340032 90.3666977,46.3964539 89.5857125,46.8660564 C88.8047273,47.335659 87.8282727,47.335659 87.0472875,46.8660564 C86.2663023,46.3964539 85.808435,45.5340032 85.857,44.624 C85.7940553,43.9408347 86.03151,43.2640934 86.5075183,42.7700357 C86.9835265,42.2759779 87.650966,42.0135127 88.336,42.051 Z M82.623,40.344 L82.623,47.064 L81.616,47.064 L81.616,46.426 C81.2849907,46.9677334 80.6739923,47.2732326 80.042,47.213 C78.689,47.213 77.847,46.19 77.847,44.616 C77.847,43.043 78.704,42.059 80.057,42.059 C80.6847865,42.0203259 81.2852674,42.3205663 81.631,42.846 L81.631,40.344 L82.623,40.344 L82.623,40.344 Z M76.933,42.193 L76.894,47.063 L75.887,47.063 L75.887,46.34 C75.5463128,46.8791453 74.9507336,47.2034219 74.313,47.197 C73.8445274,47.2264169 73.3873714,47.045214 73.0662683,46.7028331 C72.7451653,46.3604521 72.5936266,45.8926251 72.653,45.427 L72.653,42.2 L73.731,42.2 L73.731,44.985 C73.731,45.693 73.731,46.299 74.683,46.299 C75.635,46.299 75.856,45.583 75.856,44.781 L75.856,42.191 L76.934,42.191 L76.933,42.193 Z M48.386,42.003 C49.503,42.003 50.424,42.46 50.424,43.578 L49.393,43.609 C49.314,43.011 48.913,42.822 48.338,42.822 C47.764,42.822 47.473,43.027 47.473,43.389 C47.473,43.877 47.937,43.916 48.716,44.097 C49.496,44.278 50.605,44.514 50.605,45.584 C50.605,46.654 49.818,47.158 48.48,47.158 C47.142,47.158 46.348,46.576 46.292,45.458 L47.323,45.458 C47.378,46.104 47.835,46.371 48.503,46.371 C49.173,46.371 49.55,46.096 49.55,45.663 C49.55,45.23 49,45.089 48.386,44.939 C47.268,44.664 46.395,44.522 46.395,43.475 C46.395,42.547 47.142,42.004 48.385,42.004 L48.386,42.003 Z M66.374,42.003 C67.491,42.003 68.412,42.46 68.412,43.578 L67.412,43.609 C67.334,43.011 66.932,42.822 66.358,42.822 C65.784,42.822 65.492,43.027 65.492,43.389 C65.492,43.877 65.957,43.916 66.736,44.097 C67.515,44.278 68.624,44.514 68.624,45.584 C68.624,46.654 67.837,47.158 66.5,47.158 C65.162,47.158 64.367,46.576 64.312,45.458 L65.312,45.458 C65.367,46.104 65.823,46.371 66.492,46.371 C67.161,46.371 67.538,46.096 67.538,45.663 C67.538,45.23 66.988,45.089 66.374,44.939 C65.256,44.664 64.383,44.522 64.383,43.475 C64.383,42.547 65.13,42.004 66.373,42.004 L66.374,42.003 Z M60.373,42.521 C60.674,42.822 60.831,43.239 60.803,43.664 L60.803,47.119 L59.748,47.119 L59.748,44.066 C59.748,43.468 59.622,42.964 58.883,42.964 C58.143,42.964 57.82,43.436 57.82,44.199 L57.82,47.056 L56.734,47.056 L56.734,44.01 C56.734,43.428 56.648,42.964 55.948,42.964 C55.248,42.964 54.83,43.499 54.83,44.254 L54.83,47.056 L53.744,47.056 L53.744,42.193 L54.767,42.193 L54.767,42.877 C55.1073526,42.3701551 55.6837164,42.0731032 56.294,42.09 C56.8786011,42.052499 57.4235724,42.3868494 57.655,42.925 C58,42.393 58.595,42.078 59.229,42.09 C59.6544719,42.061842 60.0714154,42.2185603 60.373,42.52 L60.373,42.521 Z M70.883,40.729 L70.883,42.193 L71.866,42.193 L71.858,42.972 L70.875,42.972 L70.875,45.537 C70.875,46.001 70.875,46.237 71.433,46.237 C71.575,46.247 71.717,46.247 71.858,46.237 L71.858,47.087 C71.6169812,47.1044256 71.3750188,47.1044256 71.134,47.087 C69.774,47.087 69.8,46.435 69.804,45.407 L69.804,42.917 L69.018,42.917 L69.018,42.13 L69.805,42.13 L69.805,40.73 L70.883,40.73 L70.883,40.729 Z M84.913,42.193 L84.913,47.063 L83.835,47.063 L83.835,42.193 L84.913,42.193 Z M52.563,42.193 L52.563,47.063 L51.486,47.063 L51.486,42.193 L52.564,42.193 L52.563,42.193 Z M135.517,42.059 L135.517,46.828 L92.907,46.828 L92.907,42.059 L135.517,42.059 Z M44.184,42.059 L44.184,46.828 L1.574,46.828 L1.574,42.059 L44.184,42.059 Z M88.336,42.901 C87.486,42.901 86.943,43.562 86.943,44.624 C86.943,45.718 87.463,46.371 88.328,46.371 C89.193,46.371 89.705,45.711 89.705,44.616 C89.705,43.523 89.185,42.901 88.335,42.901 L88.336,42.901 Z M80.216,42.925 C79.35,42.925 78.932,43.562 78.932,44.601 L78.893,44.601 C78.893,45.663 79.413,46.324 80.254,46.324 C81.096,46.324 81.592,45.694 81.592,44.616 C81.592,43.538 81.081,42.925 80.215,42.925 L80.216,42.925 Z M84.913,40.312 L84.913,41.374 L83.835,41.374 L83.835,40.312 L84.913,40.312 Z M52.563,40.312 L52.563,41.374 L51.486,41.374 L51.486,40.312 L52.563,40.312 Z M125.836873,16.4344068 L125.849979,16.4537924 C125.867789,16.4776271 125.898297,16.5157627 125.928806,16.5767797 L125.928806,16.5767797 L129.995789,21.7843729 L130.03577,21.8653861 C130.099969,22.0005085 130.145619,22.1361017 130.077145,22.2716949 L130.077145,22.2716949 L130.03012,22.3463315 C129.941777,22.4595141 129.806636,22.5165763 129.670365,22.5165763 L129.670365,22.5165763 L129.426297,22.5165763 L129.345378,22.5232957 C129.211856,22.5457062 129.088128,22.6242373 129.020331,22.7598305 L129.020331,22.7598305 L128.990682,22.8295642 C128.942296,22.9690315 128.96222,23.1084988 129.101687,23.2479661 L129.101687,23.2479661 L133.250839,28.129322 L133.290478,28.2109567 C133.354207,28.3468136 133.399856,28.4817288 133.331382,28.6166441 L133.331382,28.6166441 L133.284583,28.6916234 C133.196354,28.8052768 133.060195,28.862339 132.924602,28.862339 L132.924602,28.862339 L132.030501,28.862339 L131.949465,28.8690621 C131.815585,28.8914915 131.690839,28.9701356 131.623721,29.1064068 L131.623721,29.1064068 L131.59407,29.1757965 C131.545669,29.3145949 131.565493,29.4535642 131.704263,29.5937288 L131.704263,29.5937288 L135.610162,34.6377966 L135.649863,34.7354953 C135.691517,34.865821 135.691517,34.9962508 135.691517,35.1251186 L135.691517,35.1251186 L135.644436,35.2000377 C135.555924,35.3135028 135.420331,35.37 135.284738,35.37 L135.284738,35.37 L116.246636,35.37 L116.166,35.3632166 C116.03276,35.3405989 115.908467,35.2613898 115.84067,35.1251186 L115.84067,35.1251186 L115.811021,35.0559424 C115.762635,34.917329 115.782559,34.7772639 115.922026,34.6377966 L115.922026,34.6377966 L119.826297,29.5937288 L119.865999,29.4957958 C119.907653,29.3654441 119.907653,29.2359254 119.907653,29.1064068 L119.907653,29.1064068 L119.860632,29.031548 C119.772308,28.9182712 119.63728,28.862339 119.501687,28.862339 L119.501687,28.862339 L118.606772,28.862339 L118.52545,28.8554953 C118.391269,28.8326893 118.266975,28.7529153 118.199178,28.6166441 L118.199178,28.6166441 L118.169829,28.5472543 C118.12194,28.4084559 118.141764,28.2694867 118.280534,28.129322 L118.280534,28.129322 L122.430501,23.2479661 L122.470425,23.1666102 C122.534455,23.0310169 122.579653,22.8954237 122.511856,22.7598305 L122.511856,22.7598305 L122.464772,22.6853145 C122.376241,22.5725085 122.240534,22.5165763 122.104263,22.5165763 L122.104263,22.5165763 L121.860195,22.5165763 L121.779502,22.5097363 C121.646094,22.4869492 121.521348,22.4072881 121.454229,22.2716949 L121.454229,22.2716949 L121.424578,22.2019636 C121.376177,22.0625105 121.396002,21.9231429 121.534772,21.7843729 L121.534772,21.7843729 L125.602568,16.5767797 C125.660331,16.5198305 125.756331,16.4628814 125.836873,16.4344068 L125.836873,16.4344068 Z M129.101687,30.4072881 L128.944829,30.4133085 C127.963924,30.4890508 127.229687,31.269661 127.229687,32.1971186 C127.229687,33.1733898 128.043246,33.9869492 129.101687,33.9869492 L129.101687,33.9869492 L129.258429,33.9809288 C130.238636,33.9051864 130.972873,33.1245763 130.972873,32.1971186 L130.972873,32.1971186 L130.966843,32.0519797 C130.890907,31.1415254 130.106433,30.4072881 129.101687,30.4072881 L129.101687,30.4072881 Z M9.176,14.392 C12.946,14.392 15.928,16.084 16.086,20.207 L13,20.215 C12.819,17.902 11.245,16.973 8.97,16.973 C6.697,16.973 5.438,17.933 5.438,19.546 C5.438,21.309 6.578,21.419 10.159,22.348 C13.307,23.134 16.832,23.921 16.832,27.856 C16.832,32.034 13.118,33.647 9.482,33.647 C5.092,33.647 1.692,31.57 1.692,27.1 L4.872,27.1 C4.872,29.957 7.027,31.035 9.648,31.035 C12.142,31.035 13.582,29.941 13.582,28.123 C13.582,26.306 12.032,25.967 9.309,25.228 C5.375,24.212 2.345,23.568 2.345,19.798 C2.345,16.501 5.021,14.392 9.175,14.392 L9.176,14.392 Z M107.75,14.322 C111.519,14.322 114.501,16.013 114.658,20.136 L111.598,20.216 C111.393,17.902 109.858,16.966 107.568,16.966 C105.278,16.966 104.035,17.926 104.035,19.538 C104.035,21.301 105.176,21.411 108.757,22.34 C111.904,23.127 115.43,23.913 115.43,27.848 C115.43,32.026 111.715,33.639 108.08,33.639 C103.69,33.639 100.29,31.562 100.29,27.092 L103.485,27.092 C103.485,29.949 105.641,31.027 108.261,31.027 C110.755,31.027 112.195,29.933 112.195,28.115 C112.195,26.298 110.622,25.857 107.883,25.157 C103.949,24.142 100.919,23.497 100.919,19.727 C100.919,16.43 103.595,14.321 107.749,14.321 L107.75,14.322 Z M22.923,14.762 L22.915,33.254 L19.65,33.254 L19.65,14.762 L22.923,14.762 Z M86,14.762 L94.522,28.399 L94.522,14.762 L97.67,14.762 L97.63,33.254 L94.278,33.254 L85.654,19.672 L85.654,33.254 L82.593,33.254 L82.593,14.762 L86,14.762 Z M47.749,14.762 L52.919,29.225 L57.909,14.762 L62.393,14.762 L62.393,33.254 L59.325,33.254 L59.325,18.995 L54.186,33.254 L51.534,33.254 L46.262,18.995 L46.262,33.254 L43.202,33.254 L43.202,14.762 L47.749,14.762 Z M40.132,14.762 L40.132,17.492 L30.037,17.492 L30.037,22.402 L39.409,22.402 L39.409,25.023 L30.037,25.023 L30.037,30.476 L40.267,30.476 L40.267,33.254 L26.81,33.254 L26.81,14.762 L40.132,14.762 Z M79.579,14.762 L79.579,17.492 L69.475,17.492 L69.475,22.402 L78.847,22.402 L78.847,25.023 L69.475,25.023 L69.475,30.476 L79.705,30.476 L79.705,33.254 L66.257,33.254 L66.257,14.762 L79.579,14.762 Z M122.023721,29.5937288 L121.883847,29.5997306 C121.053676,29.6712536 120.395789,30.373033 120.395789,31.2208475 C120.395789,32.1157627 121.128806,32.8479661 122.023721,32.8479661 L122.023721,32.8479661 L122.163473,32.8419643 C122.992952,32.7704413 123.650839,32.0686619 123.650839,31.2208475 L123.650839,31.2208475 L123.657012,31.0879017 C123.658365,30.2545424 122.951178,29.5937288 122.023721,29.5937288 L122.023721,29.5937288 Z M128.450839,25.9327119 L128.32246,25.9385407 C127.643597,26.0002739 127.067789,26.5452742 127.067789,27.2344068 C127.067789,27.9666102 127.63728,28.5361017 128.450839,28.5361017 L128.450839,28.5361017 L128.578964,28.5302728 C129.25664,28.4685397 129.83389,27.9235394 129.83389,27.2344068 L129.83389,27.2344068 L129.827242,27.1196838 C129.756948,26.5092411 129.139206,25.9327119 128.450839,25.9327119 L128.450839,25.9327119 Z M124.301687,24.0615254 L124.143509,24.0670018 C122.99138,24.1468799 122.023721,25.0908548 122.023721,26.2581356 C122.023721,27.4784746 122.999992,28.4547458 124.301687,28.4547458 L124.301687,28.4547458 L124.469473,28.4492694 C125.685616,28.3693912 126.578839,27.4254164 126.578839,26.2581356 L126.578839,26.2581356 L126.572915,26.1004053 C126.486566,24.954749 125.46819,24.0615254 124.301687,24.0615254 L124.301687,24.0615254 Z M125.359314,19.3428814 L125.231062,19.3487102 C124.552792,19.4104434 123.976263,19.9554437 123.976263,20.6445763 C123.976263,21.3767797 124.627111,21.9462712 125.359314,21.9462712 L125.359314,21.9462712 L125.487566,21.9404423 C126.165836,21.8787092 126.742365,21.3337089 126.742365,20.6445763 L126.742365,20.6445763 L126.735725,20.5171358 C126.665513,19.8473444 126.048447,19.3428814 125.359314,19.3428814 L125.359314,19.3428814 Z M125.602568,11.37 C125.76528,11.37 125.84745,11.4513559 125.928806,11.6140678 L125.928806,11.6140678 L126.334772,12.7530508 L126.375887,12.8276271 C126.445755,12.9406215 126.525416,12.9971186 126.661009,12.9971186 L126.661009,12.9971186 L127.881348,13.0784746 L127.956018,13.0852542 C128.070614,13.1078531 128.138975,13.1869492 128.206772,13.3225424 L128.206772,13.3225424 L128.232151,13.3920815 C128.264883,13.5302823 128.195149,13.6602857 128.125416,13.729322 L128.125416,13.729322 L127.229687,14.5428814 L127.189985,14.5923458 C127.148331,14.6600339 127.148331,14.7381356 127.148331,14.8683051 L127.148331,14.8683051 L127.393212,16.0072881 L127.392736,16.0767846 C127.389875,16.2148288 127.369852,16.3443341 127.229687,16.4140678 L127.229687,16.4140678 L127.182666,16.4479661 C127.094342,16.4931638 126.959314,16.4818644 126.823721,16.4140678 L126.823721,16.4140678 L125.76528,15.8445763 L125.684361,15.810678 C125.550839,15.7654802 125.427111,15.7767797 125.359314,15.8445763 L125.359314,15.8445763 L124.301687,16.4140678 L124.21213,16.4531186 C124.102397,16.4921695 124.024426,16.4791525 123.894907,16.4140678 L123.894907,16.4140678 L123.834661,16.3744572 C123.732195,16.2862228 123.732195,16.1467554 123.732195,16.0072881 L123.732195,16.0072881 L123.976263,14.8683051 L124.003853,14.8216008 C124.029936,14.7349718 123.962704,14.610678 123.894907,14.5428814 L123.894907,14.5428814 L122.999992,13.729322 L122.965341,13.6899676 C122.898098,13.6020747 122.848786,13.4620097 122.917823,13.3225424 L122.917823,13.3225424 L122.95922,13.2479661 C123.029371,13.1349718 123.108467,13.0784746 123.24406,13.0784746 L123.24406,13.0784746 L124.464399,12.9971186 L124.539352,12.990339 C124.654229,12.9677401 124.722026,12.8886441 124.789823,12.7530508 L124.789823,12.7530508 L125.277958,11.6140678 L125.287443,11.5493151 C125.324431,11.4297717 125.463798,11.37 125.602568,11.37 Z M13.472,1.621 L13.472,6.106 L15.44,6.106 L15.44,1.621 L16.07,1.621 L16.07,6.091 L16.526,6.091 L16.463,7.869 L15.896,7.869 L15.896,6.64 L12.836,6.64 L12.836,1.62 L13.472,1.62 L13.472,1.621 Z M3.149,1.661 C3.331,1.73 3.495,1.841 3.629,1.983 C3.76598501,2.13587839 3.87013398,2.31524607 3.935,2.51 C4.013,2.744 4.055,2.988 4.061,3.234 L3.416,3.234 C3.40637444,3.06150002 3.37991538,2.89035342 3.337,2.723 C3.30052983,2.59043868 3.23646419,2.46707824 3.149,2.361 C3.07669258,2.26951821 2.98147159,2.19879247 2.873,2.156 C2.74770156,2.10767858 2.61427697,2.08391338 2.48,2.086 C2.31315731,2.08030804 2.14771417,2.11822209 2,2.196 C1.86582102,2.27189478 1.75246431,2.37975541 1.67,2.51 C1.574,2.662 1.508,2.83 1.472,3.006 C1.42796615,3.2181097 1.40717678,3.43438621 1.41,3.651 L1.41,4.595 C1.409,4.801 1.427,5.007 1.465,5.209 C1.495,5.385 1.553,5.555 1.638,5.713 C1.78933393,6.00608615 2.0952853,6.18646917 2.425,6.177 C2.574,6.181 2.723,6.16 2.865,6.114 C2.97626267,6.07272656 3.07436206,6.00226081 3.149,5.91 C3.2302544,5.80767623 3.28918528,5.68947382 3.322,5.563 C3.366,5.396 3.395,5.225 3.408,5.052 L4.053,5.052 C4.04681285,5.28710817 4.00707832,5.52012761 3.935,5.744 C3.868809,5.94880617 3.7589458,6.1368019 3.613,6.295 C3.482,6.429 3.323,6.534 3.149,6.602 C2.929,6.68 2.697,6.717 2.464,6.712 C1.98902617,6.71575549 1.53775687,6.50482017 1.236,6.138 C1.08906255,5.94951933 0.977277729,5.73611195 0.906,5.508 C0.820865867,5.21135539 0.78108272,4.90354172 0.788,4.595 L0.788,3.667 C0.785,3.372 0.825,3.077 0.906,2.793 C0.972,2.551 1.084,2.324 1.236,2.125 C1.379,1.943 1.563,1.798 1.771,1.7 C2.001,1.604 2.248,1.56 2.495,1.574 C2.717,1.561 2.938,1.591 3.149,1.66 L3.149,1.661 Z M48.151,1.574 C48.391,1.569 48.629,1.614 48.851,1.708 C49.059955,1.79877275 49.243601,1.93916753 49.386,2.117 C49.542,2.315 49.657,2.542 49.724,2.786 C49.808,3.091 49.847,3.406 49.842,3.722 L49.842,4.572 C49.847,4.888 49.808,5.203 49.724,5.508 C49.65738,5.75142663 49.5424291,5.97894775 49.386,6.177 C49.2457676,6.35175029 49.0648149,6.48943914 48.859,6.578 C48.637,6.671 48.399,6.716 48.159,6.712 C47.9211897,6.71607192 47.6851503,6.67043083 47.466,6.578 C47.2583695,6.48868665 47.0749816,6.35123147 46.931,6.177 C46.7717202,5.97962235 46.6540254,5.75205629 46.585,5.508 C46.4862381,5.20555428 46.4329893,4.89010606 46.427,4.572 L46.427,3.698 C46.4227382,3.38150118 46.4651954,3.06610526 46.553,2.762 C46.624,2.519 46.742,2.292 46.899,2.093 C47.0412817,1.91480248 47.2249376,1.77405685 47.434,1.683 C47.662,1.596 47.907,1.558 48.151,1.573 L48.151,1.574 Z M79.665,1.621 L80.979,5.721 L82.293,1.621 L83.08,1.621 L83.08,6.641 L82.45,6.641 L82.45,4.721 L82.514,2.762 L81.2,6.696 L80.72,6.696 L79.413,2.762 L79.476,4.722 L79.476,6.642 L78.846,6.642 L78.846,1.62 L79.666,1.62 L79.665,1.621 Z M119.364,1.613 L118.034,4.108 L119.371,6.641 L118.585,6.641 L117.68,4.721 L116.712,6.681 L115.925,6.681 L117.271,4.147 L115.988,1.621 L116.728,1.621 L117.68,3.541 L118.624,1.613 L119.364,1.613 L119.364,1.613 Z M35.858,1.54997657 C36.069,1.549 36.279,1.58 36.48,1.645 C36.656,1.701 36.817,1.795 36.952,1.92 C37.084,2.045 37.186,2.199 37.252,2.369 C37.327,2.564 37.364,2.773 37.362,2.982 C37.364,3.208 37.302,3.429 37.18,3.62 C37.0552258,3.81146662 36.8815743,3.96613035 36.677,4.068 C36.905,4.153 37.1,4.307 37.235,4.508 C37.372,4.731 37.441,4.988 37.432,5.248 C37.436,5.464 37.396,5.678 37.314,5.878 C37.234,6.038 37.122,6.181 36.984,6.295 C36.8390917,6.42132302 36.67048,6.51752689 36.488,6.578 C36.1072357,6.70190673 35.6974189,6.70470172 35.315,6.586 C34.9492656,6.47767362 34.6481453,6.21665408 34.489,5.87 C34.3972397,5.6622442 34.3515268,5.43709111 34.355,5.21 L34.985,5.21 C34.9840896,5.45082464 35.0675944,5.68435499 35.221,5.87 C35.3835636,6.04453072 35.6125205,6.14192826 35.851,6.138 C35.9852747,6.13897029 36.1185529,6.11489205 36.244,6.067 C36.4652781,5.98576 36.6384902,5.8096121 36.716,5.587 C36.759,5.468 36.78,5.343 36.779,5.217 C36.8003381,4.96703951 36.7178828,4.71931178 36.551,4.532 C36.3993468,4.40185551 36.2094411,4.32462952 36.01,4.312 L35.41,4.312 L35.41,3.81 L35.913,3.81 C36.043,3.813 36.17,3.791 36.291,3.747 C36.3876048,3.70979499 36.4739798,3.6501551 36.543,3.573 C36.608803,3.49512499 36.657216,3.40409487 36.685,3.306 C36.7169614,3.19620584 36.7327936,3.08234884 36.732,2.968 C36.7337138,2.85326432 36.7178638,2.73894175 36.685,2.629 C36.6204266,2.41822941 36.4643062,2.24778265 36.26,2.165 C36.1347932,2.11511707 36.000727,2.09129821 35.866,2.095 C35.6505646,2.09145588 35.4430972,2.17639465 35.292,2.33 C35.1445207,2.49736369 35.0634167,2.71292961 35.064,2.936 L34.434,2.936 C34.4303523,2.73909913 34.4678168,2.54360227 34.544,2.362 C34.6852585,2.02554669 34.9631007,1.76516062 35.308,1.646 C35.484,1.582 35.671,1.54997657 35.858,1.551 L35.858,1.54997657 Z M96.417,1.54197657 C96.628,1.541 96.837,1.572 97.039,1.637 C97.214,1.693 97.375,1.787 97.511,1.912 C97.643,2.037 97.745,2.191 97.81,2.361 C97.885,2.556 97.923,2.765 97.92,2.974 C97.9230389,3.19974914 97.8601344,3.4214787 97.739,3.612 C97.6139512,3.80360115 97.4399407,3.95827714 97.235,4.06 C97.463,4.145 97.658,4.3 97.795,4.501 C97.931,4.723 98,4.981 97.991,5.241 C97.995,5.456 97.955,5.671 97.873,5.871 C97.803,6.031 97.702,6.175 97.573,6.295 C97.4283875,6.42120858 97.2601259,6.51740664 97.078,6.578 C96.6975435,6.70169502 96.2881097,6.70448979 95.906,6.586 C95.5402656,6.47767362 95.2391453,6.21665408 95.08,5.87 C94.9882397,5.6622442 94.9425268,5.43709111 94.946,5.21 L95.576,5.21 C95.5748084,5.45070063 95.6579544,5.68421718 95.811,5.87 C95.9729642,6.04538364 96.2023218,6.14295165 96.441,6.138 C96.575,6.139 96.709,6.115 96.834,6.067 C97.0552781,5.98576 97.2284902,5.8096121 97.306,5.587 C97.3492652,5.46850799 97.3706128,5.3431334 97.369,5.217 C97.3903381,4.96703951 97.3078828,4.71931178 97.141,4.532 C96.9584046,4.37418413 96.7207506,4.29508598 96.48,4.312 L96,4.312 L96,3.81 L96.464,3.81 C96.593,3.813 96.721,3.791 96.842,3.747 C96.9386048,3.70979499 97.0249798,3.6501551 97.094,3.573 C97.1594451,3.49503468 97.2075138,3.40401098 97.235,3.306 C97.2672996,3.19625574 97.2834688,3.08239776 97.283,2.968 C97.2845163,2.85320474 97.2683261,2.73886182 97.235,2.629 C97.2018394,2.52764285 97.148425,2.43408259 97.078,2.354 C97.0030272,2.27251901 96.9117045,2.20777532 96.81,2.164 C96.6850358,2.11449143 96.5513732,2.09068383 96.417,2.094 C96.201417,2.09071842 95.993928,2.17602746 95.843,2.33 C95.6955207,2.49736369 95.6144167,2.71292961 95.615,2.936 L94.985,2.936 C94.981054,2.55127646 95.134604,2.18167237 95.41,1.913 C95.5428569,1.79280252 95.6976977,1.69942262 95.866,1.638 C96.043,1.574 96.229,1.54197657 96.417,1.543 L96.417,1.54197657 Z M52.249,1.621 C52.446,1.619 52.642,1.645 52.831,1.7 C52.992,1.747 53.141,1.83 53.264,1.944 C53.377,2.062 53.46,2.204 53.508,2.361 C53.575,2.555 53.608,2.761 53.603,2.967 C53.6135646,3.41274762 53.3563867,3.82155412 52.95,4.005 C53.1823032,4.0813197 53.3802467,4.23712492 53.509,4.445 C53.573,4.556 53.621,4.675 53.649,4.8 C53.682,4.934 53.699,5.071 53.697,5.21 C53.7,5.42 53.665,5.631 53.595,5.83 C53.4787613,6.17496115 53.2079611,6.44576134 52.863,6.562 C52.6759403,6.62703275 52.47903,6.65917447 52.281,6.657 L50.817,6.641 L50.817,1.621 L52.249,1.621 L52.249,1.621 Z M92.852,1.621 L94.473,6.649 L93.828,6.649 L93.443,5.335 L91.75,5.335 L91.356,6.649 L90.711,6.649 L92.332,1.621 L92.852,1.621 L92.852,1.621 Z M56.412,1.621 L58.032,6.649 L57.442,6.649 L57.018,5.335 L55.318,5.335 L54.925,6.649 L54.295,6.649 L55.869,1.621 L56.412,1.621 L56.412,1.621 Z M129.576,1.621 L129.576,3.832 L129.962,3.832 L131.41,1.621 L132.197,1.621 L130.623,4.052 L132.338,6.649 L131.551,6.649 L130.056,4.383 L129.576,4.383 L129.576,6.641 L128.946,6.641 L128.946,1.621 L129.576,1.621 Z M85.983,1.621 L87.603,6.649 L86.959,6.649 L86.557,5.335 L84.857,5.335 L84.464,6.649 L83.819,6.649 L85.44,1.621 L85.983,1.621 Z M120.787,1.621 L120.787,3.777 L122.809,3.777 L122.809,1.621 L123.447,1.621 L123.447,6.641 L122.809,6.641 L122.809,4.281 L120.787,4.281 L120.787,6.641 L120.157,6.641 L120.157,1.621 L120.787,1.621 Z M115.42,1.621 L115.42,2.164 L113.382,2.164 L113.382,3.777 L115.161,3.777 L115.161,4.32 L113.382,4.32 L113.382,6.098 L115.452,6.098 L115.452,6.641 L112.752,6.641 L112.752,1.621 L115.42,1.621 L115.42,1.621 Z M90.964,1.621 L90.964,2.164 L88.989,2.164 L88.989,6.64 L88.351,6.64 L88.351,1.62 L90.964,1.62 L90.964,1.621 Z M71.717,1.621 L71.717,6.641 L71.087,6.641 L71.087,1.621 L71.717,1.621 Z M63.737,1.621 L63.737,3.777 L65.784,3.777 L65.784,1.621 L66.421,1.621 L66.421,6.641 L65.784,6.641 L65.784,4.281 L63.738,4.281 L63.738,6.641 L63.108,6.641 L63.108,1.621 L63.738,1.621 L63.737,1.621 Z M11.961,1.621 L11.961,2.164 L9.923,2.164 L9.923,3.777 L11.7,3.777 L11.7,4.32 L9.923,4.32 L9.923,6.098 L11.993,6.098 L11.993,6.641 L9.293,6.641 L9.293,1.621 L11.961,1.621 L11.961,1.621 Z M112.013,1.621 L112.013,2.164 L110.691,2.164 L110.691,6.64 L110.061,6.64 L110.061,2.164 L108.74,2.164 L108.74,1.62 L112.013,1.62 L112.013,1.621 Z M8.176,1.621 L8.176,6.641 L7.538,6.641 L7.538,2.164 L5.571,2.164 L5.571,6.64 L4.941,6.64 L4.941,1.62 L8.176,1.62 L8.176,1.621 Z M26.494,1.605 L29.114,1.621 L29.114,6.641 L28.485,6.641 L28.485,2.164 L27.092,2.164 L27.045,3.934 C27.0410962,4.33173648 27.0123737,4.72884166 26.959,5.123 C26.934,5.423 26.865,5.717 26.754,5.996 C26.6689169,6.19315972 26.5299241,6.36230803 26.353,6.484 C26.17,6.594 25.96,6.649 25.747,6.641 L25.582,6.641 L25.582,6.098 L25.7,6.098 C25.823547,6.10290649 25.9443506,6.06073248 26.038,5.98 C26.1424472,5.87804296 26.2183074,5.7504598 26.258,5.61 C26.3243387,5.39535162 26.3665984,5.17399092 26.384,4.95 C26.41,4.682 26.429,4.354 26.439,3.966 L26.494,1.606 L26.494,1.605 Z M17.949,1.621 L17.949,5.508 L19.939,1.621 L20.569,1.621 L20.569,6.641 L19.939,6.641 L19.939,2.77 L17.99,6.64 L17.312,6.64 L17.312,1.62 L17.95,1.62 L17.949,1.621 Z M73.519,1.621 L73.519,5.508 L75.478,1.621 L76.108,1.621 L76.108,6.641 L75.478,6.641 L75.478,2.77 L73.518,6.641 L72.881,6.641 L72.881,1.621 L73.519,1.621 L73.519,1.621 Z M30.909,1.621 L30.909,5.508 L32.869,1.621 L33.498,1.621 L33.498,6.641 L32.868,6.641 L32.868,2.77 L30.908,6.641 L30.271,6.641 L30.271,1.621 L30.909,1.621 L30.909,1.621 Z M133.424231,1.37 L133.424231,5.257 L135.384231,1.37 L136.014231,1.37 L136.014231,6.39 L135.384231,6.39 L135.384231,2.519 L133.424231,6.39 L132.787231,6.39 L132.787231,1.37 L133.424231,1.37 Z M38.943,1.621 L38.943,5.508 L40.918,1.621 L41.548,1.621 L41.548,6.641 L40.918,6.641 L40.918,2.77 L38.943,6.64 L38.306,6.64 L38.306,1.62 L38.943,1.62 L38.943,1.621 Z M99.493,1.621 L99.493,5.508 L101.453,1.621 L102.083,1.621 L102.083,6.641 L101.453,6.641 L101.453,2.77 L99.493,6.641 L98.856,6.641 L98.856,1.621 L99.494,1.621 L99.493,1.621 Z M23.551,1.613 L25.181,6.641 L24.535,6.641 L24.102,5.335 L22.41,5.335 L22.033,6.641 L21.388,6.641 L23.008,1.613 L23.551,1.613 Z M44.223,1.621 C44.443,1.616 44.663,1.654 44.868,1.731 C45.048,1.802 45.208,1.912 45.34,2.054 C45.47,2.194 45.57,2.361 45.631,2.542 C45.697,2.74 45.729,2.947 45.726,3.155 C45.73,3.375 45.698,3.592 45.631,3.801 C45.5131359,4.17588564 45.2197355,4.46965937 44.845,4.588 C44.6373966,4.65994918 44.4186719,4.69448465 44.199,4.69 L43.279,4.674 L43.279,6.641 L42.649,6.641 L42.649,1.621 L44.223,1.621 L44.223,1.621 Z M125.201,1.621 L125.201,5.508 L127.161,1.621 L127.791,1.621 L127.791,6.641 L127.161,6.641 L127.161,2.77 L125.2,6.64 L124.563,6.64 L124.563,1.62 L125.2,1.62 L125.201,1.621 Z M103.869,1.621 L103.869,3.777 L105.891,3.777 L105.891,1.621 L106.529,1.621 L106.497,6.641 L105.86,6.641 L105.86,4.281 L103.869,4.281 L103.869,6.641 L103.239,6.641 L103.239,1.621 L103.869,1.621 L103.869,1.621 Z M59.379,1.621 L59.379,3.777 L61.377,3.777 L61.377,1.621 L62.014,1.621 L62.038,6.641 L61.377,6.641 L61.377,4.281 L59.378,4.281 L59.378,6.641 L58.748,6.641 L58.748,1.621 L59.378,1.621 L59.379,1.621 Z M68.176,1.621 L68.184,3.667 L69.191,3.667 C69.403,3.662 69.613,3.697 69.812,3.769 C69.985,3.834 70.141,3.936 70.269,4.069 C70.393,4.201 70.487,4.359 70.544,4.532 C70.61,4.728 70.642,4.932 70.639,5.138 C70.642,5.344 70.609,5.549 70.544,5.744 C70.4866305,5.91895958 70.392914,6.07981106 70.269,6.216 C70.141,6.351 69.985,6.456 69.812,6.523 C69.6142759,6.60024746 69.4032275,6.63763123 69.191,6.633 L67.546,6.633 L67.546,1.621 L68.176,1.621 Z M48.15,2.109 C47.9978913,2.10767332 47.8473466,2.13976222 47.709,2.203 C47.576004,2.26709839 47.4621994,2.36503931 47.379,2.487 C47.2776599,2.63430182 47.2053664,2.79959261 47.166,2.974 C47.1139347,3.2089795 47.0904313,3.44938588 47.096,3.69 L47.096,4.572 C47.092,4.812 47.118,5.053 47.174,5.288 C47.214,5.462 47.286,5.628 47.386,5.776 C47.472,5.899 47.589,5.996 47.725,6.059 C47.864,6.119 48.014,6.149 48.165,6.146 C48.3217937,6.1499121 48.4776111,6.12024883 48.622,6.059 C48.7563892,5.99752164 48.8707529,5.89944615 48.952,5.776 C49.048,5.626 49.114,5.461 49.149,5.288 C49.199,5.052 49.222,4.812 49.219,4.572 L49.212,3.69 C49.215,3.45 49.192,3.21 49.141,2.974 C49.1041977,2.80012614 49.0346255,2.6348497 48.936,2.487 C48.8548952,2.36318466 48.7405179,2.26475089 48.606,2.203 C48.462583,2.1390694 48.3070082,2.10699916 48.15,2.109 L48.15,2.109 Z M52.336,4.296 L51.446,4.296 L51.446,6.106 L52.312,6.106 C52.4252523,6.10899724 52.5378168,6.08750766 52.642,6.043 C52.7362567,6.00234971 52.8200355,5.94079791 52.887,5.863 C52.9559908,5.77965093 53.007054,5.68297129 53.037,5.579 C53.1035208,5.33236042 53.1090121,5.07323631 53.053,4.824 C53.0275633,4.72121562 52.9816469,4.62462112 52.918,4.54 C52.8557101,4.46112059 52.7745434,4.39921378 52.682,4.36 C52.5725307,4.31430267 52.4545724,4.2924838 52.336,4.296 L52.336,4.296 Z M68.184,4.21 L68.184,6.098 L69.191,6.098 C69.3188395,6.10245584 69.4458384,6.0756831 69.561,6.02 C69.6604094,5.96996263 69.7464553,5.89694359 69.812,5.807 C69.8773125,5.71691063 69.9254508,5.61554888 69.954,5.508 C69.997,5.389 70.024,5.265 70.033,5.138 C70.033,5.018 70.017,4.9 69.986,4.784 C69.9568219,4.67791057 69.9057224,4.57911825 69.836,4.494 C69.7688382,4.40900214 69.6824747,4.34114514 69.584,4.296 C69.4672275,4.24602822 69.340957,4.22213922 69.214,4.226 L68.184,4.21 L68.184,4.21 Z M85.77,2.502 L85.023,4.792 L86.393,4.792 L85.77,2.502 Z M23.252,2.51 L22.568,4.792 L23.937,4.792 L23.252,2.51 Z M56.168,2.51 L55.483,4.792 L56.853,4.792 L56.168,2.51 L56.168,2.51 Z M92.593,2.51 L91.908,4.792 L93.278,4.792 L92.593,2.51 Z M44.247,2.148 L43.279,2.148 L43.279,4.131 L44.247,4.131 C44.3814236,4.13499156 44.5152217,4.11115984 44.64,4.061 C44.7442319,4.01472746 44.8360588,3.94448676 44.908,3.856 C44.9807583,3.76546782 45.0341909,3.66098498 45.065,3.549 C45.099,3.421 45.115,3.289 45.112,3.155 C45.1134251,3.02778777 45.0976147,2.90096855 45.065,2.778 C45.0340063,2.66120861 44.9806918,2.5515233 44.908,2.455 C44.8361329,2.36265481 44.7445778,2.28749763 44.64,2.235 C44.5175652,2.17578349 44.3829884,2.14599169 44.247,2.148 L44.247,2.148 Z M52.249,2.172 L51.462,2.172 L51.447,3.762 L52.233,3.762 C52.333,3.762 52.432,3.742 52.525,3.706 C52.6115901,3.67101308 52.6894279,3.61741424 52.753,3.549 C52.8183473,3.47514012 52.8692306,3.38965624 52.903,3.297 C52.9406079,3.18835323 52.9588844,3.07395619 52.957,2.959 C52.9844001,2.74787143 52.9308038,2.53420117 52.807,2.361 C52.6526372,2.22777116 52.4525905,2.15965486 52.249,2.171 L52.249,2.172 Z M73.967,0.37 C73.9572786,0.435306875 73.9572786,0.501693125 73.967,0.567 C73.9838745,0.627585632 74.0135411,0.683849777 74.054,0.732 C74.0970808,0.780361505 74.1508344,0.818023261 74.211,0.842 C74.289,0.872 74.372,0.885 74.455,0.882 C74.535,0.884 74.615,0.871 74.691,0.842 C74.8319789,0.808666387 74.9455563,0.704553843 74.991,0.567 C75.0003949,0.501669364 75.0003949,0.435330636 74.991,0.37 L75.541,0.37 C75.542535,0.496763889 75.5187361,0.622557669 75.471,0.74 C75.425655,0.851023427 75.3555365,0.950215378 75.266,1.03 C75.1697902,1.11473286 75.0575833,1.17933688 74.936,1.22 C74.6570708,1.31208776 74.3559292,1.31208776 74.077,1.22 C73.9554167,1.17933688 73.8432098,1.11473286 73.747,1.03 C73.6590094,0.948846186 73.5891515,0.850022839 73.542,0.74 C73.4942639,0.622557669 73.470465,0.496763889 73.472,0.37 L73.967,0.37 L73.967,0.37 Z"/>
</svg>
