<svg width="24" height="24" viewBox="0 0 24 24" xmlns:xlink="http://www.w3.org/1999/xlink" xmlns="http://www.w3.org/2000/svg"><defs><clipPath id="mask_1"><use xlink:href="#path_1"/></clipPath><path d="M7.695 14.849C3.06 10.777 0 8.092 0 4.796 0 2.11 2.178 0 4.95 0 6.516 0 8.019.706 9 1.822A5.462 5.462 0 0113.05 0C15.822 0 18 2.11 18 4.796c0 3.296-3.06 5.981-7.695 10.062L9 16l-1.305-1.151z" transform="translate(3 4)" id="path_1"/></defs><g id="compare"><path d="M10.695 18.849C6.06 14.777 3 12.092 3 8.796 3 6.11 5.178 4 7.95 4c1.566 0 3.069.706 4.05 1.822A5.462 5.462 0 0116.05 4C18.822 4 21 6.11 21 8.796c0 3.296-3.06 5.981-7.695 10.062L12 20l-1.305-1.151z" id="Icon" fill="#FFF" stroke="#666" stroke-width="2"/></g></svg>