<svg width="64" height="64" xmlns="http://www.w3.org/2000/svg"><path d="M0 0h64v64H0V0z" fill="#AF235F"/><path d="M47.26 23.573a16.796 16.796 0 00-9.713-8.782 1.124 1.124 0 00-.711 2.133 14.542 14.542 0 018.39 7.595 1.124 1.124 0 002.034-.946M16.84 37.618a16.903 16.903 0 006.065 7.026 16.754 16.754 0 0018.972-.47 16.831 16.831 0 006.01-8.12 1.124 1.124 0 10-2.134-.712 14.592 14.592 0 01-5.22 7.019 14.528 14.528 0 01-16.433.412 14.677 14.677 0 01-5.263-6.094 1.117 1.117 0 00-2.026.939m8.256-22.222a16.796 16.796 0 00-8.854 9.742 1.117 1.117 0 00.711 1.422 1.124 1.124 0 001.423-.711 14.55 14.55 0 017.68-8.434 1.12 1.12 0 00-.939-2.034m15.531 15.631a28.635 28.635 0 012.908-1.778c.43-.219.877-.402 1.337-.548a4.544 4.544 0 011.23-.206v-1.124 1.124a8.988 8.988 0 012.482.313c.464.135.916.308 1.351.519.633.299 1.237.647 1.977.953.389.163.79.291 1.202.384a6.47 6.47 0 001.422.156 5.34 5.34 0 002.133-.49 12.801 12.801 0 001.863-1.017 1.119 1.119 0 00-1.194-1.892c-.5.326-1.026.612-1.572.854a3.555 3.555 0 01-1.244.312 4.43 4.43 0 01-1.607-.305c-.395-.154-.78-.332-1.152-.534a15.53 15.53 0 00-2.283-.995 10.88 10.88 0 00-3.406-.498c-.62.018-1.235.12-1.828.306-.874.279-1.714.656-2.503 1.123-.803.463-1.579.982-2.34 1.48a1.124 1.124 0 101.245 1.863" fill="#FFF"/><path d="M57.6 32.327a8.84 8.84 0 01-1.5.484 8.028 8.028 0 01-1.423.227l.079 1.095v-1.116h-.22a7.36 7.36 0 01-2.22-.306 15.757 15.757 0 01-2.588-1.159c-.429-.225-.873-.42-1.33-.583a4.814 4.814 0 00-1.564-.277 5.604 5.604 0 00-1.75.284 7.822 7.822 0 00-1.976 1.045c-.548.377-1.017.711-1.423.96a1.117 1.117 0 101.117 1.935c.371-.217.73-.454 1.074-.712.448-.341.924-.646 1.422-.91.227-.111.466-.2.71-.263.261-.067.529-.1.797-.1.185 0 .37.024.548.072.399.108.785.258 1.152.448.781.426 1.586.808 2.41 1.145a9.678 9.678 0 003.556.668h.313a10.366 10.366 0 001.813-.284c.633-.153 1.25-.357 1.85-.612a1.116 1.116 0 10-.847-2.04" fill="#FFF"/><path d="M57.43 16.427h1.862V39.53H57.43V16.427z" fill="#AF235F"/><path d="M23.41 29.81c-.936.65-1.91 1.243-2.916 1.778a7.924 7.924 0 01-1.337.547 4.594 4.594 0 01-1.23.206v1.124-1.124A9.067 9.067 0 0115.474 32a8.612 8.612 0 01-1.351-.52c-.626-.298-1.238-.646-1.977-.952a6.727 6.727 0 00-2.631-.54 5.369 5.369 0 00-2.134.49 12.8 12.8 0 00-1.898 1.017 1.137 1.137 0 001.209 1.927 11.94 11.94 0 011.571-.853 3.392 3.392 0 011.245-.313c.552.001 1.1.105 1.614.306.396.156.783.334 1.159.533.73.393 1.491.726 2.275.996a11.13 11.13 0 003.407.497 6.543 6.543 0 001.82-.298 11.812 11.812 0 002.503-1.13c.804-.456 1.579-.975 2.34-1.48a1.116 1.116 0 10-1.238-1.856" fill="#FFF"/><path d="M6.436 28.501a9.763 9.763 0 011.5-.49 7.993 7.993 0 011.422-.228l-.114-1.116.036 1.116h.228a7.545 7.545 0 012.168.313c.896.308 1.763.696 2.589 1.16.444.236.905.44 1.38.61a4.814 4.814 0 001.564.278 5.605 5.605 0 001.75-.284 8.108 8.108 0 001.983-1.046c.548-.377 1.01-.71 1.422-.96a1.117 1.117 0 10-1.109-1.934c-.374.215-.735.452-1.08.711-.45.342-.925.646-1.423.91a4.074 4.074 0 01-.711.27 3.498 3.498 0 01-.797.093 2.497 2.497 0 01-.547-.064 6.129 6.129 0 01-1.145-.455c-.661-.32-1.422-.768-2.418-1.145a9.5 9.5 0 00-3.555-.661h-.335a11.08 11.08 0 00-1.813.284c-.631.156-1.25.36-1.849.612a1.118 1.118 0 00.882 2.055" fill="#FFF"/><path d="M4.708 16.427H6.74V39.53H4.708V16.427z" fill="#AF235F"/><path d="M32.526 21.64a28.452 28.452 0 01-1.735-2.945 8.647 8.647 0 01-.519-1.344 4.979 4.979 0 01-.192-1.237h-1.116 1.116c.006-.838.128-1.67.363-2.475.146-.46.326-.91.54-1.344.306-.626.669-1.223.989-1.955.366-.828.566-1.72.59-2.624a5.141 5.141 0 00-.292-1.679 1.124 1.124 0 10-2.133.711c.108.3.165.614.17.932a4.38 4.38 0 01-.327 1.6c-.16.395-.346.78-.554 1.152-.39.73-.718 1.491-.982 2.276a10.667 10.667 0 00-.561 3.399 7.11 7.11 0 00.27 1.827c.264.883.63 1.732 1.088 2.532.44.803.946 1.593 1.422 2.36a1.12 1.12 0 101.885-1.208" fill="#FFF"/><path d="M34.695 6.699c.053.298.086.6.1.903h1.116-1.116v.22a7.474 7.474 0 01-.356 2.134 16.306 16.306 0 01-1.202 2.567 9.89 9.89 0 00-.611 1.322 4.892 4.892 0 00-.299 1.558 5.365 5.365 0 00.256 1.756 8.066 8.066 0 001.003 2.041c.37.548.71 1.017.938 1.422a1.116 1.116 0 001.956-1.074 9.579 9.579 0 00-.711-1.088 9.743 9.743 0 01-.889-1.422 3.557 3.557 0 01-.256-.71 3.557 3.557 0 01-.085-.804c.005-.183.031-.364.078-.54a5.5 5.5 0 01.476-1.146c.335-.654.797-1.422 1.188-2.39a9.67 9.67 0 00.711-3.555v-.32a8.185 8.185 0 00-.135-1.201 1.116 1.116 0 10-2.197.376" fill="#FFF"/><path d="M27.612 5.248h11.18v1.863h-11.18V5.248z" fill="#AF235F"/><path d="M8.939 56.832c.386.194.812.296 1.244.299.647 0 1.038-.335 1.038-.89 0-.554-.426-.853-1.33-.853h-.433v-.71h.341c.91 0 1.373-.278 1.373-.818 0-.434-.335-.712-.896-.712a2.965 2.965 0 00-1.195.292l-.178-.711a3.968 3.968 0 011.486-.277c1.088 0 1.707.49 1.707 1.358a1.166 1.166 0 01-1.067 1.237 1.138 1.138 0 011.117 1.23c.015.46-.182.9-.534 1.195a2.133 2.133 0 01-1.372.391 4.01 4.01 0 01-1.5-.263l.199-.754" fill="#FFF"/><path d="M14.72 52.537h-1.323v5.27h1.245c.68.07 1.364-.07 1.962-.399a2.524 2.524 0 00.968-2.226c.073-.8-.232-1.59-.825-2.133a2.994 2.994 0 00-2.027-.512zm1.244 4.195a2.219 2.219 0 01-1.287.3h-.362v-3.756h.327c.466-.066.941.032 1.344.278.447.407.68.997.633 1.6a1.856 1.856 0 01-.655 1.578z" fill="#FFF" fill-rule="evenodd"/><path d="M18.247 55.289h1.75v.697h-1.75v-.697z" fill="#FFF"/><path d="M21.831 57.856a1.49 1.49 0 001.195-.52l.028-.02v.433h.896c-.035-.192-.035-.654-.035-.981v-1.152c0-.732-.064-1.031-.285-1.301a1.628 1.628 0 00-1.337-.505 2.972 2.972 0 00-1.422.341l.235.633a2.062 2.062 0 011.045-.327.782.782 0 01.86.882v.07h-.632c-.39-.025-.78.044-1.138.2-.398.21-.638.631-.619 1.08a1.11 1.11 0 001.21 1.167zm.768-1.892h.405v.754a1.06 1.06 0 01-.874.54.555.555 0 01-.598-.582c0-.491.356-.712 1.067-.712zm5.81-.504c0-.783.035-1.11.035-1.55v-.043h-.888v.533a1.38 1.38 0 00-1.174-.612c-.938 0-1.55.79-1.55 2.006-.019.499.107.993.363 1.422.256.409.712.648 1.194.626.451.016.879-.202 1.131-.576v2.133h.889v-3.94zm-1.792-.953c.395.034.74.279.903.64v1.372c-.292.455-.569.654-.924.654-.52 0-.847-.533-.847-1.344 0-.81.335-1.322.868-1.322z" fill="#FFF" fill-rule="evenodd"/><path d="M32.932 56.42v1.35h-.804v-.568a1.685 1.685 0 01-1.344.654 1.08 1.08 0 01-1.038-.548 2.261 2.261 0 01-.17-1.073v-2.326h.888v2.269c-.021.219.006.44.078.647a.52.52 0 00.526.334 1.33 1.33 0 00.996-.647v-2.603h.889v2.51" fill="#FFF"/><path d="M35.072 57.856a1.49 1.49 0 001.195-.52h.05v.435h.86v-2.134c0-.732-.064-1.03-.285-1.301a1.614 1.614 0 00-1.336-.505 2.951 2.951 0 00-1.423.341l.235.669a2.02 2.02 0 011.038-.327.782.782 0 01.86.882v.07l-.682-.056c-.39-.026-.78.043-1.138.199-.397.21-.638.631-.618 1.08a1.11 1.11 0 001.244 1.167zm.79-1.87h.405v.725c-.17.332-.503.549-.875.569a.555.555 0 01-.597-.583c0-.49.355-.711 1.066-.711z" fill="#FFF" fill-rule="evenodd"/><path d="M37.973 54.585v-.711h.619v-.804l.882-.163v1.002h.882v.711h-.882v1.792c0 .57.135.768.519.768a1.09 1.09 0 00.42-.092l.078.711c-.254.087-.521.13-.79.128a1.017 1.017 0 01-.917-.398 1.792 1.792 0 01-.192-1.031v-1.913h-.619m3.271.782c0-.277 0-.76-.035-1.422h.839v.711a1.095 1.095 0 011.358-.74l-.028.761a1.685 1.685 0 00-.306 0c-.434 0-.782.313-.953.882v2.24h-.875v-2.432" fill="#FFF"/><path d="M45.606 57.613a1.892 1.892 0 001.967-1.77 1.806 1.806 0 00-1.891-2.012 1.892 1.892 0 00-.076 3.782zm.097-.418c-.611 0-.974-.505-.974-1.351l-.021-.015c0-.817.39-1.315.995-1.315s.974.512.974 1.344c0 .832-.362 1.337-.974 1.337z" fill="#FFF" fill-rule="evenodd"/><path d="M48.548 55.268c0-.52 0-.712-.043-1.359h.846v.57a1.72 1.72 0 011.365-.648 1.11 1.11 0 011.053.54c.154.344.22.72.192 1.096v2.325h-.889v-2.325a1.735 1.735 0 00-.078-.655.54.54 0 00-.548-.334c-.423.046-.8.288-1.017.654v2.61h-.881v-2.474" fill="#FFF"/><path d="M53.737 53.212c.368 0 .667-.245.667-.547 0-.303-.299-.548-.667-.548-.368 0-.667.245-.667.548 0 .302.299.547.667.547zm.52.697H53.2v3.862h1.056v-3.862z" fill="#FFF" fill-rule="evenodd"/><path d="M58.176 57.522a2.233 2.233 0 01-1.244.334 1.8 1.8 0 01-1.92-1.998c0-1.273.71-2.027 1.834-2.027.433-.01.861.09 1.245.292l-.263.661a1.6 1.6 0 00-.896-.284c-.64 0-1.003.483-1.003 1.344 0 .86.391 1.33 1.08 1.33a1.43 1.43 0 00.883-.285l.284.64" fill="#FFF"/></svg>