<svg width="64" height="64" viewBox="0 0 64 64" xmlns:xlink="http://www.w3.org/1999/xlink" xmlns="http://www.w3.org/2000/svg"><g id="icons/example1"><g id="3D-Aquatronic" stroke="none"><path d="M0 0h64v64H0V0z" id="Rectangle" fill="#AF235F"/><path d="M11.194 8.84A16.796 16.796 0 001.48.058a1.124 1.124 0 00-.71 2.133 14.542 14.542 0 018.39 7.595 1.124 1.124 0 002.034-.946" transform="translate(36.066 14.733)" id="Path" fill="#FFF"/><path d="M.132 3.045a16.903 16.903 0 006.066 7.025 16.754 16.754 0 0018.972-.469 16.831 16.831 0 006.01-8.12 1.124 1.124 0 10-2.134-.712 14.592 14.592 0 01-5.22 7.019A14.528 14.528 0 017.393 8.2 14.677 14.677 0 012.13 2.106a1.117 1.117 0 00-2.026.939" transform="translate(16.707 34.573)" id="Path" fill="#FFF"/><path d="M8.913.118A16.796 16.796 0 00.06 9.86a1.117 1.117 0 00.71 1.422 1.124 1.124 0 001.423-.711 14.55 14.55 0 017.68-8.434A1.12 1.12 0 008.935.103" transform="translate(16.154 15.278)" id="Path" fill="#FFF"/><path d="M1.796 4.773a28.635 28.635 0 012.909-1.778c.43-.219.877-.402 1.336-.548a4.544 4.544 0 011.23-.206V1.117v1.124a8.988 8.988 0 012.482.313 8.56 8.56 0 011.351.519c.633.299 1.238.647 1.977.953.389.163.791.291 1.202.384a6.47 6.47 0 001.422.156 5.34 5.34 0 002.134-.49 12.801 12.801 0 001.863-1.017 1.119 1.119 0 00-1.195-1.892c-.5.326-1.026.612-1.571.854a3.555 3.555 0 01-1.245.312 4.43 4.43 0 01-1.607-.305c-.395-.154-.78-.332-1.152-.534A15.53 15.53 0 0010.65.5 10.88 10.88 0 007.243 0c-.62.018-1.235.12-1.827.306-.874.279-1.714.656-2.503 1.123-.804.463-1.58.982-2.34 1.48a1.124 1.124 0 101.244 1.863" transform="translate(38.823 26.239)" id="Path" fill="#FFF"/><path d="M16.473 1.636a8.84 8.84 0 01-1.5.483 8.028 8.028 0 01-1.423.228l.079 1.095V2.325h-.22a7.36 7.36 0 01-2.22-.305A15.757 15.757 0 018.602.86 10.42 10.42 0 007.271.277 4.814 4.814 0 005.707 0a5.604 5.604 0 00-1.75.284A7.822 7.822 0 001.982 1.33c-.548.377-1.017.71-1.423.96a1.117 1.117 0 101.117 1.934c.371-.216.73-.454 1.074-.711.448-.342.924-.646 1.422-.91.228-.112.466-.2.711-.263.26-.068.528-.101.796-.1.185 0 .37.024.548.071.399.108.785.258 1.152.448.782.426 1.586.809 2.41 1.145a9.678 9.678 0 003.556.668h.313a10.366 10.366 0 001.813-.284 11.69 11.69 0 001.85-.612 1.116 1.116 0 10-.847-2.04" transform="translate(41.127 30.692)" id="Path" fill="#FFF"/><path d="M0 0h1.863v23.104H0V0z" transform="translate(57.43 16.427)" id="Rectangle" fill="#AF235F"/><path d="M18.46.202a28.82 28.82 0 01-2.915 1.778 7.924 7.924 0 01-1.337.547 4.594 4.594 0 01-1.23.207v1.123-1.123a9.067 9.067 0 01-2.454-.342 8.612 8.612 0 01-1.351-.519c-.626-.298-1.237-.647-1.977-.953A6.727 6.727 0 004.565.38a5.369 5.369 0 00-2.133.49A12.8 12.8 0 00.533 1.887a1.137 1.137 0 001.209 1.927 11.94 11.94 0 011.571-.853 3.392 3.392 0 011.245-.313c.552.002 1.1.105 1.614.306.396.156.783.334 1.16.533.73.393 1.49.726 2.275.996a11.13 11.13 0 003.406.498 6.543 6.543 0 001.82-.299 11.812 11.812 0 002.504-1.13c.803-.456 1.578-.975 2.34-1.48A1.116 1.116 0 1018.438.216" transform="translate(4.95 29.608)" id="Path" fill="#FFF"/><path d="M1.53 2.923a9.763 9.763 0 011.501-.49 7.993 7.993 0 011.422-.228L4.34 1.088l.036 1.117h.228a7.545 7.545 0 012.168.313c.896.307 1.763.695 2.589 1.159a10.3 10.3 0 001.38.611 4.814 4.814 0 001.564.278 5.605 5.605 0 001.75-.285 8.108 8.108 0 001.983-1.045c.548-.377 1.01-.711 1.422-.96A1.117 1.117 0 1016.35.342c-.374.214-.735.452-1.08.71-.45.342-.925.647-1.423.91a4.074 4.074 0 01-.711.271 3.498 3.498 0 01-.796.093 2.497 2.497 0 01-.548-.064 6.129 6.129 0 01-1.145-.456c-.661-.32-1.422-.768-2.418-1.144A9.5 9.5 0 004.674 0h-.335a11.08 11.08 0 00-1.813.285C1.895.44 1.276.645.677.896a1.118 1.118 0 00.882 2.055" transform="translate(4.905 25.578)" id="Path" fill="#FFF"/><path d="M0 0h2.034v23.104H0V0z" transform="translate(4.708 16.427)" id="Rectangle" fill="#AF235F"/><path d="M4.644 16.37a28.452 28.452 0 01-1.736-2.943 8.647 8.647 0 01-.519-1.344 4.979 4.979 0 01-.192-1.237H1.081h1.116a9.053 9.053 0 01.363-2.475c.146-.461.327-.91.54-1.344.306-.626.669-1.223.989-1.956a6.92 6.92 0 00.59-2.624A5.141 5.141 0 004.388.77a1.124 1.124 0 10-2.134.711c.108.3.166.614.17.932a4.38 4.38 0 01-.326 1.6c-.161.395-.347.78-.555 1.152-.39.73-.718 1.491-.981 2.275A10.667 10.667 0 000 10.84a7.11 7.11 0 00.27 1.827c.265.883.63 1.732 1.088 2.532.441.803.946 1.592 1.422 2.36a1.12 1.12 0 101.885-1.208" transform="translate(27.883 5.268)" id="Path" fill="#FFF"/><path d="M2.37 1.316c.052.299.085.6.099.904h1.116H2.47v.22a7.474 7.474 0 01-.356 2.133A16.306 16.306 0 01.911 7.14 9.96 9.96 0 00.3 8.463 4.892 4.892 0 000 10.02c-.013.596.074 1.19.256 1.757a8.066 8.066 0 001.003 2.04c.37.548.711 1.018.939 1.423a1.116 1.116 0 001.955-1.074 9.579 9.579 0 00-.711-1.088 9.743 9.743 0 01-.889-1.422 3.557 3.557 0 01-.256-.711 3.557 3.557 0 01-.085-.804c.005-.182.032-.364.078-.54.115-.399.275-.783.476-1.145.335-.654.797-1.422 1.188-2.39.459-1.13.7-2.336.711-3.555v-.32A8.185 8.185 0 004.531.99a1.116 1.116 0 10-2.197.377" transform="translate(32.326 5.382)" id="Path" fill="#FFF"/><path d="M0 0h11.179v1.863H0V0z" transform="translate(27.612 5.248)" id="Rectangle" fill="#AF235F"/><path d="M.2 4.38c.385.195.811.297 1.244.3.647 0 1.038-.335 1.038-.89 0-.554-.427-.853-1.33-.853H.718v-.711h.342c.91 0 1.372-.277 1.372-.818 0-.434-.334-.711-.896-.711A2.965 2.965 0 00.341.989L.164.277A3.968 3.968 0 011.65 0c1.088 0 1.706.49 1.706 1.358A1.166 1.166 0 012.29 2.596a1.138 1.138 0 011.116 1.23c.016.459-.181.9-.533 1.195a2.133 2.133 0 01-1.373.39A4.01 4.01 0 010 5.15l.2-.754" transform="translate(8.74 52.451)" id="Path" fill="#FFF"/><path d="M1.323.018H0v5.27h1.244c.68.07 1.365-.07 1.963-.4a2.524 2.524 0 00.967-2.225c.074-.8-.232-1.59-.825-2.133A2.994 2.994 0 001.323.018zm1.244 4.195a2.219 2.219 0 01-1.287.3H.917V.756h.327a2.03 2.03 0 011.344.278c.447.407.68.997.633 1.6a1.856 1.856 0 01-.654 1.578z" transform="translate(13.397 52.52)" id="Shape" fill="#FFF" fill-rule="evenodd"/><path d="M0 0h1.75v.697H0V0z" transform="translate(18.247 55.289)" id="Rectangle" fill="#FFF"/><path d="M1.21 4.053a1.49 1.49 0 001.195-.519l.029-.021v.434h.896c-.036-.192-.036-.655-.036-.982V1.813c0-.732-.064-1.03-.284-1.301A1.628 1.628 0 001.673.007 2.972 2.972 0 00.25.348l.234.633A2.062 2.062 0 011.531.654a.782.782 0 01.86.882v.071h-.633c-.39-.025-.78.043-1.138.2-.397.21-.638.63-.618 1.08A1.11 1.11 0 001.21 4.053zm.769-1.891h.405v.754a1.06 1.06 0 01-.875.54.555.555 0 01-.597-.583c0-.49.355-.711 1.067-.711z" transform="translate(20.62 53.803)" id="Shape" fill="#FFF" fill-rule="evenodd"/><path d="M3.579 1.671c0-.782.035-1.109.035-1.55V.078h-.889v.534A1.38 1.38 0 001.552 0C.613 0 .002.79.002 2.006c-.019.499.107.993.363 1.422.256.409.712.648 1.194.626.451.015.879-.202 1.13-.576V5.61h.89V1.67zM1.787.718c.394.035.74.28.903.64v1.373c-.292.455-.569.654-.925.654-.519 0-.846-.533-.846-1.344 0-.81.334-1.323.868-1.323z" transform="translate(24.83 53.788)" id="Shape" fill="#FFF" fill-rule="evenodd"/><path d="M3.365 2.51v1.351H2.56v-.569a1.685 1.685 0 01-1.344.655A1.08 1.08 0 01.18 3.399a2.261 2.261 0 01-.17-1.074V0h.888v2.268c-.02.22.006.44.078.648a.52.52 0 00.527.334 1.33 1.33 0 00.995-.647V0h.889v2.51" transform="translate(29.567 53.91)" id="Path" fill="#FFF"/><path d="M1.246 4.033c.457.018.897-.173 1.195-.52h.05v.434h.86V1.814c0-.733-.064-1.031-.284-1.301A1.614 1.614 0 001.73.008 2.951 2.951 0 00.308.349l.234.668A2.02 2.02 0 011.581.69a.782.782 0 01.86.882v.071l-.683-.057c-.39-.025-.78.043-1.137.2-.398.21-.639.63-.62 1.08a1.11 1.11 0 001.245 1.167zm.79-1.87h.405v.725c-.17.332-.503.548-.875.569a.555.555 0 01-.597-.584c0-.49.356-.71 1.067-.71z" transform="translate(33.826 53.823)" id="Shape" fill="#FFF" fill-rule="evenodd"/><path d="M0 1.678v-.71h.619V.163L1.5 0v1.003h.882v.71H1.5v1.793c0 .569.136.768.52.768.144-.003.287-.034.42-.093l.077.711c-.254.087-.52.13-.789.128a1.017 1.017 0 01-.917-.398 1.792 1.792 0 01-.192-1.03V1.677H0" transform="translate(37.973 52.907)" id="Path" fill="#FFF"/><path d="M.036 1.494c0-.278 0-.761-.036-1.423h.84v.711a1.095 1.095 0 011.357-.74L2.17.805a1.685 1.685 0 00-.306 0c-.434 0-.782.313-.953.882v2.24H.036V1.494" transform="translate(41.209 53.874)" id="Path" fill="#FFF"/><path d="M1.812 3.784A1.892 1.892 0 003.78 2.015 1.806 1.806 0 001.888.003a1.892 1.892 0 00-.076 3.781zm.097-.418c-.612 0-.974-.505-.974-1.35L.913 2c0-.818.392-1.316.996-1.316s.974.512.974 1.344c0 .832-.362 1.337-.974 1.337z" transform="translate(43.794 53.828)" id="Shape" fill="#FFF" fill-rule="evenodd"/><path d="M.043 1.44C.043.923.043.73 0 .084h.846V.65A1.72 1.72 0 012.212.004a1.11 1.11 0 011.052.54c.154.344.22.72.192 1.096v2.325h-.889V1.64A1.735 1.735 0 002.49.986.54.54 0 001.94.65c-.423.046-.8.289-1.017.655v2.61h-.88V1.44" transform="translate(48.505 53.827)" id="Path" fill="#FFF"/><path d="M.667 1.095c.368 0 .666-.245.666-.547C1.333.245 1.035 0 .667 0 .298 0 0 .245 0 .548c0 .302.298.547.667.547zm.52.697H.13v3.861h1.056V1.792z" transform="translate(53.07 52.117)" id="Shape" fill="#FFF" fill-rule="evenodd"/><path d="M3.176 3.691a2.233 2.233 0 01-1.244.335 1.8 1.8 0 01-1.92-1.999C.012.754.722.001 1.846.001c.433-.01.861.09 1.245.291l-.263.662a1.6 1.6 0 00-.896-.285c-.64 0-1.003.484-1.003 1.344 0 .86.391 1.33 1.08 1.33.318.006.629-.094.883-.285l.284.64" transform="translate(55 53.83)" id="Path" fill="#FFF"/></g></g></svg>