<svg xmlns="http://www.w3.org/2000/svg" width="137" height="48" viewBox="0 0 137 48"><path fill="#00B2B2" d="M88.336 42.051a2.36 2.36 0 012.44 2.573 2.463 2.463 0 11-4.919 0 2.36 2.36 0 012.479-2.573zm-5.713-1.707v6.72h-1.007v-.638a1.66 1.66 0 01-1.574.787c-1.353 0-2.195-1.023-2.195-2.597 0-1.573.857-2.557 2.21-2.557a1.755 1.755 0 011.574.787v-2.502h.992zm-5.69 1.849l-.039 4.87h-1.007v-.723a1.84 1.84 0 01-1.574.857 1.574 1.574 0 01-1.66-1.77V42.2h1.078v2.785c0 .708 0 1.314.952 1.314s1.173-.716 1.173-1.518v-2.59h1.078zm-28.547-.19c1.117 0 2.038.457 2.038 1.575l-1.031.031c-.079-.598-.48-.787-1.055-.787-.574 0-.865.205-.865.567 0 .488.464.527 1.243.708.78.181 1.889.417 1.889 1.487s-.787 1.574-2.125 1.574-2.132-.582-2.188-1.7h1.031c.055.646.512.913 1.18.913.67 0 1.047-.275 1.047-.708 0-.433-.55-.574-1.164-.724-1.118-.275-1.991-.417-1.991-1.464 0-.928.747-1.471 1.99-1.471zm17.988 0c1.117 0 2.038.457 2.038 1.575l-1 .031c-.078-.598-.48-.787-1.054-.787-.574 0-.866.205-.866.567 0 .488.465.527 1.244.708.779.181 1.888.417 1.888 1.487s-.787 1.574-2.124 1.574c-1.338 0-2.133-.582-2.188-1.7h1c.055.646.511.913 1.18.913.669 0 1.046-.275 1.046-.708 0-.433-.55-.574-1.164-.724-1.118-.275-1.991-.417-1.991-1.464 0-.928.747-1.471 1.99-1.471zm-6.001.518c.301.301.458.718.43 1.143v3.455h-1.055v-3.053c0-.598-.126-1.102-.865-1.102-.74 0-1.063.472-1.063 1.235v2.857h-1.086V44.01c0-.582-.086-1.046-.786-1.046-.7 0-1.118.535-1.118 1.29v2.802h-1.086v-4.863h1.023v.684a1.78 1.78 0 011.527-.787 1.385 1.385 0 011.361.835c.345-.532.94-.847 1.574-.835a1.48 1.48 0 011.144.43zm10.51-1.792v1.464h.983l-.008.779h-.983v2.565c0 .464 0 .7.558.7.142.01.284.01.425 0v.85a5.02 5.02 0 01-.724 0c-1.36 0-1.334-.652-1.33-1.68v-2.49h-.786v-.787h.787v-1.4h1.078zm14.03 1.464v4.87h-1.078v-4.87h1.078zm-32.35 0v4.87h-1.077v-4.87h1.078zm82.954-.134v4.769h-42.61v-4.769h42.61zm-91.333 0v4.769H1.574v-4.769h42.61zm44.152.842c-.85 0-1.393.661-1.393 1.723 0 1.094.52 1.747 1.385 1.747s1.377-.66 1.377-1.755c0-1.093-.52-1.715-1.37-1.715zm-8.12.024c-.866 0-1.284.637-1.284 1.676h-.039c0 1.062.52 1.723 1.361 1.723.842 0 1.338-.63 1.338-1.708 0-1.078-.511-1.691-1.377-1.691zm4.697-2.613v1.062h-1.078v-1.062h1.078zm-32.35 0v1.062h-1.077v-1.062h1.078zm-33.387-25.92c3.77 0 6.752 1.692 6.91 5.815L23 20.215c-.181-2.313-1.755-3.242-4.03-3.242-2.273 0-3.532.96-3.532 2.573 0 1.763 1.14 1.873 4.721 2.802 3.148.786 6.673 1.573 6.673 5.508 0 4.178-3.714 5.791-7.35 5.791-4.39 0-7.79-2.077-7.79-6.547h3.18c0 2.857 2.155 3.935 4.776 3.935 2.494 0 3.934-1.094 3.934-2.912 0-1.817-1.55-2.156-4.273-2.895-3.934-1.016-6.964-1.66-6.964-5.43 0-3.297 2.676-5.406 6.83-5.406zm98.574-.07c3.769 0 6.751 1.691 6.908 5.814l-3.06.08c-.205-2.314-1.74-3.25-4.03-3.25s-3.533.96-3.533 2.572c0 1.763 1.141 1.873 4.722 2.802 3.147.787 6.673 1.573 6.673 5.508 0 4.178-3.715 5.791-7.35 5.791-4.39 0-7.79-2.077-7.79-6.547h3.195c0 2.857 2.156 3.935 4.776 3.935 2.494 0 3.934-1.094 3.934-2.912 0-1.817-1.573-2.258-4.312-2.958-3.934-1.015-6.964-1.66-6.964-5.43 0-3.297 2.676-5.406 6.83-5.406zm-84.827.44l-.008 18.492H29.65V14.762h3.273zm63.077 0l8.522 13.637V14.762h3.148l-.04 18.492h-3.352l-8.624-13.582v13.582h-3.061V14.762H96zm-45.868 0v2.73H40.037v4.91h9.372v2.621h-9.372v5.453h10.23v2.778H36.81V14.762h13.322zm39.447 0v2.73H79.475v4.91h9.372v2.621h-9.372v5.453h10.23v2.778H76.257V14.762h13.322zm-31.83 0l5.17 14.463 4.99-14.463h4.484v18.492h-3.068V18.995l-5.139 14.259h-2.652l-5.272-14.259v14.259h-3.06V14.762h4.548zM13.472 1.621v4.485h1.968V1.621h.63v4.47h.456l-.063 1.778h-.567V6.64h-3.06V1.62h.636zm-10.323.04c.182.069.346.18.48.322a1.5 1.5 0 01.306.527c.078.234.12.478.126.724h-.645a2.652 2.652 0 00-.079-.511.976.976 0 00-.188-.362.661.661 0 00-.276-.205 1.047 1.047 0 00-.393-.07.96.96 0 00-.48.11.936.936 0 00-.33.314c-.096.152-.162.32-.198.496a2.982 2.982 0 00-.062.645v.944c-.001.206.017.412.055.614.03.176.088.346.173.504a.858.858 0 00.787.464c.149.004.298-.017.44-.063a.661.661 0 00.284-.204.936.936 0 00.173-.347c.044-.167.073-.338.086-.511h.645a2.47 2.47 0 01-.118.692 1.487 1.487 0 01-.322.551c-.131.134-.29.239-.464.307-.22.078-.452.115-.685.11a1.574 1.574 0 01-1.228-.574 1.99 1.99 0 01-.33-.63 3.061 3.061 0 01-.118-.913v-.928c-.003-.295.037-.59.118-.874.066-.242.178-.469.33-.668.143-.182.327-.327.535-.425.23-.096.477-.14.724-.126.222-.013.443.017.654.086zm45.002-.087c.24-.005.478.04.7.134a1.4 1.4 0 01.535.409c.156.198.271.425.338.669.084.305.123.62.118.936v.85c.005.316-.034.631-.118.936a1.88 1.88 0 01-.338.669 1.37 1.37 0 01-.527.401c-.222.093-.46.138-.7.134a1.708 1.708 0 01-.693-.134 1.424 1.424 0 01-.535-.401 1.88 1.88 0 01-.346-.669 3.21 3.21 0 01-.158-.936v-.874a3.218 3.218 0 01.126-.936c.071-.243.189-.47.346-.669a1.4 1.4 0 01.535-.41c.228-.087.473-.125.717-.11zm31.514.047l1.314 4.1 1.314-4.1h.787v5.02h-.63v-1.92l.064-1.959L81.2 6.696h-.48l-1.307-3.934.063 1.96v1.92h-.63V1.62h.82zm39.699-.008l-1.33 2.495 1.337 2.533h-.786l-.905-1.92-.968 1.96h-.787l1.346-2.534-1.283-2.526h.74l.952 1.92.944-1.928h.74zM35.858 1.55c.211-.001.421.03.622.095.176.056.337.15.472.275.132.125.234.279.3.449.075.195.112.404.11.613.002.226-.06.447-.182.638a1.283 1.283 0 01-.503.448c.228.085.423.239.558.44.137.223.206.48.197.74.004.216-.036.43-.118.63-.08.16-.192.303-.33.417a1.448 1.448 0 01-.496.283 1.936 1.936 0 01-1.173.008 1.322 1.322 0 01-.826-.716 1.574 1.574 0 01-.134-.66h.63a1.03 1.03 0 00.236.66.842.842 0 00.63.268 1.08 1.08 0 00.393-.071.787.787 0 00.472-.48c.043-.119.064-.244.063-.37a.913.913 0 00-.228-.685.92.92 0 00-.541-.22h-.6V3.81h.503c.13.003.257-.019.378-.063a.653.653 0 00.252-.174.716.716 0 00.142-.267 1.18 1.18 0 00.047-.338 1.125 1.125 0 00-.047-.339.732.732 0 00-.425-.464.991.991 0 00-.394-.07.787.787 0 00-.574.235.913.913 0 00-.228.606h-.63a1.416 1.416 0 01.11-.574 1.283 1.283 0 01.764-.716c.176-.064.363-.096.55-.095zm60.559-.008c.211-.001.42.03.622.095.175.056.336.15.472.275.132.125.234.279.299.449.075.195.113.404.11.613a1.16 1.16 0 01-.181.638 1.283 1.283 0 01-.504.448c.228.085.423.24.56.441.136.222.205.48.196.74.004.215-.036.43-.118.63-.07.16-.171.304-.3.424a1.448 1.448 0 01-.495.283 1.936 1.936 0 01-1.172.008 1.322 1.322 0 01-.826-.716 1.574 1.574 0 01-.134-.66h.63a1.03 1.03 0 00.235.66.834.834 0 00.63.268c.134.001.268-.023.393-.071a.787.787 0 00.472-.48 1.04 1.04 0 00.063-.37.913.913 0 00-.228-.685.913.913 0 00-.661-.22H96V3.81h.464c.129.003.257-.019.378-.063a.653.653 0 00.252-.174.716.716 0 00.141-.267 1.18 1.18 0 00.048-.338 1.117 1.117 0 00-.048-.339.787.787 0 00-.157-.275.787.787 0 00-.268-.19 1 1 0 00-.393-.07.787.787 0 00-.574.236.913.913 0 00-.228.606h-.63a1.409 1.409 0 01.425-1.023 1.39 1.39 0 01.456-.275c.177-.064.363-.096.551-.095zm-44.168.079c.197-.002.393.024.582.079.161.047.31.13.433.244.113.118.196.26.244.417.067.194.1.4.095.606a1.11 1.11 0 01-.653 1.038 1.039 1.039 0 01.559.44c.064.111.112.23.14.355.033.134.05.271.048.41.003.21-.032.421-.102.62a1.165 1.165 0 01-.732.732 1.715 1.715 0 01-.582.095l-1.464-.016v-5.02h1.432zm40.603 0l1.621 5.028h-.645l-.385-1.314H91.75l-.394 1.314h-.645l1.621-5.028h.52zm-36.44 0l1.62 5.028h-.59l-.424-1.314h-1.7l-.393 1.314h-.63l1.574-5.028h.543zm73.164 0v2.211h.386l1.448-2.211h.787l-1.574 2.431 1.715 2.597h-.787l-1.495-2.266h-.48v2.258h-.63v-5.02h.63zm-43.593 0l1.62 5.028h-.644l-.402-1.314h-1.7l-.393 1.314h-.645l1.621-5.028h.543zm34.804 0v2.156h2.022V1.621h.638v5.02h-.638v-2.36h-2.022v2.36h-.63v-5.02h.63zm-5.367 0v.543h-2.038v1.613h1.779v.543h-1.779v1.778h2.07v.543h-2.7v-5.02h2.668zm-24.456 0v.543h-1.975V6.64h-.638V1.62h2.613zm-19.247 0v5.02h-.63v-5.02h.63zm-7.98 0v2.156h2.047V1.621h.637v5.02h-.637v-2.36h-2.046v2.36h-.63v-5.02h.63zm-51.776 0v.543H9.923v1.613H11.7v.543H9.923v1.778h2.07v.543h-2.7v-5.02h2.668zm100.052 0v.543h-1.322V6.64h-.63V2.164h-1.321V1.62h3.273zm-103.837 0v5.02h-.638V2.164H5.571V6.64h-.63V1.62h3.235zm18.318-.016l2.62.016v5.02h-.629V2.164h-1.393l-.047 1.77a9.56 9.56 0 01-.086 1.189c-.025.3-.094.594-.205.873a1.141 1.141 0 01-.401.488c-.183.11-.393.165-.606.157h-.165v-.543h.118a.488.488 0 00.338-.118.834.834 0 00.22-.37 3.03 3.03 0 00.126-.66c.026-.268.045-.596.055-.984l.055-2.36zm-8.545.016v3.887l1.99-3.887h.63v5.02h-.63V2.77L17.99 6.64h-.678V1.62h.638zm55.57 0v3.887l1.959-3.887h.63v5.02h-.63V2.77l-1.96 3.871h-.637v-5.02h.638zm-42.61 0v3.887l1.96-3.887h.629v5.02h-.63V2.77l-1.96 3.871h-.637v-5.02h.638zm102.633 0v3.887l1.96-3.887h.63v5.02h-.63V2.77l-1.96 3.871h-.637v-5.02h.637zm-94.599 0v3.887l1.975-3.887h.63v5.02h-.63V2.77l-1.975 3.87h-.637V1.62h.637zm60.55 0v3.887l1.96-3.887h.63v5.02h-.63V2.77l-1.96 3.871h-.637v-5.02h.638zm-75.942-.008l1.63 5.028h-.646l-.433-1.306H22.41l-.377 1.306h-.645l1.62-5.028h.543zm20.672.008c.22-.005.44.033.645.11.18.071.34.181.472.323.13.14.23.307.291.488.066.198.098.405.095.613.004.22-.028.437-.095.646a1.204 1.204 0 01-.786.787 1.857 1.857 0 01-.646.102l-.92-.016v1.967h-.63v-5.02h1.574zm80.978 0v3.887l1.96-3.887h.63v5.02h-.63V2.77L125.2 6.64h-.637V1.62h.637zm-21.332 0v2.156h2.022V1.621h.638l-.032 5.02h-.637v-2.36h-1.991v2.36h-.63v-5.02h.63zm-44.49 0v2.156h1.998V1.621h.637l.024 5.02h-.661v-2.36h-1.999v2.36h-.63v-5.02h.63zm8.797 0l.008 2.046h1.007c.212-.005.422.03.621.102.173.065.329.167.457.3.124.132.218.29.275.463.066.196.098.4.095.606.003.206-.03.411-.095.606a1.306 1.306 0 01-.275.472c-.128.135-.284.24-.457.307a1.61 1.61 0 01-.621.11h-1.645V1.621h.63zm-20.026.488a1.039 1.039 0 00-.441.094.842.842 0 00-.33.284 1.405 1.405 0 00-.213.487 2.99 2.99 0 00-.07.716v.882c-.004.24.022.481.078.716.04.174.112.34.212.488.086.123.203.22.339.283.139.06.289.09.44.087a1.1 1.1 0 00.457-.087.787.787 0 00.33-.283c.096-.15.162-.315.197-.488.05-.236.073-.476.07-.716l-.007-.882c.003-.24-.02-.48-.071-.716a1.4 1.4 0 00-.205-.487.787.787 0 00-.33-.284 1.086 1.086 0 00-.456-.094zm4.186 2.187h-.89v1.81h.866a.787.787 0 00.33-.063.677.677 0 00.245-.18.787.787 0 00.15-.284 1.574 1.574 0 00.016-.755.787.787 0 00-.135-.284.598.598 0 00-.236-.18.834.834 0 00-.346-.064zm15.848-.086v1.888h1.007a.787.787 0 00.37-.078.7.7 0 00.251-.213.905.905 0 00.142-.299c.043-.119.07-.243.079-.37 0-.12-.016-.238-.047-.354a.787.787 0 00-.15-.29.685.685 0 00-.252-.198.873.873 0 00-.37-.07l-1.03-.016zM85.77 2.502l-.747 2.29h1.37l-.623-2.29zm-62.518.008l-.684 2.282h1.369l-.685-2.282zm32.916 0l-.685 2.282h1.37l-.685-2.282zm36.425 0l-.685 2.282h1.37l-.685-2.282zm-48.346-.362h-.968v1.983h.968a.976.976 0 00.393-.07.724.724 0 00.268-.205.85.85 0 00.157-.307c.034-.128.05-.26.047-.394a1.409 1.409 0 00-.047-.377.936.936 0 00-.157-.323.787.787 0 00-.268-.22.873.873 0 00-.393-.087zm8.002.024h-.787l-.015 1.59h.786c.1 0 .199-.02.292-.056a.637.637 0 00.228-.157.787.787 0 00.15-.252.984.984 0 00.054-.338.842.842 0 00-.15-.598.787.787 0 00-.558-.19zM73.967.37a.669.669 0 000 .197.44.44 0 00.087.165.417.417 0 00.157.11c.078.03.161.043.244.04.08.002.16-.011.236-.04a.417.417 0 00.3-.275.692.692 0 000-.197h.55a.952.952 0 01-.07.37.787.787 0 01-.205.29.96.96 0 01-.33.19 1.37 1.37 0 01-.859 0 .96.96 0 01-.33-.19.85.85 0 01-.205-.29.952.952 0 01-.07-.37h.495z"/></svg>