<svg xmlns="http://www.w3.org/2000/svg" width="755" height="120" viewBox="0 0 755 120"><path fill="#EDEDED" fill-rule="evenodd" d="M711.994 0c4.674 0 10.062.414 16.03 1.177 6.017.812 11.802 1.807 17.372 3.034v22.461c-11.637-4.393-21.997-6.614-31.065-6.614-5.37 0-9.648.995-12.864 2.918-3.216 1.939-4.857 4.326-4.857 7.144 0 3.747 3.63 7.078 10.941 10.063L728.67 50.46c17.074 8.14 25.545 18.947 25.545 32.524 0 11.289-4.492 20.29-13.56 26.954-9.001 6.73-21.119 10.062-36.204 10.062-6.962 0-13.211-.298-18.765-.928-5.553-.597-11.935-1.824-19.014-3.581V91.985c12.98 4.393 24.8 6.614 35.442 6.614 12.698 0 19.014-3.68 19.014-11.106 0-3.697-2.587-6.68-7.841-9.018l-23.457-9.996c-8.653-3.912-15.084-8.653-19.295-14.273-4.144-5.669-6.25-12.167-6.25-19.593 0-10.394 4.377-18.766 13.03-25.131C686.035 3.166 697.605 0 711.994 0zM47.675 0c4.725 0 10.046.414 16.08 1.177 5.968.812 11.753 1.807 17.306 3.034v22.461c-11.637-4.393-21.981-6.614-31.049-6.614-5.387 0-9.647.995-12.863 2.918-3.216 1.939-4.857 4.326-4.857 7.144 0 3.747 3.68 7.078 10.99 10.063l21.12 10.277c17.007 8.14 25.495 18.947 25.495 32.524 0 11.289-4.51 20.29-13.51 26.954C67.318 116.668 55.266 120 40.132 120c-6.963 0-13.229-.298-18.782-.928-5.553-.597-11.87-1.824-18.997-3.581V91.985C15.384 96.378 27.203 98.6 37.78 98.6c12.698 0 19.014-3.68 19.014-11.106 0-3.697-2.57-6.68-7.775-9.018L25.563 68.48c-8.72-3.912-15.152-8.653-19.296-14.273C2.056 48.537 0 42.04 0 34.613 0 24.219 4.343 15.847 13.046 9.482 21.699 3.166 33.286 0 47.676 0zm264.849 2.105l28.661 70.883 29.988-70.883h39.884v115.79h-32.111v-76.37l-33.318 77.43h-19.826l-32.043-77.43v76.37h-23.224V2.105h41.989zm-172.864 0v115.79h-34.397V2.105h34.397zm110.817 0v21.401H199.37v25.677h44.327V68.48H199.37v26.954h52.151v22.462h-85.255V2.105h84.21zm271.348 0v21.401h-50.827v25.677h44.326V68.48h-44.326v26.954h51.871v22.462h-85.254V2.105h84.21zm57.606 0l39.883 72.988V2.105h23.206v115.79h-36.485L565.092 43.63v74.265h-23.21V2.105h37.549z"/></svg>