<svg xmlns="http://www.w3.org/2000/svg" width="48" height="48"><g fill="none" fill-rule="evenodd"><path fill="#AF235F" d="M0 47.735h47.735V0H0z"/><path fill="#FFF" d="M26.696 34.13l-1.806-2.062v1.972h-1.146v-1.972L21.94 34.13l-.862-.753 2.666-3.048v-1.881l-4.062 4.157-.818-.799 4.88-4.994v-2.343l-2.369 2.401-.815-.802 3.184-3.23v-2.747l-2.306 1.385-1.069 4.455-1.113-.268.808-3.36-2.081 1.249-1.765 6.756-1.108-.291 1.469-5.621-1.609.967-1.24 3.856-1.089-.35.838-2.609-1.789 1.075-.59-.981 1.791-1.076-2.7-.486.201-1.127 3.988.719 1.61-.969-5.654-1.342.265-1.114 6.792 1.612 1.922-1.155-3.157-.705.251-1.119 4.329.969 2.435-1.462-2.437-1.352-4.319 1.199-.306-1.104 3.196-.885-2.03-1.128-6.734 1.85-.303-1.106 5.604-1.538-1.643-.908-3.96.851L10 13.861l2.68-.579-1.827-1.012.557-1 1.825 1.011-.93-2.58 1.077-.389 1.374 3.812 1.642.912-1.664-5.568 1.096-.328 2.001 6.689 2.067 1.146-.954-3.244 1.1-.324 1.28 4.358 2.42 1.34v-2.804l-3.158-3.215.817-.801 2.341 2.384v-2.324l-4.88-4.993.818-.8 4.062 4.153V7.828L21.078 4.78l.862-.754 1.804 2.064V4h1.146v2.09l1.806-2.064.861.754-2.667 3.048v1.879l4.062-4.155.82.8-4.882 4.993v2.326l2.357-2.387.813.803-3.17 3.215v2.765l2.372-1.425 1.11-4.287 1.109.288-.819 3.158 1.99-1.196 1.765-6.755 1.108.29-1.47 5.62 1.609-.966 1.241-3.857 1.089.35-.839 2.612 1.693-1.017.589.98-1.693 1.018 2.699.484-.201 1.129-3.987-.719-1.61.967 5.653 1.344-.263 1.112-6.793-1.611-2.091 1.256 3.339.806-.269 1.114-4.466-1.081-2.292 1.377 2.467 1.369 4.273-1.186.306 1.102-3.151.875 2.001 1.11 6.732-1.849.304 1.104-5.603 1.539 1.641.909 3.961-.854.24 1.119-2.68.579 1.727.955-.556 1.002-1.725-.956.93 2.578-1.077.389-1.374-3.811-1.643-.909 1.665 5.567-1.096.327-2-6.688-2.095-1.163.967 3.289-1.1.323-1.293-4.401-2.394-1.327v2.818l3.146 3.2-.818.802-2.328-2.369v2.311l4.882 4.994-.82.799-4.062-4.157v1.881l2.667 3.048m-3.685 3.913v.73h.641v.488h-.641v1.3c0 .41.093.554.375.554a.824.824 0 00.305-.066l.06.488a1.8 1.8 0 01-.575.095c-.32 0-.547-.1-.674-.292-.1-.15-.139-.357-.139-.746v-1.333h-.454v-.487h.454v-.612l.648-.12zm-13.771.67c.857 0 1.385.553 1.385 1.458 0 .904-.528 1.46-1.385 1.46-.863 0-1.383-.556-1.383-1.476 0-.889.532-1.442 1.383-1.442zm8.372 0c.857 0 1.382.553 1.382 1.458 0 .904-.525 1.46-1.382 1.46-.863 0-1.384-.556-1.384-1.476 0-.889.532-1.442 1.384-1.442zm2.932-.002c.31 0 .591.062.916.205l-.166.488a1.487 1.487 0 00-.723-.214c-.266 0-.432.12-.432.318 0 .11.05.18.155.24.088.05.088.05.443.182.58.213.775.417.775.801 0 .549-.432.899-1.101.899a1.93 1.93 0 01-.924-.22l.17-.487c.3.164.492.224.748.224.294 0 .465-.13.465-.355a.28.28 0 00-.11-.236c-.072-.055-.145-.084-.455-.192-.337-.122-.46-.183-.585-.292a.676.676 0 01-.217-.516c0-.52.4-.845 1.04-.845zm-14.257.002c.353 0 .63.137.768.393.089.164.12.379.12.78v1.685h-.644v-1.651c0-.249-.018-.37-.056-.474-.06-.152-.206-.24-.404-.24-.256 0-.51.164-.742.472v1.893h-.647V38.85a15.66 15.66 0 00-.029-.83h.616l.015.41c.348-.35.605-.471 1.003-.471zm7.309-.94v.54h-1.584v1.062h1.504v.54h-1.504v1.656h-.67V37.02h2.254zm2.078.955c.09 0 .146.007.249.033l-.037.563a1.292 1.292 0 00-.221-.02c-.323 0-.576.23-.697.642v1.625h-.644v-1.745c0-.197-.006-.551-.022-1.053h.61l.015.525c.167-.384.415-.57.747-.57zm-6.434.472c-.44 0-.714.368-.714.96 0 .615.267.98.714.98.443 0 .714-.365.714-.969 0-.603-.271-.97-.714-.97zm8.372 0c-.443 0-.715.368-.715.96 0 .615.266.98.715.98.441 0 .713-.365.713-.969 0-.603-.272-.97-.713-.97z"/></g></svg>