<svg xmlns="http://www.w3.org/2000/svg" width="48" height="48"><g fill="none" fill-rule="evenodd"><path fill="#AF235F" d="M0 48h48V0H0z"/><path fill="#FFF" d="M9.738 37.239c.755 0 1.256.599 1.256 1.507 0 .893-.483 1.477-1.221 1.477-.351 0-.618-.128-.835-.397v1.289H8V37.31h.899v.33c.202-.269.478-.401.839-.401zm2.972-.012c.888 0 1.5.611 1.5 1.498 0 .897-.612 1.513-1.512 1.513s-1.518-.61-1.518-1.508c0-.885.623-1.503 1.53-1.503zm7.76.011c.947 0 1.523.622 1.523 1.635v.083H19.86c.012.419.255.662.657.662.26 0 .416-.112.538-.332h.884c-.184.619-.712.953-1.434.953-.895 0-1.567-.556-1.567-1.475 0-.899.632-1.526 1.533-1.526zm9.784-.01c.889 0 1.5.61 1.5 1.497 0 .897-.611 1.513-1.512 1.513-.9 0-1.518-.61-1.518-1.508 0-.885.623-1.503 1.53-1.503zm3.399 0c.889 0 1.5.61 1.5 1.497 0 .897-.611 1.513-1.512 1.513-.9 0-1.517-.61-1.517-1.508 0-.885.622-1.503 1.529-1.503zm3.232 0c.66 0 1.267.213 1.3.913h-.866c-.04-.253-.195-.33-.463-.33-.244 0-.376.082-.376.231 0 .194.228.215.372.248.293.06.583.115.866.216.374.13.551.374.551.741 0 .61-.516.982-1.379.982-.688 0-1.355-.227-1.395-1.013h.896c.021.308.221.402.523.402.266 0 .432-.113.432-.293 0-.154-.1-.215-.484-.298a6.133 6.133 0 01-.75-.187c-.365-.126-.56-.372-.56-.725 0-.574.473-.887 1.333-.887zm3.135-.789v.87h.588v.607h-.588v1.173c0 .263.009.396.338.396.083 0 .166 0 .25-.012v.689a5.88 5.88 0 01-.54.028c-.76 0-.994-.227-.994-.959v-1.315h-.472v-.606h.472v-.87h.946zm-24.702.87l.462 1.862.434-1.862h.882l.429 1.856.478-1.856h.96l-.899 2.842h-.956l-.472-1.9-.439 1.9h-.961l-.9-2.842h.982zm8.964-.064a.87.87 0 01.245.028v.834a1.427 1.427 0 00-.372-.054c-.495 0-.712.314-.712.806v1.292h-.938V37.31h.899l-.005.485c.193-.364.448-.55.883-.55zm2.583-1.014c.683 0 1.277.258 1.277.985 0 .39-.183.617-.516.793.472.154.71.478.71.963 0 .364-.132.667-.389.882-.338.285-.722.297-1.149.297h-1.923v-3.92zm-14.179 1.69c-.355 0-.56.296-.56.81 0 .527.205.825.572.825.36 0 .566-.303.566-.83 0-.514-.205-.805-.578-.805zm17.545 0c-.356 0-.561.296-.561.81 0 .527.205.825.572.825.361 0 .566-.303.566-.83 0-.514-.205-.805-.577-.805zm3.399 0c-.356 0-.561.296-.561.81 0 .527.205.825.572.825.361 0 .568-.303.568-.83 0-.514-.207-.805-.58-.805zm-24.165.06c-.344 0-.561.292-.561.76 0 .485.212.76.579.76.36 0 .566-.27.566-.743 0-.506-.205-.776-.584-.776zm17.21.463h-.789v.897h.816c.312 0 .59-.06.59-.447 0-.379-.293-.45-.618-.45zm-6.198-.579c-.339 0-.55.199-.605.557h1.195c-.029-.325-.229-.557-.59-.557zm6.121-.853h-.712v.76h.739c.35 0 .513-.116.513-.38 0-.325-.263-.38-.54-.38z"/><path stroke="#FFF" stroke-linecap="round" stroke-linejoin="round" stroke-width=".85" d="M29.006 21.314l4.449 4.962-4.45 4.62m4.822-9.582l4.451 4.962-4.45 4.62m-8.543-.154c-.182.008-.367.013-.553.013-6.836 0-12.379-5.543-12.379-12.378S17.896 6 24.733 6c6.613 0 12.017 5.189 12.36 11.717"/><path fill="#FFF" d="M20.861 19.077l2.794-5.828 4.98-1.311-2.584 4.744 2.955.238-6.79 8.066.959-5.35-2.586.085z"/></g></svg>