<svg xmlns="http://www.w3.org/2000/svg" width="48" height="48"><g fill="none" fill-rule="evenodd"><path fill="#AF235F" d="M0 48h48V0H0z"/><path fill="#FF87BA" d="M20.861 26.218c-5.575 0-10.109-4.537-10.109-10.11C10.752 10.532 15.286 6 20.861 6c5.574 0 10.109 4.533 10.109 10.107 0 5.574-4.535 10.11-10.109 10.11m0-19.245c-5.039 0-9.138 4.097-9.138 9.135 0 5.04 4.1 9.138 9.138 9.138 5.039 0 9.136-4.099 9.136-9.138 0-5.038-4.097-9.135-9.136-9.135"/><path fill="#FF87BA" d="M20.861 9.84a.486.486 0 00-.487.486V21.89a.486.486 0 00.973 0V10.326a.486.486 0 00-.486-.487"/><path fill="#FFF" d="M28.756 18.966l5.225 5.224a.949.949 0 010 1.343l-5.225 5.225a.95.95 0 01-1.344-1.343l4.556-4.553-4.556-4.554a.947.947 0 01.001-1.343.974.974 0 011.343.001zm6.056-.002l5.227 5.225a.95.95 0 010 1.341l-5.227 5.226a.947.947 0 11-1.34-1.34l4.555-4.555-4.555-4.555a.943.943 0 01-.001-1.342.972.972 0 011.341 0zM8.136 38.326c.353 0 .596.126.857.443l.022-.383h.625c-.022.317-.027.553-.027 1.118v2.858h-.648v-1.536c-.227.298-.47.418-.824.418-.388 0-.664-.148-.875-.455-.171-.263-.266-.609-.266-1.01 0-.877.45-1.453 1.136-1.453zm3.003.06v1.65c0 .26.01.369.055.473.062.152.2.242.388.242.248 0 .509-.17.73-.472v-1.893h.647v1.815c0 .385.005.61.027.983h-.613l-.016-.413c-.332.346-.604.473-.985.473-.355 0-.625-.138-.758-.395-.088-.17-.122-.378-.122-.779v-1.684h.647zm5.416-.06c.337 0 .603.06.913.213l-.193.479c-.233-.144-.427-.205-.653-.205-.47 0-.737.346-.737.971 0 .61.288.966.792.966.237 0 .42-.06.642-.214l.21.466c-.26.165-.559.243-.913.243-.873 0-1.4-.545-1.4-1.45 0-.921.498-1.47 1.339-1.47zm5.616-1c.337 0 .641.056 1.073.193l-.134.565c-.376-.16-.64-.22-.912-.22-.37 0-.609.187-.609.478 0 .252.139.373.693.598.458.187.64.28.8.41.206.178.317.434.317.76 0 .717-.499 1.135-1.35 1.135-.405 0-.737-.055-1.14-.193l.089-.582c.458.176.724.236 1.029.236.41 0 .663-.207.663-.547 0-.28-.105-.375-.74-.643-.456-.194-.587-.258-.742-.379-.21-.17-.316-.4-.316-.695 0-.686.487-1.115 1.279-1.115zm2.75.33v.731h.641v.487h-.642v1.3c0 .411.095.555.376.555a.83.83 0 00.305-.067l.06.488a1.8 1.8 0 01-.575.095c-.32 0-.548-.1-.674-.29-.1-.15-.139-.359-.139-.747v-1.334h-.454v-.487h.454v-.61l.647-.121zm2.222.67c.443 0 .786.126.975.368.16.196.21.41.21.943v.833c0 .236.011.572.028.714h-.615l-.022-.318c-.271.274-.503.378-.873.378-.57 0-.908-.318-.908-.844 0-.351.16-.631.448-.786.188-.099.449-.141.835-.141.11 0 .205.005.46.016v-.055c0-.411-.217-.636-.626-.636-.242 0-.475.071-.762.236l-.173-.461c.344-.17.653-.247 1.023-.247zm5.018-.67v.731h.642v.487h-.642v1.3c0 .411.095.555.377.555a.835.835 0 00.305-.067l.06.488a1.8 1.8 0 01-.574.095c-.323 0-.549-.1-.676-.29-.1-.15-.139-.359-.139-.747v-1.334h-.453v-.487h.453v-.61l.647-.121zm-17.641.73v2.798h-.648v-2.798h.648zm4.22-1.213v2.391l1.002-1.178h.747l-1.09 1.228 1.194 1.57h-.785l-1.067-1.438v1.438h-.648v-4.011h.648zm11.862 1.17c.09 0 .144.005.248.031l-.038.565a1.257 1.257 0 00-.22-.02c-.322 0-.577.23-.698.64v1.625h-.641v-1.826a47.035 47.035 0 00-.022-.972h.607l.017.527c.166-.385.415-.57.747-.57zm-3.123 1.536h-.092c-.53 0-.78.157-.78.504 0 .258.171.423.438.423.248 0 .453-.127.636-.391v-.525c-.128-.011-.195-.011-.294-.011zm-19.172-1.06c-.388 0-.636.368-.636.955 0 .591.242.977.618.977.26 0 .465-.144.676-.478v-.994c-.194-.311-.41-.46-.658-.46zm5.892-1.733c.231 0 .397.165.397.395 0 .236-.166.4-.397.4a.386.386 0 01-.405-.4c0-.23.173-.395.405-.395z"/></g></svg>