<svg xmlns="http://www.w3.org/2000/svg" width="17" height="17"><defs><clipPath id="a"><path fill="#fff" d="M10 7V0h7v7zm3-4h-2v1h2v2h1V4h2V3h-2V1h-1z"/></clipPath></defs><path fill="#fff" d="M14 15c0 .825-.675 1.5-1.5 1.5S11 15.825 11 15s.675-1.5 1.5-1.5 1.5.675 1.5 1.5zM2.975 1.5L3.65 3h11.1c.45 0 .75.3.75.75 0 .15 0 .225-.15.375L12.65 9c-.225.45-.675.75-1.275.75h-5.55l-.675 1.275v.075c0 .075.075.15.15.15H14v1.5H5c-.825 0-1.5-.675-1.5-1.5 0-.225.075-.525.15-.75L4.7 8.7 2 3H.5V1.5zM6.5 15c0 .825-.675 1.5-1.5 1.5s-1.5-.675-1.5-1.5.675-1.5 1.5-1.5 1.5.675 1.5 1.5z"/><path fill="#fff" d="M13 1h1v2h2v1h-2v2h-1V4h-2V3h2z"/><path fill="none" stroke="fff" stroke-miterlimit="50" stroke-width="2" d="M13 1h1v2h2v1h-2v2h-1V4h-2V3h2z" clip-path="url(&quot;#a&quot;)"/></svg>