<svg xmlns="http://www.w3.org/2000/svg" width="24" height="24" viewBox="0 0 24 24">
  <g fill="none" fill-rule="evenodd">
    <rect width="24" height="24" fill="#00B2B2" fill-rule="nonzero" rx="2"/>
    <path fill="#FFF" d="M11.8155995,20 C16.1280263,20.0031979 19.626573,16.5098068 19.6297749,12.1975577 C19.630662,10.8818026 19.2992787,9.58738124 18.6662016,8.43411774 L17.6551627,9.44533445 C19.1716322,12.6732989 17.7844092,16.5195847 14.5564448,18.0360542 C11.3283025,19.5527015 7.48201672,18.1654786 5.96536943,14.9371586 C4.44872214,11.7093719 5.83630063,7.86308608 9.0642651,6.34643879 C10.8036716,5.52935861 12.8166827,5.52918083 14.556267,6.34643879 L15.5673059,5.33522207 C11.7828878,3.2624767 7.03489822,4.64987741 4.96197507,8.43429552 C2.8892297,12.2185358 4.27663041,16.9667032 8.06104852,19.0394486 C9.21200087,19.6700368 10.5032222,20.0001756 11.8155995,20 M11.8155995,8.9710155 C12.2307174,8.9710155 12.642102,9.05208351 13.0262861,9.20959722 L14.0440807,8.19180262 C11.8335553,6.95640442 9.0402647,7.74681749 7.8048665,9.95734292 C6.56946831,12.1676906 7.36005915,14.9609812 9.5704068,16.1963794 C11.7807544,17.4317776 14.5742228,16.6413645 15.8094433,14.4308391 C16.586345,13.0409494 16.586345,11.3474103 15.8094433,9.95734292 L14.7918264,10.9751375 C15.4599264,12.6196091 14.6682688,14.494129 13.0237972,15.1620512 C11.3795034,15.8301511 9.50498349,15.0386714 8.83706134,13.3941997 C8.16896141,11.7499059 8.96044116,9.87520822 10.604735,9.20728607 C10.9894525,9.05101682 11.4006593,8.97083772 11.8155995,8.9710155 M15.3536135,6.55462 L17.8610327,4.04720078 C17.9239671,3.98426641 18.0258355,3.98426641 18.0887698,4.04720078 C18.1189925,4.0774235 18.1358817,4.11831307 18.1358817,4.16098044 L18.1358817,5.7046504 C18.1358817,5.79354076 18.2080607,5.86554195 18.296951,5.86554195 L19.8404432,5.86554195 C19.9293336,5.86554195 20.0013348,5.93772092 20.0013348,6.02661128 C20.0013348,6.06927865 19.9844456,6.11016821 19.9544007,6.14039093 L17.4468037,8.64781016 C17.3924028,8.70221106 17.316846,8.72976707 17.2400447,8.72318918 L16.1333597,8.6280765 L12.8908172,11.8704412 C13.0662868,12.4654733 12.7260145,13.0898391 12.1309825,13.2653087 C11.5361282,13.4406005 10.9115845,13.1003282 10.7362927,12.5052961 C10.5610009,11.9104419 10.9010955,11.2858982 11.4961275,11.1106064 C11.7034198,11.0494499 11.9236901,11.0494499 12.1309825,11.1106064 L15.3733472,7.86824172 L15.2782345,6.76137898 C15.2716566,6.68475549 15.2992126,6.6090209 15.3536135,6.55462"/>
  </g>
</svg>
