<svg xmlns="http://www.w3.org/2000/svg" width="24" height="24" viewBox="0 0 24 24">
  <g fill="none" fill-rule="evenodd">
    <rect width="24" height="24" fill="#00B2B2" rx="2"/>
    <path fill="#FFF" fill-rule="nonzero" d="M8.736,17.68 L16.528,6.8 L15.36,6 L7.568,16.88 L8.736,17.68 Z M8.688,11.856 C10.336,11.856 11.376,10.688 11.376,8.992 C11.376,7.296 10.336,6.128 8.688,6.128 C7.04,6.128 6,7.296 6,8.992 C6,10.688 7.04,11.856 8.688,11.856 Z M8.688,10.272 C8.128,10.272 7.824,9.872 7.824,8.992 C7.824,8.112 8.128,7.712 8.688,7.712 C9.248,7.712 9.552,8.112 9.552,8.992 C9.552,9.872 9.248,10.272 8.688,10.272 Z M15.408,17.552 C17.056,17.552 18.096,16.384 18.096,14.688 C18.096,12.992 17.056,11.824 15.408,11.824 C13.76,11.824 12.72,12.992 12.72,14.688 C12.72,16.384 13.76,17.552 15.408,17.552 Z M15.408,15.968 C14.848,15.968 14.544,15.568 14.544,14.688 C14.544,13.808 14.848,13.408 15.408,13.408 C15.968,13.408 16.272,13.808 16.272,14.688 C16.272,15.568 15.968,15.968 15.408,15.968 Z"/>
  </g>
</svg>
